SplineFontDB: 3.2
FontName: Barlow-Light
FullName: Barlow Light
FamilyName: Barlow Light
Weight: Light
Copyright: Copyright 2017 The Barlow Project Authors (https://github.com/jpt/barlow)
Version: 1.408
ItalicAngle: 0
UnderlinePosition: -100
UnderlineWidth: 50
Ascent: 800
Descent: 200
InvalidEm: 0
sfntRevision: 0x00016872
LayerCount: 2
Layer: 0 1 "Back" 1
Layer: 1 1 "Fore" 0
XUID: [1021 264 443064965 10531171]
StyleMap: 0x0040
FSType: 0
OS2Version: 4
OS2_WeightWidthSlopeOnly: 0
OS2_UseTypoMetrics: 1
CreationTime: 1541557271
ModificationTime: 1726595548
PfmFamily: 81
TTFWeight: 300
TTFWidth: 5
LineGap: 0
VLineGap: 0
Panose: 0 0 4 0 0 0 0 0 0 0
OS2TypoAscent: 1000
OS2TypoAOffset: 0
OS2TypoDescent: -200
OS2TypoDOffset: 0
OS2TypoLinegap: 0
OS2WinAscent: 1112
OS2WinAOffset: 0
OS2WinDescent: 249
OS2WinDOffset: 0
HheadAscent: 1000
HheadAOffset: 0
HheadDescent: -200
HheadDOffset: 0
OS2SubXSize: 650
OS2SubYSize: 600
OS2SubXOff: 0
OS2SubYOff: 75
OS2SupXSize: 650
OS2SupYSize: 600
OS2SupXOff: 0
OS2SupYOff: 350
OS2StrikeYSize: 50
OS2StrikeYPos: 302
OS2CapHeight: 700
OS2XHeight: 504
OS2Vendor: 'TRBY'
OS2CodePages: 20000193.00000000
OS2UnicodeRanges: 20000007.00000000.00000000.00000000
Lookup: 1 0 0 "'aalt' Access All Alternates in Latin lookup 0" { "'aalt' Access All Alternates in Latin lookup 0 subtable"  } ['aalt' ('DFLT' <'dflt' > 'latn' <'AZE ' 'CAT ' 'CRT ' 'KAZ ' 'TAT ' 'TRK ' 'dflt' > ) ]
Lookup: 3 0 0 "'aalt' Access All Alternates in Latin lookup 1" { "'aalt' Access All Alternates in Latin lookup 1 subtable"  } ['aalt' ('DFLT' <'dflt' > 'latn' <'AZE ' 'CAT ' 'CRT ' 'KAZ ' 'TAT ' 'TRK ' 'dflt' > ) ]
Lookup: 6 0 0 "'ccmp' Glyph Composition/Decomposition in Latin lookup 2" { "'ccmp' Glyph Composition/Decomposition in Latin lookup 2 contextual 0"  "'ccmp' Glyph Composition/Decomposition in Latin lookup 2 contextual 1"  } ['ccmp' ('DFLT' <'dflt' > 'latn' <'AZE ' 'CAT ' 'CRT ' 'KAZ ' 'TAT ' 'TRK ' 'dflt' > ) ]

StartChar: .notdef
Encoding: 65536 -1 0
Width: 404
GlyphClass: 1
Flags: W
LayerCount: 2
Fore
SplineSet
91.2646484375 0 m 2,1,-1
 487.264648438 0 l 2,2,3
 491.264648438 0 491.264648438 0 490.267578125 4 c 2,4,-1
 317.732421875 696 l 2,5,6
 316.735351562 700 316.735351562 700 312.735351562 700 c 2,7,-1
 -83.2646484375 700 l 2,8,9
 -87.2646484375 700 -87.2646484375 700 -86.267578125 696 c 2,10,-1
 86.267578125 4 l 2,11,0
 87.2646484375 0 87.2646484375 0 91.2646484375 0 c 2,1,-1
203.924804688 238 m 2,13,-1
 192.954101562 282 l 2,14,15
 185.723632812 311 185.723632812 311 194.986328125 330 c 128,-1,16
 204.249023438 349 204.249023438 349 228.265625 373 c 0,17,18
 253.783203125 399 253.783203125 399 264.171875 419.5 c 128,-1,19
 274.560546875 440 274.560546875 440 266.083007812 474 c 0,20,21
 256.359375 513 256.359375 513 226 536.5 c 128,-1,22
 195.641601562 560 195.641601562 560 155.641601562 560 c 0,23,24
 114.641601562 560 114.641601562 560 96 536.5 c 128,-1,25
 77.359375 513 77.359375 513 87.0830078125 474 c 2,26,-1
 92.568359375 452 l 2,27,28
 95.0615234375 442 95.0615234375 442 85.0615234375 442 c 2,29,-1
 66.8125 443 l 2,30,31
 56.8125 443 56.8125 443 54.3193359375 453 c 2,32,-1
 49.0830078125 474 l 2,33,34
 35.619140625 528 35.619140625 528 62.642578125 562 c 128,-1,35
 89.6650390625 596 89.6650390625 596 147.665039062 596 c 0,36,37
 203.665039062 596 203.665039062 596 247.142578125 562 c 128,-1,38
 290.619140625 528 290.619140625 528 304.333007812 473 c 0,39,40
 315.552734375 428 315.552734375 428 303.159179688 401.5 c 128,-1,41
 290.766601562 375 290.766601562 375 263.249023438 349 c 0,42,43
 243.485351562 328 243.485351562 328 235.475585938 314 c 128,-1,44
 227.466796875 300 227.466796875 300 232.453125 280 c 2,45,-1
 242.924804688 238 l 2,46,47
 245.41796875 228 245.41796875 228 235.41796875 228 c 2,48,-1
 216.41796875 228 l 2,49,12
 206.41796875 228 206.41796875 228 203.924804688 238 c 2,13,-1
232.083007812 101 m 128,-1,51
 219.58984375 111 219.58984375 111 215.600585938 127 c 256,52,53
 211.611328125 143 211.611328125 143 219.1171875 153 c 128,-1,54
 226.624023438 163 226.624023438 163 241.624023438 163 c 0,55,56
 257.624023438 163 257.624023438 163 270.1171875 153 c 128,-1,57
 282.611328125 143 282.611328125 143 286.600585938 127 c 256,58,59
 290.58984375 111 290.58984375 111 283.083007812 101 c 128,-1,60
 275.576171875 91 275.576171875 91 259.576171875 91 c 0,61,50
 244.576171875 91 244.576171875 91 232.083007812 101 c 128,-1,51
EndSplineSet
EndChar

StartChar: A
Encoding: 65 65 4
Width: 590
GlyphClass: 2
Flags: W
AnchorPoint: "Anchor-10" 87.2646 0 basechar 0
AnchorPoint: "Anchor-9" 87.2646 0 basechar 0
AnchorPoint: "Anchor-8" 87.2646 0 basechar 0
AnchorPoint: "Anchor-7" 206.735 700 basechar 0
AnchorPoint: "Anchor-6" 382.265 0 basechar 0
LayerCount: 2
Fore
SplineSet
583.270507812 8 m 2,1,-1
 507.109375 141 l 2,2,3
 505.361328125 144 505.361328125 144 502.361328125 144 c 2,4,-1
 190.361328125 144 l 2,5,6
 187.361328125 144 187.361328125 144 187.109375 141 c 2,7,-1
 178.270507812 8 l 2,8,9
 177.264648438 0 177.264648438 0 168.264648438 0 c 2,10,-1
 133.264648438 0 l 2,11,12
 122.264648438 0 122.264648438 0 122.522460938 11 c 2,13,-1
 174.729492188 692 l 2,14,15
 175.735351562 700 175.735351562 700 184.735351562 700 c 2,16,-1
 229.735351562 700 l 2,17,18
 238.735351562 700 238.735351562 700 243.729492188 692 c 2,19,-1
 636.522460938 11 l 1,20,-1
 638.51953125 7 l 2,21,22
 640.264648438 0 640.264648438 0 631.264648438 0 c 2,23,-1
 597.264648438 0 l 2,24,0
 588.264648438 0 588.264648438 0 583.270507812 8 c 2,1,-1
191.517578125 189.5 m 128,-1,26
 193.391601562 188 193.391601562 188 195.391601562 188 c 2,27,-1
 475.391601562 188 l 2,28,29
 477.391601562 188 477.391601562 188 478.517578125 189.5 c 128,-1,30
 479.643554688 191 479.643554688 191 478.14453125 193 c 2,31,-1
 228.686523438 628 l 2,32,33
 227.188476562 630 227.188476562 630 225.188476562 630 c 128,-1,34
 223.188476562 630 223.188476562 630 222.686523438 628 c 2,35,-1
 190.14453125 193 l 2,36,25
 189.643554688 191 189.643554688 191 191.517578125 189.5 c 128,-1,26
EndSplineSet
Substitution2: "Single Substitution lookup 24 subtable" ordfeminine
Substitution2: "'c2sc' Capitals to Small Capitals in Latin lookup 19 subtable" a.sc
AlternateSubs2: "'aalt' Access All Alternates in Latin lookup 1 subtable" ordfeminine a.sc
EndChar

StartChar: AE
Encoding: 198 198 27
Width: 911
GlyphClass: 1
Flags: W
LayerCount: 2
Fore
SplineSet
762.454101562 653 m 2,1,-1
 416.454101562 653 l 2,2,3
 412.454101562 653 412.454101562 653 413.451171875 649 c 2,4,-1
 480.76953125 379 l 2,5,6
 481.766601562 375 481.766601562 375 485.766601562 375 c 2,7,-1
 721.766601562 375 l 2,8,9
 731.766601562 375 731.766601562 375 734.259765625 365 c 2,10,-1
 740.9921875 338 l 2,11,12
 743.485351562 328 743.485351562 328 733.485351562 328 c 2,13,-1
 497.485351562 328 l 2,14,15
 493.485351562 328 493.485351562 328 494.482421875 324 c 2,16,-1
 562.548828125 51 l 2,17,18
 563.545898438 47 563.545898438 47 567.545898438 47 c 2,19,-1
 913.545898438 47 l 2,20,21
 923.545898438 47 923.545898438 47 926.040039062 37 c 2,22,-1
 932.771484375 10 l 2,23,24
 935.264648438 0 935.264648438 0 925.264648438 0 c 2,25,-1
 532.264648438 0 l 2,26,27
 522.264648438 0 522.264648438 0 519.771484375 10 c 2,28,-1
 487.358398438 140 l 2,29,30
 486.361328125 144 486.361328125 144 482.361328125 144 c 2,31,-1
 223.361328125 144 l 2,32,33
 220.361328125 144 220.361328125 144 219.109375 141 c 2,34,-1
 182.51953125 7 l 2,35,36
 181.264648438 0 181.264648438 0 172.264648438 0 c 2,37,-1
 134.264648438 0 l 2,38,39
 129.264648438 0 129.264648438 0 125.892578125 3.5 c 128,-1,40
 122.51953125 7 122.51953125 7 124.272460938 12 c 2,41,-1
 317.48046875 693 l 2,42,43
 318.735351562 700 318.735351562 700 327.735351562 700 c 2,44,-1
 750.735351562 700 l 2,45,46
 760.735351562 700 760.735351562 700 763.228515625 690 c 2,47,-1
 769.959960938 663 l 2,48,0
 772.454101562 653 772.454101562 653 762.454101562 653 c 2,1,-1
238.391601562 188 m 2,50,-1
 471.391601562 188 l 2,51,52
 475.391601562 188 475.391601562 188 474.393554688 192 c 2,53,-1
 363.692382812 636 l 2,54,55
 362.944335938 639 362.944335938 639 361.444335938 639 c 128,-1,56
 359.944335938 639 359.944335938 639 358.442382812 637 c 2,57,-1
 235.14453125 193 l 2,58,49
 234.391601562 188 234.391601562 188 238.391601562 188 c 2,50,-1
EndSplineSet
Substitution2: "'c2sc' Capitals to Small Capitals in Latin lookup 19 subtable" ae.sc
Substitution2: "'aalt' Access All Alternates in Latin lookup 0 subtable" ae.sc
EndChar

StartChar: B
Encoding: 66 66 28
Width: 629
GlyphClass: 1
Flags: W
LayerCount: 2
Fore
SplineSet
432.758789062 363 m 128,-1,1
 433.0078125 362 433.0078125 362 435.2578125 361 c 0,2,3
 494.9921875 338 494.9921875 338 535.461914062 294 c 128,-1,4
 575.932617188 250 575.932617188 250 591.141601562 189 c 0,5,6
 613.083007812 101 613.083007812 101 570.173828125 50.5 c 128,-1,7
 527.264648438 0 527.264648438 0 436.264648438 0 c 2,8,-1
 199.264648438 0 l 2,9,10
 189.264648438 0 189.264648438 0 186.771484375 10 c 2,11,-1
 17.228515625 690 l 2,12,13
 14.7353515625 700 14.7353515625 700 24.7353515625 700 c 2,14,-1
 254.735351562 700 l 2,15,16
 347.735351562 700 347.735351562 700 413.703125 652 c 128,-1,17
 479.670898438 604 479.670898438 604 500.86328125 519 c 0,18,19
 514.826171875 463 514.826171875 463 497.549804688 424 c 128,-1,20
 480.2734375 385 480.2734375 385 434.259765625 365 c 0,21,0
 432.509765625 364 432.509765625 364 432.758789062 363 c 128,-1,1
80.451171875 649 m 2,23,-1
 145.774414062 387 l 2,24,25
 146.772460938 383 146.772460938 383 150.772460938 383 c 2,26,-1
 333.772460938 383 l 2,27,28
 401.772460938 383 401.772460938 383 433.171875 419.5 c 128,-1,29
 464.571289062 456 464.571289062 456 449.611328125 516 c 0,30,31
 434.153320312 578 434.153320312 578 384.303710938 615.5 c 128,-1,32
 334.454101562 653 334.454101562 653 266.454101562 653 c 2,33,-1
 83.4541015625 653 l 2,34,22
 79.4541015625 653 79.4541015625 653 80.451171875 649 c 2,23,-1
522.948242188 87.5 m 128,-1,36
 553.600585938 127 553.600585938 127 537.393554688 192 c 0,37,38
 520.688476562 259 520.688476562 259 468.840820312 298.5 c 128,-1,39
 416.9921875 338 416.9921875 338 346.9921875 338 c 2,40,-1
 161.9921875 338 l 2,41,42
 157.9921875 338 157.9921875 338 158.989257812 334 c 2,43,-1
 229.299804688 52 l 2,44,45
 230.296875 48 230.296875 48 234.296875 48 c 2,46,-1
 424.296875 48 l 2,47,35
 492.296875 48 492.296875 48 522.948242188 87.5 c 128,-1,36
EndSplineSet
Substitution2: "'c2sc' Capitals to Small Capitals in Latin lookup 19 subtable" b.sc
Substitution2: "'aalt' Access All Alternates in Latin lookup 0 subtable" b.sc
EndChar

StartChar: C
Encoding: 67 67 29
Width: 607
GlyphClass: 2
Flags: W
AnchorPoint: "Anchor-10" 87.1406 0 basechar 0
AnchorPoint: "Anchor-9" 87.1406 0 basechar 0
AnchorPoint: "Anchor-8" 87.1406 0 basechar 0
AnchorPoint: "Anchor-7" 220.61 700 basechar 0
AnchorPoint: "Anchor-6" 364.384 -9 basechar 0
LayerCount: 2
Fore
SplineSet
270.65234375 18 m 128,-1,1
 211.919921875 45 211.919921875 45 171.079101562 94.5 c 128,-1,2
 130.237304688 144 130.237304688 144 114.280273438 208 c 2,3,-1
 43.2216796875 493 l 2,4,5
 27.2646484375 557 27.2646484375 557 43.671875 605.5 c 128,-1,6
 60.080078125 654 60.080078125 654 105.34765625 681 c 128,-1,7
 150.616210938 708 150.616210938 708 218.616210938 708 c 0,8,9
 285.616210938 708 285.616210938 708 344.22265625 681.5 c 128,-1,10
 402.830078125 655 402.830078125 655 443.297851562 607 c 128,-1,11
 483.765625 559 483.765625 559 499.473632812 496 c 2,12,-1
 499.72265625 495 l 2,13,14
 500.969726562 490 500.969726562 490 498.717773438 487 c 128,-1,15
 496.465820312 484 496.465820312 484 492.465820312 484 c 2,16,-1
 459.963867188 482 l 2,17,18
 449.963867188 482 449.963867188 482 447.470703125 492 c 2,19,-1
 446.72265625 495 l 2,20,21
 428.0234375 570 428.0234375 570 368.678710938 615.5 c 128,-1,22
 309.333984375 661 309.333984375 661 230.333984375 661 c 0,23,24
 150.333984375 661 150.333984375 661 113.678710938 615.5 c 128,-1,25
 77.0234375 570 77.0234375 570 95.72265625 495 c 2,26,-1
 168.028320312 205 l 2,27,28
 186.727539062 130 186.727539062 130 246.696289062 84 c 128,-1,29
 306.666015625 38 306.666015625 38 385.666015625 38 c 256,30,31
 464.666015625 38 464.666015625 38 501.196289062 84 c 128,-1,32
 537.727539062 130 537.727539062 130 519.028320312 205 c 2,33,-1
 518.529296875 207 l 2,34,35
 516.28515625 216 516.28515625 216 526.28515625 216 c 2,36,-1
 559.784179688 214 l 2,37,38
 569.784179688 214 569.784179688 214 572.028320312 205 c 0,39,40
 587.735351562 142 587.735351562 142 571.328125 93.5 c 128,-1,41
 554.919921875 45 554.919921875 45 509.65234375 18 c 128,-1,42
 464.383789062 -9 464.383789062 -9 397.383789062 -9 c 0,43,0
 329.383789062 -9 329.383789062 -9 270.65234375 18 c 128,-1,1
EndSplineSet
Substitution2: "'c2sc' Capitals to Small Capitals in Latin lookup 19 subtable" c.sc
Substitution2: "'aalt' Access All Alternates in Latin lookup 0 subtable" c.sc
EndChar

StartChar: Ccedilla
Encoding: 199 199 32
Width: 607
GlyphClass: 2
Flags: W
AnchorPoint: "Anchor-10" 64.8252 0 basechar 0
AnchorPoint: "Anchor-9" 64.8252 0 basechar 0
AnchorPoint: "Anchor-8" 64.8252 0 basechar 0
AnchorPoint: "Anchor-7" 64.8252 0 basechar 0
AnchorPoint: "Anchor-6" 342.069 -9 basechar 0
LayerCount: 2
Fore
SplineSet
476.52734375 486.5 m 128,-1,1
 474.150390625 484 474.150390625 484 470.150390625 484 c 2,2,-1
 437.649414062 482 l 2,3,4
 427.649414062 482 427.649414062 482 425.15625 492 c 2,5,-1
 424.408203125 495 l 2,6,7
 405.708007812 570 405.708007812 570 346.364257812 615.5 c 128,-1,8
 287.01953125 661 287.01953125 661 208.01953125 661 c 0,9,10
 128.01953125 661 128.01953125 661 91.3642578125 615.5 c 128,-1,11
 54.7080078125 570 54.7080078125 570 73.408203125 495 c 2,12,-1
 145.712890625 205 l 2,13,14
 164.413085938 130 164.413085938 130 224.381835938 84 c 128,-1,15
 284.350585938 38 284.350585938 38 363.350585938 38 c 256,16,17
 442.350585938 38 442.350585938 38 478.881835938 84 c 128,-1,18
 515.413085938 130 515.413085938 130 496.712890625 205 c 2,19,-1
 496.21484375 207 l 2,20,21
 493.970703125 216 493.970703125 216 503.970703125 216 c 2,22,-1
 537.46875 214 l 2,23,24
 547.46875 214 547.46875 214 549.712890625 205 c 0,25,26
 565.420898438 142 565.420898438 142 549.012695312 93.5 c 128,-1,27
 532.60546875 45 532.60546875 45 487.336914062 18 c 128,-1,28
 442.069335938 -9 442.069335938 -9 375.069335938 -9 c 2,29,-1
 370.069335938 -9 l 2,30,31
 368.069335938 -9 368.069335938 -9 367.568359375 -11 c 128,-1,32
 367.06640625 -13 367.06640625 -13 369.315429688 -14 c 0,33,34
 432.53515625 -59 432.53515625 -59 444.25390625 -106 c 0,35,36
 447.24609375 -118 447.24609375 -118 446.739257812 -128 c 0,37,38
 447.46875 -159 447.46875 -159 427.583984375 -173.5 c 128,-1,39
 407.69921875 -188 407.69921875 -188 377.69921875 -188 c 0,40,41
 358.69921875 -188 358.69921875 -188 339.452148438 -183 c 0,42,43
 330.203125 -182 330.203125 -182 329.459960938 -171 c 2,44,-1
 328.969726562 -157 l 2,45,46
 327.4765625 -147 327.4765625 -147 339.224609375 -150 c 0,47,48
 353.72265625 -152 353.72265625 -152 360.72265625 -152 c 0,49,50
 384.72265625 -152 384.72265625 -152 396.106445312 -139.5 c 128,-1,51
 407.490234375 -127 407.490234375 -127 401.0078125 -101 c 0,52,53
 390.78515625 -60 390.78515625 -60 329.565429688 -15 c 2,54,-1
 312.573242188 -3 l 1,55,-1
 310.32421875 -2 l 1,56,57
 229.084960938 15 229.084960938 15 170.623046875 71 c 128,-1,58
 112.16015625 127 112.16015625 127 91.96484375 208 c 2,59,-1
 20.90625 493 l 2,60,61
 4.94921875 557 4.94921875 557 21.357421875 605.5 c 128,-1,62
 37.7646484375 654 37.7646484375 654 83.033203125 681 c 128,-1,63
 128.30078125 708 128.30078125 708 196.30078125 708 c 0,64,65
 263.30078125 708 263.30078125 708 321.908203125 681.5 c 128,-1,66
 380.515625 655 380.515625 655 420.983398438 607 c 128,-1,67
 461.451171875 559 461.451171875 559 477.158203125 496 c 2,68,-1
 478.405273438 491 l 2,69,0
 478.904296875 489 478.904296875 489 476.52734375 486.5 c 128,-1,1
EndSplineSet
Substitution2: "'c2sc' Capitals to Small Capitals in Latin lookup 19 subtable" ccedilla.sc
Substitution2: "'aalt' Access All Alternates in Latin lookup 0 subtable" ccedilla.sc
EndChar

StartChar: D
Encoding: 68 68 35
Width: 618
GlyphClass: 2
Flags: W
AnchorPoint: "Anchor-10" 87.2646 0 basechar 0
AnchorPoint: "Anchor-9" 87.2646 0 basechar 0
AnchorPoint: "Anchor-8" 87.2646 0 basechar 0
AnchorPoint: "Anchor-7" 225.735 700 basechar 0
AnchorPoint: "Anchor-6" 87.2646 0 basechar 0
LayerCount: 2
Fore
SplineSet
186.771484375 10 m 2,1,-1
 17.228515625 690 l 2,2,3
 14.7353515625 700 14.7353515625 700 24.7353515625 700 c 2,4,-1
 256.735351562 700 l 2,5,6
 352.735351562 700 352.735351562 700 421.326171875 649.5 c 128,-1,7
 489.916992188 599 489.916992188 599 511.608398438 512 c 2,8,-1
 592.391601562 188 l 2,9,10
 614.083007812 101 614.083007812 101 570.673828125 50.5 c 128,-1,11
 527.264648438 0 527.264648438 0 431.264648438 0 c 2,12,-1
 199.264648438 0 l 2,13,0
 189.264648438 0 189.264648438 0 186.771484375 10 c 2,1,-1
234.545898438 47 m 2,15,-1
 422.545898438 47 l 2,16,17
 492.545898438 47 492.545898438 47 523.198242188 86.5 c 128,-1,18
 553.849609375 126 553.849609375 126 537.895507812 194 c 2,19,-1
 460.104492188 506 l 2,20,21
 443.150390625 574 443.150390625 574 392.801757812 613.5 c 128,-1,22
 342.454101562 653 342.454101562 653 271.454101562 653 c 2,23,-1
 83.4541015625 653 l 2,24,25
 79.4541015625 653 79.4541015625 653 80.451171875 649 c 2,26,-1
 229.548828125 51 l 2,27,14
 230.545898438 47 230.545898438 47 234.545898438 47 c 2,15,-1
EndSplineSet
Substitution2: "'c2sc' Capitals to Small Capitals in Latin lookup 19 subtable" d.sc
Substitution2: "'aalt' Access All Alternates in Latin lookup 0 subtable" d.sc
EndChar

StartChar: Eth
Encoding: 208 208 36
Width: 687
GlyphClass: 2
Flags: W
AnchorPoint: "Anchor-10" 87.2646 0 basechar 0
AnchorPoint: "Anchor-9" 87.2646 0 basechar 0
AnchorPoint: "Anchor-8" 87.2646 0 basechar 0
AnchorPoint: "Anchor-7" 294.735 700 basechar 0
AnchorPoint: "Anchor-6" 87.2646 0 basechar 0
LayerCount: 2
Fore
SplineSet
489.826171875 649.5 m 128,-1,1
 557.916992188 599 557.916992188 599 579.608398438 512 c 2,2,-1
 660.391601562 188 l 2,3,4
 682.083007812 101 682.083007812 101 639.173828125 50.5 c 128,-1,5
 596.264648438 0 596.264648438 0 500.264648438 0 c 2,6,-1
 268.264648438 0 l 2,7,8
 258.264648438 0 258.264648438 0 255.771484375 10 c 2,9,-1
 173.244140625 341 l 2,10,11
 172.247070312 345 172.247070312 345 168.247070312 345 c 2,12,-1
 113.247070312 345 l 2,13,14
 103.247070312 345 103.247070312 345 100.752929688 355 c 2,15,-1
 95.7666015625 375 l 2,16,17
 93.2734375 385 93.2734375 385 103.2734375 385 c 2,18,-1
 158.2734375 385 l 2,19,20
 162.2734375 385 162.2734375 385 161.276367188 389 c 2,21,-1
 86.228515625 690 l 2,22,23
 83.7353515625 700 83.7353515625 700 93.7353515625 700 c 2,24,-1
 325.735351562 700 l 2,25,0
 421.735351562 700 421.735351562 700 489.826171875 649.5 c 128,-1,1
528.104492188 506 m 2,26,27
 511.150390625 574 511.150390625 574 460.801757812 613.5 c 128,-1,28
 410.454101562 653 410.454101562 653 340.454101562 653 c 2,29,-1
 152.454101562 653 l 2,30,31
 148.454101562 653 148.454101562 653 149.451171875 649 c 2,32,-1
 214.276367188 389 l 2,33,34
 215.2734375 385 215.2734375 385 219.2734375 385 c 2,35,-1
 347.2734375 385 l 2,36,37
 357.2734375 385 357.2734375 385 359.766601562 375 c 2,38,-1
 364.752929688 355 l 2,39,40
 367.247070312 345 367.247070312 345 357.247070312 345 c 2,41,-1
 229.247070312 345 l 2,42,43
 225.247070312 345 225.247070312 345 226.244140625 341 c 2,44,-1
 298.548828125 51 l 2,45,46
 299.545898438 47 299.545898438 47 303.545898438 47 c 2,47,-1
 491.545898438 47 l 2,48,49
 561.545898438 47 561.545898438 47 592.198242188 86.5 c 128,-1,50
 622.849609375 126 622.849609375 126 605.895507812 194 c 2,51,-1
 528.104492188 506 l 2,26,27
EndSplineSet
Substitution2: "'c2sc' Capitals to Small Capitals in Latin lookup 19 subtable" eth.sc
Substitution2: "'aalt' Access All Alternates in Latin lookup 0 subtable" eth.sc
EndChar

StartChar: E
Encoding: 69 69 39
Width: 611
GlyphClass: 2
Flags: W
AnchorPoint: "Anchor-10" 87.2646 0 basechar 0
AnchorPoint: "Anchor-9" 87.2646 0 basechar 0
AnchorPoint: "Anchor-8" 87.2646 0 basechar 0
AnchorPoint: "Anchor-7" 232.735 700 basechar 0
AnchorPoint: "Anchor-6" 411.265 0 basechar 0
LayerCount: 2
Fore
SplineSet
462.454101562 653 m 2,1,-1
 83.4541015625 653 l 2,2,3
 79.4541015625 653 79.4541015625 653 80.451171875 649 c 2,4,-1
 147.76953125 379 l 2,5,6
 148.766601562 375 148.766601562 375 152.766601562 375 c 2,7,-1
 421.766601562 375 l 2,8,9
 431.766601562 375 431.766601562 375 434.259765625 365 c 2,10,-1
 440.9921875 338 l 2,11,12
 443.485351562 328 443.485351562 328 433.485351562 328 c 2,13,-1
 164.485351562 328 l 2,14,15
 160.485351562 328 160.485351562 328 161.482421875 324 c 2,16,-1
 229.548828125 51 l 2,17,18
 230.545898438 47 230.545898438 47 234.545898438 47 c 2,19,-1
 613.545898438 47 l 2,20,21
 623.545898438 47 623.545898438 47 626.040039062 37 c 2,22,-1
 632.771484375 10 l 2,23,24
 635.264648438 0 635.264648438 0 625.264648438 0 c 2,25,-1
 199.264648438 0 l 2,26,27
 189.264648438 0 189.264648438 0 186.771484375 10 c 2,28,-1
 17.228515625 690 l 2,29,30
 14.7353515625 700 14.7353515625 700 24.7353515625 700 c 2,31,-1
 450.735351562 700 l 2,32,33
 460.735351562 700 460.735351562 700 463.228515625 690 c 2,34,-1
 469.959960938 663 l 2,35,0
 472.454101562 653 472.454101562 653 462.454101562 653 c 2,1,-1
EndSplineSet
Substitution2: "'c2sc' Capitals to Small Capitals in Latin lookup 19 subtable" e.sc
Substitution2: "'aalt' Access All Alternates in Latin lookup 0 subtable" e.sc
EndChar

StartChar: uni0228
Encoding: 552 552 42
Width: 611
GlyphClass: 2
Flags: W
AnchorPoint: "Anchor-10" 64.9502 0 basechar 0
AnchorPoint: "Anchor-9" 64.9502 0 basechar 0
AnchorPoint: "Anchor-8" 64.9502 0 basechar 0
AnchorPoint: "Anchor-7" 64.9502 0 basechar 0
AnchorPoint: "Anchor-6" 388.95 0 basechar 0
LayerCount: 2
Fore
SplineSet
440.138671875 653 m 2,1,-1
 61.138671875 653 l 2,2,3
 57.138671875 653 57.138671875 653 58.1357421875 649 c 2,4,-1
 125.455078125 379 l 2,5,6
 126.452148438 375 126.452148438 375 130.452148438 375 c 2,7,-1
 399.452148438 375 l 2,8,9
 409.452148438 375 409.452148438 375 411.9453125 365 c 2,10,-1
 418.676757812 338 l 2,11,12
 421.169921875 328 421.169921875 328 411.169921875 328 c 2,13,-1
 142.169921875 328 l 2,14,15
 138.169921875 328 138.169921875 328 139.16796875 324 c 2,16,-1
 207.234375 51 l 2,17,18
 208.231445312 47 208.231445312 47 212.231445312 47 c 2,19,-1
 591.231445312 47 l 2,20,21
 601.231445312 47 601.231445312 47 603.724609375 37 c 2,22,-1
 610.45703125 10 l 2,23,24
 612.950195312 0 612.950195312 0 602.950195312 0 c 2,25,-1
 417.950195312 0 l 2,26,27
 415.950195312 0 415.950195312 0 415.448242188 -2 c 128,-1,28
 414.947265625 -4 414.947265625 -4 417.196289062 -5 c 0,29,30
 480.416015625 -50 480.416015625 -50 492.134765625 -97 c 0,31,32
 495.126953125 -109 495.126953125 -109 494.620117188 -119 c 0,33,34
 495.349609375 -150 495.349609375 -150 475.46484375 -164.5 c 128,-1,35
 455.580078125 -179 455.580078125 -179 425.580078125 -179 c 0,36,37
 407.580078125 -179 407.580078125 -179 386.333007812 -174 c 0,38,39
 377.083984375 -173 377.083984375 -173 376.340820312 -162 c 2,40,-1
 375.850585938 -148 l 2,41,42
 374.357421875 -138 374.357421875 -138 386.10546875 -141 c 0,43,44
 394.603515625 -143 394.603515625 -143 408.603515625 -143 c 0,45,46
 431.603515625 -143 431.603515625 -143 443.612304688 -131 c 128,-1,47
 455.620117188 -119 455.620117188 -119 449.137695312 -93 c 0,48,49
 438.166992188 -49 438.166992188 -49 370.448242188 -2 c 0,50,51
 368.950195312 0 368.950195312 0 364.950195312 0 c 2,52,-1
 176.950195312 0 l 2,53,54
 166.950195312 0 166.950195312 0 164.45703125 10 c 2,55,-1
 -5.0859375 690 l 2,56,57
 -7.580078125 700 -7.580078125 700 2.419921875 700 c 2,58,-1
 428.419921875 700 l 2,59,60
 438.419921875 700 438.419921875 700 440.9140625 690 c 2,61,-1
 447.645507812 663 l 2,62,0
 450.138671875 653 450.138671875 653 440.138671875 653 c 2,1,-1
EndSplineSet
Substitution2: "'c2sc' Capitals to Small Capitals in Latin lookup 19 subtable" uni0229.sc
Substitution2: "'aalt' Access All Alternates in Latin lookup 0 subtable" uni0229.sc
EndChar

StartChar: Eogonek
Encoding: 280 280 55
Width: 611
GlyphClass: 2
Flags: W
AnchorPoint: "Anchor-10" 65.0742 0 basechar 0
AnchorPoint: "Anchor-9" 65.0742 0 basechar 0
AnchorPoint: "Anchor-8" 65.0742 0 basechar 0
AnchorPoint: "Anchor-7" 65.0742 0 basechar 0
AnchorPoint: "Anchor-6" 389.074 0 basechar 0
LayerCount: 2
Fore
SplineSet
440.263671875 653 m 2,1,-1
 61.263671875 653 l 2,2,3
 57.263671875 653 57.263671875 653 58.2607421875 649 c 2,4,-1
 125.579101562 379 l 2,5,6
 126.576171875 375 126.576171875 375 130.576171875 375 c 2,7,-1
 399.576171875 375 l 2,8,9
 409.576171875 375 409.576171875 375 412.0703125 365 c 2,10,-1
 418.801757812 338 l 2,11,12
 421.294921875 328 421.294921875 328 411.294921875 328 c 2,13,-1
 142.294921875 328 l 2,14,15
 138.294921875 328 138.294921875 328 139.291992188 324 c 2,16,-1
 207.358398438 51 l 2,17,18
 208.356445312 47 208.356445312 47 212.356445312 47 c 2,19,-1
 591.356445312 47 l 2,20,21
 601.356445312 47 601.356445312 47 603.849609375 37 c 2,22,-1
 610.581054688 10 l 2,23,24
 613.07421875 0 613.07421875 0 603.07421875 0 c 2,25,-1
 413.07421875 0 l 2,26,27
 410.07421875 0 410.07421875 0 408.573242188 -2 c 0,28,29
 365.041992188 -48 365.041992188 -48 376.012695312 -92 c 0,30,31
 382.495117188 -118 382.495117188 -118 400.112304688 -130.5 c 128,-1,32
 417.728515625 -143 417.728515625 -143 440.728515625 -143 c 0,33,34
 451.728515625 -143 451.728515625 -143 462.98046875 -140 c 2,35,-1
 466.731445312 -139 l 2,36,37
 472.731445312 -139 472.731445312 -139 476.725585938 -147 c 2,38,-1
 483.216796875 -161 l 1,39,-1
 483.96484375 -164 l 2,40,41
 485.958984375 -172 485.958984375 -172 479.208007812 -173 c 0,42,43
 460.455078125 -178 460.455078125 -178 442.455078125 -178 c 0,44,45
 405.455078125 -178 405.455078125 -178 375.592773438 -158.5 c 128,-1,46
 345.731445312 -139 345.731445312 -139 335.259765625 -97 c 0,47,48
 323.041992188 -48 323.041992188 -48 363.321289062 -5 c 0,49,50
 365.072265625 -4 365.072265625 -4 363.573242188 -2 c 128,-1,51
 362.07421875 0 362.07421875 0 360.07421875 0 c 2,52,-1
 177.07421875 0 l 2,53,54
 167.07421875 0 167.07421875 0 164.581054688 10 c 2,55,-1
 -4.9619140625 690 l 2,56,57
 -7.455078125 700 -7.455078125 700 2.544921875 700 c 2,58,-1
 428.544921875 700 l 2,59,60
 438.544921875 700 438.544921875 700 441.038085938 690 c 2,61,-1
 447.770507812 663 l 2,62,0
 450.263671875 653 450.263671875 653 440.263671875 653 c 2,1,-1
EndSplineSet
Substitution2: "'c2sc' Capitals to Small Capitals in Latin lookup 19 subtable" eogonek.sc
Substitution2: "'aalt' Access All Alternates in Latin lookup 0 subtable" eogonek.sc
EndChar

StartChar: F
Encoding: 70 70 57
Width: 570
GlyphClass: 1
Flags: W
LayerCount: 2
Fore
SplineSet
461.454101562 653 m 2,1,-1
 83.4541015625 653 l 2,2,3
 79.4541015625 653 79.4541015625 653 80.451171875 649 c 2,4,-1
 147.76953125 379 l 2,5,6
 148.766601562 375 148.766601562 375 152.766601562 375 c 2,7,-1
 420.766601562 375 l 2,8,9
 430.766601562 375 430.766601562 375 433.259765625 365 c 2,10,-1
 439.9921875 338 l 2,11,12
 442.485351562 328 442.485351562 328 432.485351562 328 c 2,13,-1
 164.485351562 328 l 2,14,15
 160.485351562 328 160.485351562 328 161.482421875 324 c 2,16,-1
 239.771484375 10 l 2,17,18
 242.264648438 0 242.264648438 0 232.264648438 0 c 2,19,-1
 199.264648438 0 l 2,20,21
 189.264648438 0 189.264648438 0 186.771484375 10 c 2,22,-1
 17.228515625 690 l 2,23,24
 14.7353515625 700 14.7353515625 700 24.7353515625 700 c 2,25,-1
 449.735351562 700 l 2,26,27
 459.735351562 700 459.735351562 700 462.228515625 690 c 2,28,-1
 468.959960938 663 l 2,29,0
 471.454101562 653 471.454101562 653 461.454101562 653 c 2,1,-1
EndSplineSet
Substitution2: "'c2sc' Capitals to Small Capitals in Latin lookup 19 subtable" f.sc
Substitution2: "'aalt' Access All Alternates in Latin lookup 0 subtable" f.sc
EndChar

StartChar: G
Encoding: 71 71 58
Width: 614
GlyphClass: 2
Flags: W
AnchorPoint: "Anchor-10" 87.2646 0 basechar 0
AnchorPoint: "Anchor-9" 87.2646 0 basechar 0
AnchorPoint: "Anchor-8" 87.2646 0 basechar 0
AnchorPoint: "Anchor-7" 218.735 700 basechar 0
AnchorPoint: "Anchor-6" 395.26 -8 basechar 0
LayerCount: 2
Fore
SplineSet
270.52734375 19 m 128,-1,1
 211.795898438 46 211.795898438 46 171.203125 94.5 c 128,-1,2
 130.611328125 143 130.611328125 143 114.903320312 206 c 2,3,-1
 43.0966796875 494 l 2,4,5
 27.1396484375 558 27.1396484375 558 43.5478515625 606.5 c 128,-1,6
 59.955078125 655 59.955078125 655 105.34765625 681.5 c 128,-1,7
 150.740234375 708 150.740234375 708 218.740234375 708 c 0,8,9
 285.740234375 708 285.740234375 708 343.84765625 681.5 c 128,-1,10
 401.955078125 655 401.955078125 655 442.173828125 608 c 128,-1,11
 482.391601562 561 482.391601562 561 497.600585938 500 c 2,12,-1
 501.091796875 486 l 2,13,14
 503.584960938 476 503.584960938 476 493.584960938 476 c 2,15,-1
 460.584960938 476 l 2,16,17
 450.584960938 476 450.584960938 476 448.091796875 486 c 2,18,-1
 444.850585938 499 l 2,19,20
 426.8984375 571 426.8984375 571 367.678710938 616 c 128,-1,21
 308.458984375 661 308.458984375 661 230.458984375 661 c 0,22,23
 151.458984375 661 151.458984375 661 114.303710938 615.5 c 128,-1,24
 77.1474609375 570 77.1474609375 570 95.59765625 496 c 2,25,-1
 168.40234375 204 l 2,26,27
 186.852539062 130 186.852539062 130 246.696289062 84.5 c 128,-1,28
 306.541015625 39 306.541015625 39 386.541015625 39 c 0,29,30
 464.541015625 39 464.541015625 39 501.1953125 82.5 c 128,-1,31
 537.849609375 126 537.849609375 126 519.897460938 198 c 2,32,-1
 494.715820312 299 l 2,33,34
 493.71875 303 493.71875 303 489.71875 303 c 2,35,-1
 333.71875 303 l 2,36,37
 323.71875 303 323.71875 303 321.225585938 313 c 2,38,-1
 314.493164062 340 l 2,39,40
 312 350 312 350 322 350 c 2,41,-1
 525 350 l 2,42,43
 535 350 535 350 537.493164062 340 c 2,44,-1
 569.90625 210 l 2,45,46
 595.087890625 109 595.087890625 109 547.673828125 50.5 c 128,-1,47
 500.259765625 -8 500.259765625 -8 397.259765625 -8 c 0,48,0
 329.259765625 -8 329.259765625 -8 270.52734375 19 c 128,-1,1
EndSplineSet
Substitution2: "'c2sc' Capitals to Small Capitals in Latin lookup 19 subtable" g.sc
Substitution2: "'aalt' Access All Alternates in Latin lookup 0 subtable" g.sc
EndChar

StartChar: H
Encoding: 72 72 62
Width: 661
GlyphClass: 2
Flags: W
AnchorPoint: "Anchor-10" 87.2646 0 basechar 0
AnchorPoint: "Anchor-9" 87.2646 0 basechar 0
AnchorPoint: "Anchor-8" 291.606 508 basechar 0
AnchorPoint: "Anchor-7" 244.486 701 basechar 0
AnchorPoint: "Anchor-6" 87.2646 0 basechar 0
LayerCount: 2
Fore
SplineSet
429.735351562 700 m 2,1,-1
 462.735351562 700 l 2,2,3
 472.735351562 700 472.735351562 700 475.228515625 690 c 2,4,-1
 644.771484375 10 l 2,5,6
 647.264648438 0 647.264648438 0 637.264648438 0 c 2,7,-1
 604.264648438 0 l 2,8,9
 594.264648438 0 594.264648438 0 591.771484375 10 c 2,10,-1
 513.482421875 324 l 2,11,12
 512.485351562 328 512.485351562 328 508.485351562 328 c 2,13,-1
 164.485351562 328 l 2,14,15
 160.485351562 328 160.485351562 328 161.482421875 324 c 2,16,-1
 239.771484375 10 l 2,17,18
 242.264648438 0 242.264648438 0 232.264648438 0 c 2,19,-1
 199.264648438 0 l 2,20,21
 189.264648438 0 189.264648438 0 186.771484375 10 c 2,22,-1
 17.228515625 690 l 2,23,24
 14.7353515625 700 14.7353515625 700 24.7353515625 700 c 2,25,-1
 57.7353515625 700 l 2,26,27
 67.7353515625 700 67.7353515625 700 70.228515625 690 c 2,28,-1
 147.76953125 379 l 2,29,30
 148.766601562 375 148.766601562 375 152.766601562 375 c 2,31,-1
 496.766601562 375 l 2,32,33
 500.766601562 375 500.766601562 375 499.76953125 379 c 2,34,-1
 422.228515625 690 l 2,35,0
 419.735351562 700 419.735351562 700 429.735351562 700 c 2,1,-1
EndSplineSet
Substitution2: "'c2sc' Capitals to Small Capitals in Latin lookup 19 subtable" h.sc
Substitution2: "'aalt' Access All Alternates in Latin lookup 0 subtable" h.sc
EndChar

StartChar: Hbar
Encoding: 294 294 63
Width: 661
GlyphClass: 2
Flags: W
AnchorPoint: "Anchor-10" 87.2646 0 basechar 0
AnchorPoint: "Anchor-9" 87.2646 0 basechar 0
AnchorPoint: "Anchor-8" 291.606 508 basechar 0
AnchorPoint: "Anchor-7" 244.486 701 basechar 0
AnchorPoint: "Anchor-6" 87.2646 0 basechar 0
LayerCount: 2
Fore
SplineSet
574.876953125 539 m 2,1,-1
 580.11328125 518 l 2,2,3
 582.606445312 508 582.606445312 508 572.606445312 508 c 2,4,-1
 524.606445312 508 l 2,5,6
 520.606445312 508 520.606445312 508 521.603515625 504 c 2,7,-1
 644.771484375 10 l 2,8,9
 647.264648438 0 647.264648438 0 637.264648438 0 c 2,10,-1
 604.264648438 0 l 2,11,12
 594.264648438 0 594.264648438 0 591.771484375 10 c 2,13,-1
 513.482421875 324 l 2,14,15
 512.485351562 328 512.485351562 328 508.485351562 328 c 2,16,-1
 164.485351562 328 l 2,17,18
 160.485351562 328 160.485351562 328 161.482421875 324 c 2,19,-1
 239.771484375 10 l 2,20,21
 242.264648438 0 242.264648438 0 232.264648438 0 c 2,22,-1
 199.264648438 0 l 2,23,24
 189.264648438 0 189.264648438 0 186.771484375 10 c 2,25,-1
 63.603515625 504 l 2,26,27
 62.6064453125 508 62.6064453125 508 58.6064453125 508 c 2,28,-1
 11.6064453125 508 l 2,29,30
 1.6064453125 508 1.6064453125 508 -0.88671875 518 c 2,31,-1
 -6.123046875 539 l 2,32,33
 -8.6162109375 549 -8.6162109375 549 1.3837890625 549 c 2,34,-1
 48.3837890625 549 l 2,35,36
 52.3837890625 549 52.3837890625 549 51.38671875 553 c 2,37,-1
 17.228515625 690 l 2,38,39
 14.7353515625 700 14.7353515625 700 24.7353515625 700 c 2,40,-1
 57.7353515625 700 l 2,41,42
 67.7353515625 700 67.7353515625 700 70.228515625 690 c 2,43,-1
 104.38671875 553 l 2,44,45
 105.383789062 549 105.383789062 549 109.383789062 549 c 2,46,-1
 453.383789062 549 l 2,47,48
 457.383789062 549 457.383789062 549 456.38671875 553 c 2,49,-1
 422.228515625 690 l 2,50,51
 419.735351562 700 419.735351562 700 429.735351562 700 c 2,52,-1
 462.735351562 700 l 2,53,54
 472.735351562 700 472.735351562 700 475.228515625 690 c 2,55,-1
 509.38671875 553 l 2,56,57
 510.383789062 549 510.383789062 549 514.383789062 549 c 2,58,-1
 562.383789062 549 l 2,59,0
 572.383789062 549 572.383789062 549 574.876953125 539 c 2,1,-1
499.76953125 379 m 2,61,-1
 468.603515625 504 l 2,62,63
 467.606445312 508 467.606445312 508 463.606445312 508 c 2,64,-1
 119.606445312 508 l 2,65,66
 115.606445312 508 115.606445312 508 116.603515625 504 c 2,67,-1
 147.76953125 379 l 2,68,69
 148.766601562 375 148.766601562 375 152.766601562 375 c 2,70,-1
 496.766601562 375 l 2,71,60
 500.766601562 375 500.766601562 375 499.76953125 379 c 2,61,-1
EndSplineSet
Substitution2: "'c2sc' Capitals to Small Capitals in Latin lookup 19 subtable" hbar.sc
Substitution2: "'aalt' Access All Alternates in Latin lookup 0 subtable" hbar.sc
EndChar

StartChar: I
Encoding: 73 73 65
Width: 258
GlyphClass: 2
Flags: W
AnchorPoint: "Anchor-10" 87.2646 0 basechar 0
AnchorPoint: "Anchor-9" 87.2646 0 basechar 0
AnchorPoint: "Anchor-8" 87.2646 0 basechar 0
AnchorPoint: "Anchor-7" 41.7354 700 basechar 0
AnchorPoint: "Anchor-6" 216.265 0 basechar 0
LayerCount: 2
Fore
SplineSet
186.771484375 10 m 2,1,-1
 17.228515625 690 l 2,2,3
 14.7353515625 700 14.7353515625 700 24.7353515625 700 c 2,4,-1
 57.7353515625 700 l 2,5,6
 67.7353515625 700 67.7353515625 700 70.228515625 690 c 2,7,-1
 239.771484375 10 l 2,8,9
 242.264648438 0 242.264648438 0 232.264648438 0 c 2,10,-1
 199.264648438 0 l 2,11,0
 189.264648438 0 189.264648438 0 186.771484375 10 c 2,1,-1
EndSplineSet
Substitution2: "'c2sc' Capitals to Small Capitals in Latin lookup 19 subtable" i.sc
Substitution2: "'aalt' Access All Alternates in Latin lookup 0 subtable" i.sc
EndChar

StartChar: J
Encoding: 74 74 76
Width: 576
GlyphClass: 2
Flags: W
AnchorPoint: "Anchor-10" 86.2676 0 basechar 0
AnchorPoint: "Anchor-9" 86.2676 0 basechar 0
AnchorPoint: "Anchor-8" 86.2676 0 basechar 0
AnchorPoint: "Anchor-7" 358.488 701 basechar 0
AnchorPoint: "Anchor-6" 86.2676 0 basechar 0
LayerCount: 2
Fore
SplineSet
217.904296875 17.5 m 128,-1,1
 161.545898438 43 161.545898438 43 123.077148438 89 c 128,-1,2
 84.6083984375 135 84.6083984375 135 69.3994140625 196 c 2,3,-1
 49.7021484375 275 l 2,4,5
 47.208984375 285 47.208984375 285 57.208984375 285 c 2,6,-1
 90.208984375 285 l 2,7,8
 100.208984375 285 100.208984375 285 102.702148438 275 c 2,9,-1
 122.399414062 196 l 2,10,11
 140.1015625 125 140.1015625 125 196.322265625 82 c 128,-1,12
 252.543945312 39 252.543945312 39 328.543945312 39 c 256,13,14
 404.543945312 39 404.543945312 39 439.822265625 82 c 128,-1,15
 475.1015625 125 475.1015625 125 457.399414062 196 c 2,16,-1
 334.231445312 690 l 2,17,18
 331.73828125 700 331.73828125 700 341.73828125 700 c 2,19,-1
 374.73828125 700 l 2,20,21
 384.73828125 700 384.73828125 700 387.231445312 690 c 2,22,-1
 510.399414062 196 l 2,23,24
 525.608398438 135 525.608398438 135 509.577148438 89 c 128,-1,25
 493.545898438 43 493.545898438 43 449.404296875 17.5 c 128,-1,26
 405.26171875 -8 405.26171875 -8 340.26171875 -8 c 0,27,0
 274.26171875 -8 274.26171875 -8 217.904296875 17.5 c 128,-1,1
EndSplineSet
Substitution2: "'c2sc' Capitals to Small Capitals in Latin lookup 19 subtable" j.sc
Substitution2: "'aalt' Access All Alternates in Latin lookup 0 subtable" j.sc
EndChar

StartChar: K
Encoding: 75 75 78
Width: 607
GlyphClass: 2
Flags: W
AnchorPoint: "Anchor-10" 87.2646 0 basechar 0
AnchorPoint: "Anchor-9" 87.2646 0 basechar 0
AnchorPoint: "Anchor-8" 87.2646 0 basechar 0
AnchorPoint: "Anchor-7" 87.2646 0 basechar 0
AnchorPoint: "Anchor-6" 409.265 0 basechar 0
LayerCount: 2
Fore
SplineSet
186.771484375 10 m 2,1,-1
 17.228515625 690 l 2,2,3
 14.7353515625 700 14.7353515625 700 24.7353515625 700 c 2,4,-1
 57.7353515625 700 l 2,5,6
 67.7353515625 700 67.7353515625 700 70.228515625 690 c 2,7,-1
 158.241210938 337 l 2,8,9
 158.740234375 335 158.740234375 335 160.989257812 334 c 128,-1,10
 163.23828125 333 163.23828125 333 163.740234375 335 c 2,11,-1
 411.981445312 695 l 2,12,13
 415.735351562 700 415.735351562 700 422.735351562 700 c 2,14,-1
 459.735351562 700 l 2,15,16
 465.735351562 700 465.735351562 700 468.607421875 696.5 c 128,-1,17
 471.48046875 693 471.48046875 693 468.727539062 688 c 2,18,-1
 287.291992188 413 l 2,19,20
 285.791015625 411 285.791015625 411 288.788085938 407 c 2,21,-1
 660.272460938 12 l 1,22,-1
 663.51953125 7 l 2,23,24
 665.264648438 0 665.264648438 0 656.264648438 0 c 2,25,-1
 617.264648438 0 l 2,26,27
 609.264648438 0 609.264648438 0 603.768554688 6 c 2,28,-1
 262.262695312 369 l 2,29,30
 260.763671875 371 260.763671875 371 258.763671875 371 c 128,-1,31
 256.763671875 371 256.763671875 371 256.013671875 370 c 2,32,-1
 178.69140625 263 l 2,33,34
 177.190429688 261 177.190429688 261 177.938476562 258 c 2,35,-1
 239.771484375 10 l 2,36,37
 242.264648438 0 242.264648438 0 232.264648438 0 c 2,38,-1
 199.264648438 0 l 2,39,0
 189.264648438 0 189.264648438 0 186.771484375 10 c 2,1,-1
EndSplineSet
Substitution2: "'c2sc' Capitals to Small Capitals in Latin lookup 19 subtable" k.sc
Substitution2: "'aalt' Access All Alternates in Latin lookup 0 subtable" k.sc
EndChar

StartChar: L
Encoding: 76 76 79
Width: 567
GlyphClass: 2
Flags: W
AnchorPoint: "Anchor-10" 87.2646 0 basechar 0
AnchorPoint: "Anchor-9" 87.2646 0 basechar 0
AnchorPoint: "Anchor-8" 87.2646 0 basechar 0
AnchorPoint: "Anchor-7" 41.7354 700 basechar 0
AnchorPoint: "Anchor-6" 376.265 0 basechar 0
LayerCount: 2
Fore
SplineSet
186.771484375 10 m 2,1,-1
 17.228515625 690 l 2,2,3
 14.7353515625 700 14.7353515625 700 24.7353515625 700 c 2,4,-1
 57.7353515625 700 l 2,5,6
 67.7353515625 700 67.7353515625 700 70.228515625 690 c 2,7,-1
 229.548828125 51 l 2,8,9
 230.545898438 47 230.545898438 47 234.545898438 47 c 2,10,-1
 593.545898438 47 l 2,11,12
 603.545898438 47 603.545898438 47 606.040039062 37 c 2,13,-1
 612.771484375 10 l 2,14,15
 615.264648438 0 615.264648438 0 605.264648438 0 c 2,16,-1
 199.264648438 0 l 2,17,0
 189.264648438 0 189.264648438 0 186.771484375 10 c 2,1,-1
EndSplineSet
Substitution2: "'c2sc' Capitals to Small Capitals in Latin lookup 19 subtable" l.sc
Substitution2: "'aalt' Access All Alternates in Latin lookup 0 subtable" l.sc
EndChar

StartChar: Lslash
Encoding: 321 321 83
Width: 587
GlyphClass: 2
Flags: W
AnchorPoint: "Anchor-10" 87.2646 0 basechar 0
AnchorPoint: "Anchor-9" 87.2646 0 basechar 0
AnchorPoint: "Anchor-8" 87.2646 0 basechar 0
AnchorPoint: "Anchor-7" 60.7354 700 basechar 0
AnchorPoint: "Anchor-6" 395.265 0 basechar 0
LayerCount: 2
Fore
SplineSet
254.545898438 47 m 2,1,-1
 613.545898438 47 l 2,2,3
 623.545898438 47 623.545898438 47 626.040039062 37 c 2,4,-1
 632.771484375 10 l 2,5,6
 635.264648438 0 635.264648438 0 625.264648438 0 c 2,7,-1
 219.264648438 0 l 2,8,9
 209.264648438 0 209.264648438 0 206.771484375 10 c 2,10,-1
 144.938476562 258 l 2,11,12
 144.439453125 260 144.439453125 260 142.690429688 261 c 128,-1,13
 140.940429688 262 140.940429688 262 139.439453125 260 c 2,14,-1
 50.88671875 182 l 2,15,16
 49.3857421875 180 49.3857421875 180 45.3857421875 180 c 0,17,18
 40.3857421875 180 40.3857421875 180 36.388671875 184 c 2,19,-1
 16.900390625 202 l 2,20,21
 14.40234375 204 14.40234375 204 13.404296875 208 c 0,22,23
 12.158203125 213 12.158203125 213 15.41015625 216 c 2,24,-1
 128.477539062 316 l 2,25,26
 129.978515625 318 129.978515625 318 129.23046875 321 c 2,27,-1
 37.228515625 690 l 2,28,29
 34.7353515625 700 34.7353515625 700 44.7353515625 700 c 2,30,-1
 77.7353515625 700 l 2,31,32
 87.7353515625 700 87.7353515625 700 90.228515625 690 c 2,33,-1
 171.758789062 363 l 2,34,35
 172.2578125 361 172.2578125 361 174.006835938 360 c 128,-1,36
 175.755859375 359 175.755859375 359 177.2578125 361 c 2,37,-1
 368.622070312 532 l 2,38,39
 370.124023438 534 370.124023438 534 374.124023438 534 c 0,40,41
 379.124023438 534 379.124023438 534 383.12109375 530 c 2,42,-1
 402.858398438 511 l 2,43,44
 405.606445312 508 405.606445312 508 406.603515625 504 c 256,45,46
 407.600585938 500 407.600585938 500 404.348632812 497 c 2,47,-1
 188.219726562 305 l 2,48,49
 186.71875 303 186.71875 303 187.466796875 300 c 2,50,-1
 249.548828125 51 l 2,51,0
 250.545898438 47 250.545898438 47 254.545898438 47 c 2,1,-1
EndSplineSet
Substitution2: "'c2sc' Capitals to Small Capitals in Latin lookup 19 subtable" lslash.sc
Substitution2: "'aalt' Access All Alternates in Latin lookup 0 subtable" lslash.sc
EndChar

StartChar: M
Encoding: 77 77 84
Width: 716
GlyphClass: 1
Flags: W
LayerCount: 2
Fore
SplineSet
481.735351562 700 m 2,1,-1
 515.735351562 700 l 2,2,3
 525.735351562 700 525.735351562 700 528.228515625 690 c 2,4,-1
 697.771484375 10 l 2,5,6
 700.264648438 0 700.264648438 0 690.264648438 0 c 2,7,-1
 657.264648438 0 l 2,8,9
 647.264648438 0 647.264648438 0 644.771484375 10 c 2,10,-1
 498.416015625 597 l 2,11,12
 497.66796875 600 497.66796875 600 495.54296875 600.5 c 128,-1,13
 493.418945312 601 493.418945312 601 493.166992188 598 c 2,14,-1
 384.983398438 326 l 2,15,16
 381.729492188 319 381.729492188 319 374.729492188 319 c 2,17,-1
 357.729492188 319 l 2,18,19
 350.729492188 319 350.729492188 319 343.983398438 326 c 2,20,-1
 98.416015625 597 l 2,21,22
 96.66796875 600 96.66796875 600 94.9169921875 599 c 128,-1,23
 93.1669921875 598 93.1669921875 598 93.9150390625 595 c 2,24,-1
 239.771484375 10 l 2,25,26
 242.264648438 0 242.264648438 0 232.264648438 0 c 2,27,-1
 199.264648438 0 l 2,28,29
 189.264648438 0 189.264648438 0 186.771484375 10 c 2,30,-1
 17.228515625 690 l 2,31,32
 14.7353515625 700 14.7353515625 700 24.7353515625 700 c 2,33,-1
 59.7353515625 700 l 2,34,35
 66.7353515625 700 66.7353515625 700 73.48046875 693 c 2,36,-1
 344.279296875 393 l 2,37,38
 345.528320312 392 345.528320312 392 347.528320312 392 c 128,-1,39
 349.528320312 392 349.528320312 392 350.279296875 393 c 2,40,-1
 471.48046875 693 l 2,41,0
 474.735351562 700 474.735351562 700 481.735351562 700 c 2,1,-1
EndSplineSet
Substitution2: "'c2sc' Capitals to Small Capitals in Latin lookup 19 subtable" m.sc
Substitution2: "'aalt' Access All Alternates in Latin lookup 0 subtable" m.sc
EndChar

StartChar: N
Encoding: 78 78 85
Width: 679
GlyphClass: 2
Flags: W
AnchorPoint: "Anchor-10" 87.2646 0 basechar 0
AnchorPoint: "Anchor-9" 87.2646 0 basechar 0
AnchorPoint: "Anchor-8" 87.2646 0 basechar 0
AnchorPoint: "Anchor-7" 251.735 700 basechar 0
AnchorPoint: "Anchor-6" 430.265 0 basechar 0
LayerCount: 2
Fore
SplineSet
446.735351562 700 m 2,1,-1
 479.735351562 700 l 2,2,3
 489.735351562 700 489.735351562 700 492.228515625 690 c 2,4,-1
 661.771484375 10 l 2,5,6
 664.264648438 0 664.264648438 0 654.264648438 0 c 2,7,-1
 621.264648438 0 l 2,8,9
 614.264648438 0 614.264648438 0 607.51953125 7 c 2,10,-1
 99.1640625 594 l 2,11,12
 97.416015625 597 97.416015625 597 95.541015625 596.5 c 128,-1,13
 93.6650390625 596 93.6650390625 596 94.4130859375 593 c 2,14,-1
 239.771484375 10 l 2,15,16
 242.264648438 0 242.264648438 0 232.264648438 0 c 2,17,-1
 199.264648438 0 l 2,18,19
 189.264648438 0 189.264648438 0 186.771484375 10 c 2,20,-1
 17.228515625 690 l 2,21,22
 14.7353515625 700 14.7353515625 700 24.7353515625 700 c 2,23,-1
 58.7353515625 700 l 2,24,25
 65.7353515625 700 65.7353515625 700 72.48046875 693 c 2,26,-1
 579.8359375 106 l 2,27,28
 581.583984375 103 581.583984375 103 583.458984375 103.5 c 128,-1,29
 585.334960938 104 585.334960938 104 584.586914062 107 c 2,30,-1
 439.228515625 690 l 2,31,0
 436.735351562 700 436.735351562 700 446.735351562 700 c 2,1,-1
EndSplineSet
Substitution2: "'c2sc' Capitals to Small Capitals in Latin lookup 19 subtable" n.sc
Substitution2: "'aalt' Access All Alternates in Latin lookup 0 subtable" n.sc
EndChar

StartChar: Eng
Encoding: 330 330 88
Width: 679
GlyphClass: 2
Flags: W
AnchorPoint: "Anchor-10" 68.4404 0 basechar 0
AnchorPoint: "Anchor-9" 68.4404 0 basechar 0
AnchorPoint: "Anchor-8" 68.4404 0 basechar 0
AnchorPoint: "Anchor-7" 232.911 700 basechar 0
AnchorPoint: "Anchor-6" 411.44 0 basechar 0
LayerCount: 2
Fore
SplineSet
427.911132812 700 m 2,1,-1
 460.911132812 700 l 2,2,3
 470.911132812 700 470.911132812 700 473.404296875 690 c 2,4,-1
 645.440429688 0 l 2,5,6
 663.638671875 -77 663.638671875 -77 639.739257812 -113.5 c 128,-1,7
 615.83984375 -150 615.83984375 -150 539.088867188 -151 c 0,8,9
 529.088867188 -151 529.088867188 -151 526.595703125 -141 c 2,10,-1
 519.864257812 -114 l 2,11,12
 517.37109375 -104 517.37109375 -104 527.37109375 -104 c 0,13,14
 576.12109375 -103 576.12109375 -103 590.138671875 -77 c 128,-1,15
 604.15625 -51 604.15625 -51 592.440429688 0 c 0,16,17
 591.443359375 4 591.443359375 4 590.194335938 5 c 2,18,-1
 80.33984375 594 l 2,19,20
 78.591796875 597 78.591796875 597 76.716796875 596.5 c 128,-1,21
 74.8408203125 596 74.8408203125 596 75.5888671875 593 c 2,22,-1
 220.947265625 10 l 2,23,24
 223.440429688 0 223.440429688 0 213.440429688 0 c 2,25,-1
 180.440429688 0 l 2,26,27
 170.440429688 0 170.440429688 0 167.947265625 10 c 2,28,-1
 -1.595703125 690 l 2,29,30
 -4.0888671875 700 -4.0888671875 700 5.9111328125 700 c 2,31,-1
 39.9111328125 700 l 2,32,33
 46.9111328125 700 46.9111328125 700 53.65625 693 c 2,34,-1
 561.01171875 106 l 2,35,36
 562.759765625 103 562.759765625 103 564.634765625 103.5 c 128,-1,37
 566.510742188 104 566.510742188 104 565.762695312 107 c 2,38,-1
 420.404296875 690 l 2,39,0
 417.911132812 700 417.911132812 700 427.911132812 700 c 2,1,-1
EndSplineSet
Substitution2: "'c2sc' Capitals to Small Capitals in Latin lookup 19 subtable" eng.sc
Substitution2: "'aalt' Access All Alternates in Latin lookup 0 subtable" eng.sc
EndChar

StartChar: O
Encoding: 79 79 90
Width: 622
GlyphClass: 2
Flags: W
AnchorPoint: "Anchor-10" 87.2646 0 basechar 0
AnchorPoint: "Anchor-9" 491.735 700 basechar 0
AnchorPoint: "Anchor-8" 87.2646 0 basechar 0
AnchorPoint: "Anchor-7" 222.735 700 basechar 0
AnchorPoint: "Anchor-6" 398.265 0 basechar 0
LayerCount: 2
Fore
SplineSet
270.653320312 20.5 m 128,-1,1
 211.047851562 49 211.047851562 49 169.70703125 100.5 c 128,-1,2
 128.3671875 152 128.3671875 152 111.662109375 219 c 2,3,-1
 46.337890625 481 l 2,4,5
 29.6328125 548 29.6328125 548 45.29296875 599.5 c 128,-1,6
 60.9521484375 651 60.9521484375 651 106.346679688 679.5 c 128,-1,7
 151.740234375 708 151.740234375 708 220.740234375 708 c 256,8,9
 289.740234375 708 289.740234375 708 349.846679688 679.5 c 128,-1,10
 409.952148438 651 409.952148438 651 451.79296875 599.5 c 128,-1,11
 493.6328125 548 493.6328125 548 510.337890625 481 c 2,12,-1
 575.662109375 219 l 2,13,14
 592.3671875 152 592.3671875 152 576.20703125 100.5 c 128,-1,15
 560.047851562 49 560.047851562 49 514.153320312 20.5 c 128,-1,16
 468.259765625 -8 468.259765625 -8 399.259765625 -8 c 256,17,0
 330.259765625 -8 330.259765625 -8 270.653320312 20.5 c 128,-1,1
506.073242188 87 m 128,-1,19
 543.356445312 136 543.356445312 136 523.16015625 217 c 2,20,-1
 457.088867188 482 l 2,21,22
 437.142578125 562 437.142578125 562 375.30078125 611.5 c 128,-1,23
 313.458984375 661 313.458984375 661 232.458984375 661 c 0,24,25
 152.458984375 661 152.458984375 661 115.80078125 611.5 c 128,-1,26
 79.142578125 562 79.142578125 562 99.0888671875 482 c 2,27,-1
 165.16015625 217 l 2,28,29
 185.356445312 136 185.356445312 136 246.573242188 87 c 128,-1,30
 307.790039062 38 307.790039062 38 387.790039062 38 c 0,31,18
 468.790039062 38 468.790039062 38 506.073242188 87 c 128,-1,19
EndSplineSet
Substitution2: "Single Substitution lookup 24 subtable" ordmasculine
Substitution2: "'c2sc' Capitals to Small Capitals in Latin lookup 19 subtable" o.sc
AlternateSubs2: "'aalt' Access All Alternates in Latin lookup 1 subtable" ordmasculine o.sc
EndChar

StartChar: Oslash
Encoding: 216 216 110
Width: 622
GlyphClass: 2
Flags: W
AnchorPoint: "Anchor-10" 86.9971 0 basechar 0
AnchorPoint: "Anchor-9" 491.467 700 basechar 0
AnchorPoint: "Anchor-8" 86.9971 0 basechar 0
AnchorPoint: "Anchor-7" 222.467 700 basechar 0
AnchorPoint: "Anchor-6" 397.997 0 basechar 0
LayerCount: 2
Fore
SplineSet
473.456054688 684 m 2,1,-1
 444.408203125 612 l 2,2,3
 444.15625 609 444.15625 609 445.904296875 606 c 0,4,5
 491.620117188 555 491.620117188 555 510.0703125 481 c 2,6,-1
 575.393554688 219 l 2,7,8
 592.098632812 152 592.098632812 152 575.939453125 100.5 c 128,-1,9
 559.779296875 49 559.779296875 49 513.885742188 20.5 c 128,-1,10
 467.991210938 -8 467.991210938 -8 398.991210938 -8 c 0,11,12
 300.991210938 -8 300.991210938 -8 225.029296875 48 c 0,13,14
 221.28125 51 221.28125 51 220.278320312 47 c 2,15,-1
 195.487304688 -14 l 2,16,17
 192.731445312 -23 192.731445312 -23 183.235351562 -17 c 2,18,-1
 152.997070312 0 l 2,19,20
 144.500976562 6 144.500976562 6 146.755859375 13 c 2,21,-1
 177.055664062 88 l 2,22,23
 178.307617188 91 178.307617188 91 175.559570312 94 c 0,24,25
 129.84375 145 129.84375 145 111.393554688 219 c 2,26,-1
 46.0703125 481 l 2,27,28
 29.365234375 548 29.365234375 548 45.5244140625 599.5 c 128,-1,29
 61.6845703125 651 61.6845703125 651 107.078125 679.5 c 128,-1,30
 152.47265625 708 152.47265625 708 220.47265625 708 c 0,31,32
 318.47265625 708 318.47265625 708 396.185546875 653 c 0,33,34
 399.93359375 650 399.93359375 650 400.936523438 654 c 2,35,-1
 424.475585938 712 l 2,36,37
 425.477539062 716 425.477539062 716 429.228515625 717 c 128,-1,38
 432.979492188 718 432.979492188 718 437.727539062 715 c 2,39,-1
 466.965820312 698 l 2,40,0
 476.461914062 692 476.461914062 692 473.456054688 684 c 2,1,-1
194.345703125 147 m 0,42,43
 196.591796875 142 196.591796875 142 199.594726562 146 c 2,44,-1
 380.65234375 603 l 2,45,46
 381.904296875 606 381.904296875 606 379.15625 609 c 0,47,48
 349.922851562 634 349.922851562 634 312.056640625 647.5 c 128,-1,49
 274.19140625 661 274.19140625 661 232.19140625 661 c 0,50,51
 152.19140625 661 152.19140625 661 115.532226562 611.5 c 128,-1,52
 78.8740234375 562 78.8740234375 562 98.8203125 482 c 2,53,-1
 164.892578125 217 l 2,54,41
 174.865234375 177 174.865234375 177 194.345703125 147 c 0,42,43
427.118164062 553 m 0,56,57
 424.872070312 558 424.872070312 558 421.869140625 554 c 2,58,-1
 239.811523438 97 l 2,59,60
 239.559570312 94 239.559570312 94 241.307617188 91 c 0,61,62
 302.522460938 38 302.522460938 38 387.522460938 38 c 0,63,64
 468.522460938 38 468.522460938 38 505.805664062 87 c 128,-1,65
 543.087890625 136 543.087890625 136 522.892578125 217 c 2,66,-1
 456.8203125 482 l 2,67,55
 446.84765625 522 446.84765625 522 427.118164062 553 c 0,56,57
EndSplineSet
Substitution2: "'c2sc' Capitals to Small Capitals in Latin lookup 19 subtable" oslash.sc
Substitution2: "'aalt' Access All Alternates in Latin lookup 0 subtable" oslash.sc
EndChar

StartChar: OE
Encoding: 338 338 112
Width: 917
GlyphClass: 2
Flags: W
AnchorPoint: "Anchor-10" 87.2646 0 basechar 0
AnchorPoint: "Anchor-9" 87.2646 0 basechar 0
AnchorPoint: "Anchor-8" 87.2646 0 basechar 0
AnchorPoint: "Anchor-7" 385.735 700 basechar 0
AnchorPoint: "Anchor-6" 87.2646 0 basechar 0
LayerCount: 2
Fore
SplineSet
768.454101562 653 m 2,1,-1
 438.454101562 653 l 2,2,3
 434.454101562 653 434.454101562 653 435.451171875 649 c 2,4,-1
 502.76953125 379 l 2,5,6
 503.766601562 375 503.766601562 375 507.766601562 375 c 2,7,-1
 728.766601562 375 l 2,8,9
 738.766601562 375 738.766601562 375 741.259765625 365 c 2,10,-1
 747.9921875 338 l 2,11,12
 750.485351562 328 750.485351562 328 740.485351562 328 c 2,13,-1
 519.485351562 328 l 2,14,15
 515.485351562 328 515.485351562 328 516.482421875 324 c 2,16,-1
 584.548828125 51 l 2,17,18
 585.545898438 47 585.545898438 47 589.545898438 47 c 2,19,-1
 919.545898438 47 l 2,20,21
 929.545898438 47 929.545898438 47 932.040039062 37 c 2,22,-1
 938.771484375 10 l 2,23,24
 941.264648438 0 941.264648438 0 931.264648438 0 c 2,25,-1
 554.264648438 0 l 2,26,27
 544.264648438 0 544.264648438 0 541.771484375 10 c 2,28,-1
 527.559570312 67 l 2,29,30
 527.061523438 69 527.061523438 69 525.311523438 70 c 128,-1,31
 523.5625 71 523.5625 71 522.061523438 69 c 0,32,33
 503.286132812 32 503.286132812 32 464.772460938 12 c 128,-1,34
 426.259765625 -8 426.259765625 -8 373.259765625 -8 c 0,35,36
 313.259765625 -8 313.259765625 -8 260.02734375 19 c 128,-1,37
 206.795898438 46 206.795898438 46 168.828125 94 c 128,-1,38
 130.860351562 142 130.860351562 142 115.900390625 202 c 2,39,-1
 42.3486328125 497 l 2,40,41
 27.388671875 557 27.388671875 557 41.296875 605.5 c 128,-1,42
 55.2041015625 654 55.2041015625 654 94.97265625 681 c 128,-1,43
 134.740234375 708 134.740234375 708 194.740234375 708 c 0,44,45
 247.740234375 708 247.740234375 708 296.227539062 688 c 128,-1,46
 344.713867188 668 344.713867188 668 381.938476562 631 c 0,47,48
 384.4375 629 384.4375 629 385.688476562 630 c 128,-1,49
 386.938476562 631 386.938476562 631 386.440429688 633 c 2,50,-1
 372.228515625 690 l 2,51,52
 369.735351562 700 369.735351562 700 379.735351562 700 c 2,53,-1
 756.735351562 700 l 2,54,55
 766.735351562 700 766.735351562 700 769.228515625 690 c 2,56,-1
 775.959960938 663 l 2,57,0
 778.454101562 653 778.454101562 653 768.454101562 653 c 2,1,-1
451.5546875 59 m 128,-1,59
 483.318359375 80 483.318359375 80 494.59375 117 c 128,-1,60
 505.868164062 154 505.868164062 154 494.399414062 200 c 2,61,-1
 420.099609375 498 l 2,62,63
 402.397460938 569 402.397460938 569 345.927734375 615 c 128,-1,64
 289.458984375 661 289.458984375 661 216.458984375 661 c 256,65,66
 143.458984375 661 143.458984375 661 110.427734375 615 c 128,-1,67
 77.3974609375 569 77.3974609375 569 95.099609375 498 c 2,68,-1
 169.399414062 200 l 2,69,70
 186.852539062 130 186.852539062 130 243.321289062 84 c 128,-1,71
 299.790039062 38 299.790039062 38 371.790039062 38 c 0,72,58
 419.790039062 38 419.790039062 38 451.5546875 59 c 128,-1,59
EndSplineSet
Substitution2: "'c2sc' Capitals to Small Capitals in Latin lookup 19 subtable" oe.sc
Substitution2: "'aalt' Access All Alternates in Latin lookup 0 subtable" oe.sc
EndChar

StartChar: P
Encoding: 80 80 113
Width: 590
GlyphClass: 1
Flags: W
LayerCount: 2
Fore
SplineSet
424.575195312 649.5 m 128,-1,1
 489.665039062 597 489.665039062 597 511.107421875 511 c 0,2,3
 532.30078125 426 532.30078125 426 492.765625 374 c 128,-1,4
 453.23046875 322 453.23046875 322 367.23046875 322 c 2,5,-1
 159.23046875 322 l 2,6,7
 155.23046875 322 155.23046875 322 156.227539062 318 c 2,8,-1
 233.020507812 10 l 2,9,10
 235.513671875 0 235.513671875 0 225.513671875 0 c 2,11,-1
 192.513671875 0 l 2,12,13
 182.513671875 0 182.513671875 0 180.020507812 10 c 2,14,-1
 9.9794921875 692 l 2,15,16
 7.486328125 702 7.486328125 702 17.486328125 702 c 2,17,-1
 274.486328125 702 l 2,18,0
 359.486328125 702 359.486328125 702 424.575195312 649.5 c 128,-1,1
445.662109375 406.5 m 128,-1,20
 474.313476562 446 474.313476562 446 458.356445312 510 c 0,21,22
 442.150390625 575 442.150390625 575 393.801757812 614.5 c 128,-1,23
 345.454101562 654 345.454101562 654 282.454101562 654 c 2,24,-1
 76.4541015625 654 l 2,25,26
 72.4541015625 654 72.4541015625 654 73.451171875 650 c 2,27,-1
 143.013671875 371 l 2,28,29
 144.010742188 367 144.010742188 367 148.010742188 367 c 2,30,-1
 354.010742188 367 l 2,31,19
 417.010742188 367 417.010742188 367 445.662109375 406.5 c 128,-1,20
EndSplineSet
Substitution2: "'c2sc' Capitals to Small Capitals in Latin lookup 19 subtable" p.sc
Substitution2: "'aalt' Access All Alternates in Latin lookup 0 subtable" p.sc
EndChar

StartChar: Thorn
Encoding: 222 222 114
Width: 564
GlyphClass: 1
Flags: W
LayerCount: 2
Fore
SplineSet
438.966796875 486.5 m 128,-1,1
 504.056640625 434 504.056640625 434 525.249023438 349 c 0,2,3
 539.211914062 293 539.211914062 293 525.30859375 250.5 c 128,-1,4
 511.404296875 208 511.404296875 208 474.263671875 184.5 c 128,-1,5
 437.123046875 161 437.123046875 161 381.123046875 161 c 2,6,-1
 199.123046875 161 l 2,7,8
 195.123046875 161 195.123046875 161 196.120117188 157 c 2,9,-1
 232.771484375 10 l 2,10,11
 235.264648438 0 235.264648438 0 225.264648438 0 c 2,12,-1
 192.264648438 0 l 2,13,14
 182.264648438 0 182.264648438 0 179.771484375 10 c 2,15,-1
 10.228515625 690 l 2,16,17
 7.7353515625 700 7.7353515625 700 17.7353515625 700 c 2,18,-1
 50.7353515625 700 l 2,19,20
 60.7353515625 700 60.7353515625 700 63.228515625 690 c 2,21,-1
 99.8798828125 543 l 2,22,23
 100.876953125 539 100.876953125 539 104.876953125 539 c 2,24,-1
 288.876953125 539 l 2,25,0
 373.876953125 539 373.876953125 539 438.966796875 486.5 c 128,-1,1
459.1796875 245 m 128,-1,27
 488.456054688 284 488.456054688 284 472.499023438 348 c 0,28,29
 456.04296875 414 456.04296875 414 407.319335938 453 c 128,-1,30
 358.595703125 492 358.595703125 492 295.595703125 492 c 2,31,-1
 116.595703125 492 l 2,32,33
 112.595703125 492 112.595703125 492 113.592773438 488 c 2,34,-1
 182.90625 210 l 2,35,36
 183.903320312 206 183.903320312 206 187.903320312 206 c 2,37,-1
 366.903320312 206 l 2,38,26
 429.903320312 206 429.903320312 206 459.1796875 245 c 128,-1,27
EndSplineSet
Substitution2: "'c2sc' Capitals to Small Capitals in Latin lookup 19 subtable" thorn.sc
Substitution2: "'aalt' Access All Alternates in Latin lookup 0 subtable" thorn.sc
EndChar

StartChar: Q
Encoding: 81 81 115
Width: 572
GlyphClass: 1
Flags: W
LayerCount: 2
Fore
SplineSet
306.134765625 680.5 m 128,-1,1
 363.491210938 653 363.491210938 653 403.958007812 603 c 128,-1,2
 444.423828125 553 444.423828125 553 460.629882812 488 c 2,3,-1
 530.193359375 209 l 2,4,5
 552.6328125 119 552.6328125 119 514.59375 61 c 128,-1,6
 476.5546875 3 476.5546875 3 391.047851562 -7 c 0,7,8
 387.047851562 -7 387.047851562 -7 388.044921875 -11 c 2,9,-1
 412.728515625 -110 l 2,10,11
 415.221679688 -120 415.221679688 -120 405.221679688 -120 c 2,12,-1
 372.221679688 -120 l 2,13,14
 362.221679688 -120 362.221679688 -120 359.728515625 -110 c 2,15,-1
 335.044921875 -11 l 2,16,17
 334.047851562 -7 334.047851562 -7 330.047851562 -7 c 0,18,19
 239.5546875 3 239.5546875 3 173.09375 61 c 128,-1,20
 106.6328125 119 106.6328125 119 84.193359375 209 c 2,21,-1
 14.6298828125 488 l 2,22,23
 -1.576171875 553 -1.576171875 553 13.9580078125 603 c 128,-1,24
 29.4912109375 653 29.4912109375 653 73.134765625 680.5 c 128,-1,25
 116.778320312 708 116.778320312 708 182.778320312 708 c 256,26,0
 248.778320312 708 248.778320312 708 306.134765625 680.5 c 128,-1,1
406.8828125 491 m 2,27,28
 387.684570312 568 387.684570312 568 329.590820312 614.5 c 128,-1,29
 271.497070312 661 271.497070312 661 194.497070312 661 c 0,30,31
 118.497070312 661 118.497070312 661 83.0908203125 614.5 c 128,-1,32
 47.6845703125 568 47.6845703125 568 66.8828125 491 c 2,33,-1
 137.193359375 209 l 2,34,35
 156.141601562 133 156.141601562 133 214.860351562 86 c 128,-1,36
 273.579101562 39 273.579101562 39 349.579101562 39 c 0,37,38
 426.579101562 39 426.579101562 39 461.360351562 86 c 128,-1,39
 496.141601562 133 496.141601562 133 477.193359375 209 c 2,40,-1
 406.8828125 491 l 2,27,28
EndSplineSet
Substitution2: "'c2sc' Capitals to Small Capitals in Latin lookup 19 subtable" q.sc
Substitution2: "'aalt' Access All Alternates in Latin lookup 0 subtable" q.sc
EndChar

StartChar: R
Encoding: 82 82 116
Width: 612
GlyphClass: 2
Flags: W
AnchorPoint: "Anchor-10" 87.2646 0 basechar 0
AnchorPoint: "Anchor-9" 87.2646 0 basechar 0
AnchorPoint: "Anchor-8" 87.2646 0 basechar 0
AnchorPoint: "Anchor-7" 214.735 700 basechar 0
AnchorPoint: "Anchor-6" 403.265 0 basechar 0
LayerCount: 2
Fore
SplineSet
590.51953125 7 m 2,1,-1
 358.233398438 325 l 2,2,3
 356.485351562 328 356.485351562 328 353.485351562 328 c 2,4,-1
 164.485351562 328 l 2,5,6
 160.485351562 328 160.485351562 328 161.482421875 324 c 2,7,-1
 239.771484375 10 l 2,8,9
 242.264648438 0 242.264648438 0 232.264648438 0 c 2,10,-1
 199.264648438 0 l 2,11,12
 189.264648438 0 189.264648438 0 186.771484375 10 c 2,13,-1
 17.228515625 690 l 2,14,15
 14.7353515625 700 14.7353515625 700 24.7353515625 700 c 2,16,-1
 276.735351562 700 l 2,17,18
 360.735351562 700 360.735351562 700 425.200195312 648 c 128,-1,19
 489.665039062 596 489.665039062 596 510.608398438 512 c 0,20,21
 528.311523438 441 528.311523438 441 501.403320312 392.5 c 128,-1,22
 474.49609375 344 474.49609375 344 411.48828125 332 c 0,23,24
 406.986328125 330 406.986328125 330 409.734375 327 c 2,25,-1
 641.272460938 12 l 2,26,27
 642.771484375 10 642.771484375 10 643.51953125 7 c 0,28,29
 645.264648438 0 645.264648438 0 637.264648438 0 c 2,30,-1
 604.264648438 0 l 2,31,0
 595.264648438 0 595.264648438 0 590.51953125 7 c 2,1,-1
80.451171875 649 m 2,33,-1
 148.517578125 376 l 2,34,35
 149.514648438 372 149.514648438 372 153.514648438 372 c 2,36,-1
 353.514648438 372 l 2,37,38
 415.514648438 372 415.514648438 372 444.291015625 411 c 128,-1,39
 473.067382812 450 473.067382812 450 457.608398438 512 c 0,40,41
 441.901367188 575 441.901367188 575 393.677734375 614 c 128,-1,42
 345.454101562 653 345.454101562 653 283.454101562 653 c 2,43,-1
 83.4541015625 653 l 2,44,32
 79.4541015625 653 79.4541015625 653 80.451171875 649 c 2,33,-1
EndSplineSet
Substitution2: "'c2sc' Capitals to Small Capitals in Latin lookup 19 subtable" r.sc
Substitution2: "'aalt' Access All Alternates in Latin lookup 0 subtable" r.sc
EndChar

StartChar: S
Encoding: 83 83 119
Width: 582
GlyphClass: 2
Flags: W
AnchorPoint: "Anchor-10" 87.2646 0 basechar 0
AnchorPoint: "Anchor-9" 87.2646 0 basechar 0
AnchorPoint: "Anchor-8" 87.2646 0 basechar 0
AnchorPoint: "Anchor-7" 197.735 700 basechar 0
AnchorPoint: "Anchor-6" 378.26 -8 basechar 0
LayerCount: 2
Fore
SplineSet
197.91796875 41.5 m 128,-1,1
 121.576171875 91 121.576171875 91 100.881835938 174 c 2,2,-1
 92.654296875 207 l 2,3,4
 90.16015625 217 90.16015625 217 100.16015625 217 c 2,5,-1
 131.16015625 217 l 2,6,7
 141.16015625 217 141.16015625 217 143.654296875 207 c 2,8,-1
 151.133789062 177 l 2,9,10
 166.591796875 115 166.591796875 115 227.06640625 77 c 128,-1,11
 287.541015625 39 287.541015625 39 376.541015625 39 c 0,12,13
 459.541015625 39 459.541015625 39 494.939453125 73.5 c 128,-1,14
 530.336914062 108 530.336914062 108 515.127929688 169 c 0,15,16
 505.903320312 206 505.903320312 206 479.546875 233.5 c 128,-1,17
 453.190429688 261 453.190429688 261 406.706054688 285 c 128,-1,18
 360.22265625 309 360.22265625 309 278.493164062 340 c 0,19,20
 192.265625 373 192.265625 373 147.280273438 395 c 128,-1,21
 102.294921875 417 102.294921875 417 69.9423828125 450.5 c 128,-1,22
 37.58984375 484 37.58984375 484 24.3759765625 537 c 0,23,24
 3.9306640625 619 3.9306640625 619 49.3359375 663.5 c 128,-1,25
 94.740234375 708 94.740234375 708 194.740234375 708 c 0,26,27
 303.740234375 708 303.740234375 708 378.20703125 658 c 128,-1,28
 452.673828125 608 452.673828125 608 473.6171875 524 c 2,29,-1
 479.3515625 501 l 2,30,31
 481.844726562 491 481.844726562 491 471.844726562 491 c 2,32,-1
 438.844726562 491 l 2,33,34
 428.844726562 491 428.844726562 491 426.3515625 501 c 2,35,-1
 421.365234375 521 l 2,36,37
 405.657226562 584 405.657226562 584 348.05859375 622.5 c 128,-1,38
 290.458984375 661 290.458984375 661 203.458984375 661 c 0,39,40
 127.458984375 661 127.458984375 661 94.3125 629.5 c 128,-1,41
 61.1669921875 598 61.1669921875 598 75.876953125 539 c 0,42,43
 85.8505859375 499 85.8505859375 499 111.083007812 474 c 128,-1,44
 136.31640625 449 136.31640625 449 176.428710938 430.5 c 128,-1,45
 216.541992188 412 216.541992188 412 298.021484375 382 c 256,46,47
 379.500976562 352 379.500976562 352 431.857421875 324.5 c 128,-1,48
 484.21484375 297 484.21484375 297 519.439453125 260 c 128,-1,49
 554.665039062 223 554.665039062 223 567.629882812 171 c 0,50,51
 587.825195312 90 587.825195312 90 540.041992188 41 c 128,-1,52
 492.259765625 -8 492.259765625 -8 384.259765625 -8 c 0,53,0
 274.259765625 -8 274.259765625 -8 197.91796875 41.5 c 128,-1,1
EndSplineSet
Substitution2: "'c2sc' Capitals to Small Capitals in Latin lookup 19 subtable" s.sc
Substitution2: "'aalt' Access All Alternates in Latin lookup 0 subtable" s.sc
EndChar

StartChar: Scedilla
Encoding: 350 350 122
Width: 582
GlyphClass: 2
Flags: W
AnchorPoint: "Anchor-10" 64.9502 0 basechar 0
AnchorPoint: "Anchor-9" 64.9502 0 basechar 0
AnchorPoint: "Anchor-8" 64.9502 0 basechar 0
AnchorPoint: "Anchor-7" 64.9502 0 basechar 0
AnchorPoint: "Anchor-6" 355.944 -8 basechar 0
LayerCount: 2
Fore
SplineSet
522.356445312 46.5 m 128,-1,1
 480.448242188 -2 480.448242188 -2 382.944335938 -8 c 0,2,3
 380.944335938 -8 380.944335938 -8 380.818359375 -9.5 c 128,-1,4
 380.692382812 -11 380.692382812 -11 383.19140625 -13 c 0,5,6
 447.66015625 -59 447.66015625 -59 459.37890625 -106 c 0,7,8
 462.12109375 -117 462.12109375 -117 461.614257812 -127 c 0,9,10
 462.34375 -158 462.34375 -158 442.458984375 -172.5 c 128,-1,11
 422.57421875 -187 422.57421875 -187 392.57421875 -187 c 0,12,13
 374.57421875 -187 374.57421875 -187 353.328125 -182 c 0,14,15
 344.078125 -181 344.078125 -181 343.3359375 -170 c 2,16,-1
 342.844726562 -156 l 2,17,18
 341.3515625 -146 341.3515625 -146 353.099609375 -149 c 0,19,20
 361.598632812 -151 361.598632812 -151 375.598632812 -151 c 0,21,22
 399.598632812 -151 399.598632812 -151 411.106445312 -139 c 128,-1,23
 422.614257812 -127 422.614257812 -127 415.8828125 -100 c 0,24,25
 404.4140625 -54 404.4140625 -54 336.194335938 -9 c 0,26,27
 334.6953125 -7 334.6953125 -7 330.6953125 -7 c 0,28,29
 231.950195312 0 231.950195312 0 164.857421875 48.5 c 128,-1,30
 97.7646484375 97 97.7646484375 97 78.56640625 174 c 2,31,-1
 70.3388671875 207 l 2,32,33
 67.845703125 217 67.845703125 217 77.845703125 217 c 2,34,-1
 108.845703125 217 l 2,35,36
 118.845703125 217 118.845703125 217 121.338867188 207 c 2,37,-1
 128.819335938 177 l 2,38,39
 144.27734375 115 144.27734375 115 204.751953125 77 c 128,-1,40
 265.2265625 39 265.2265625 39 354.2265625 39 c 0,41,42
 437.2265625 39 437.2265625 39 472.624023438 73.5 c 128,-1,43
 508.022460938 108 508.022460938 108 492.813476562 169 c 0,44,45
 483.587890625 206 483.587890625 206 457.231445312 233.5 c 128,-1,46
 430.875 261 430.875 261 384.391601562 285 c 128,-1,47
 337.907226562 309 337.907226562 309 256.178710938 340 c 0,48,49
 169.950195312 373 169.950195312 373 124.965820312 395 c 128,-1,50
 79.98046875 417 79.98046875 417 47.6279296875 450.5 c 128,-1,51
 15.275390625 484 15.275390625 484 2.060546875 537 c 0,52,53
 -18.3837890625 619 -18.3837890625 619 27.0205078125 663.5 c 128,-1,54
 72.42578125 708 72.42578125 708 172.42578125 708 c 0,55,56
 281.42578125 708 281.42578125 708 355.892578125 658 c 128,-1,57
 430.358398438 608 430.358398438 608 451.301757812 524 c 2,58,-1
 457.036132812 501 l 2,59,60
 459.530273438 491 459.530273438 491 449.530273438 491 c 2,61,-1
 416.530273438 491 l 2,62,63
 406.530273438 491 406.530273438 491 404.036132812 501 c 2,64,-1
 399.049804688 521 l 2,65,66
 383.342773438 584 383.342773438 584 325.743164062 622.5 c 128,-1,67
 268.14453125 661 268.14453125 661 181.14453125 661 c 0,68,69
 105.14453125 661 105.14453125 661 71.998046875 629.5 c 128,-1,70
 38.8515625 598 38.8515625 598 53.5625 539 c 0,71,72
 63.53515625 499 63.53515625 499 88.7685546875 474 c 128,-1,73
 114.001953125 449 114.001953125 449 154.114257812 430.5 c 128,-1,74
 194.2265625 412 194.2265625 412 275.70703125 382 c 256,75,76
 357.186523438 352 357.186523438 352 409.54296875 324.5 c 128,-1,77
 461.899414062 297 461.899414062 297 497.125 260 c 128,-1,78
 532.349609375 223 532.349609375 223 545.314453125 171 c 0,79,0
 564.263671875 95 564.263671875 95 522.356445312 46.5 c 128,-1,1
EndSplineSet
Substitution2: "'c2sc' Capitals to Small Capitals in Latin lookup 19 subtable" scedilla.sc
Substitution2: "'aalt' Access All Alternates in Latin lookup 0 subtable" scedilla.sc
EndChar

StartChar: uni018F
Encoding: 399 399 124
Width: 568
GlyphClass: 2
Flags: W
AnchorPoint: "Anchor-10" 67.3184 0 basechar 0
AnchorPoint: "Anchor-9" 67.3184 0 basechar 0
AnchorPoint: "Anchor-8" 67.3184 0 basechar 0
AnchorPoint: "Anchor-7" 210.432 541 basechar 0
AnchorPoint: "Anchor-6" 67.3184 0 basechar 0
LayerCount: 2
Fore
SplineSet
468.178710938 349.5 m 128,-1,1
 477.783203125 319 477.783203125 319 490.499023438 268 c 0,2,3
 512.190429688 181 512.190429688 181 512.911132812 138 c 0,4,5
 512.3671875 72 512.3671875 72 469.46484375 31.5 c 128,-1,6
 426.5625 -9 426.5625 -9 351.5625 -9 c 0,7,8
 269.5625 -9 269.5625 -9 203.467773438 35.5 c 128,-1,9
 137.372070312 80 137.372070312 80 105.170898438 153 c 0,10,11
 93.6884765625 179 93.6884765625 179 81.720703125 227 c 2,12,-1
 69.50390625 276 l 2,13,14
 67.0107421875 286 67.0107421875 286 77.0107421875 286 c 2,15,-1
 429.010742188 286 l 2,16,17
 433.010742188 286 433.010742188 286 432.013671875 290 c 0,18,19
 414.560546875 360 414.560546875 360 400.829101562 387 c 0,20,21
 375.614257812 440 375.614257812 440 327.260742188 471.5 c 128,-1,22
 278.90625 503 278.90625 503 216.90625 503 c 0,23,24
 165.15625 502 165.15625 502 133.264648438 477.5 c 128,-1,25
 101.373046875 453 101.373046875 453 92.595703125 412 c 0,26,27
 90.83984375 403 90.83984375 403 80.841796875 407 c 2,28,-1
 51.6005859375 420 l 2,29,30
 41.3544921875 425 41.3544921875 425 43.359375 433 c 0,31,32
 53.1455078125 486 53.1455078125 486 95.791015625 517.5 c 128,-1,33
 138.4375 549 138.4375 549 206.4375 549 c 0,34,35
 283.4375 549 283.4375 549 346.036132812 510.5 c 128,-1,36
 408.635742188 472 408.635742188 472 444.340820312 405 c 0,37,0
 458.57421875 380 458.57421875 380 468.178710938 349.5 c 128,-1,1
430.365234375 70 m 128,-1,39
 461.88671875 102 461.88671875 102 459.921875 154 c 0,40,41
 459.184570312 173 459.184570312 173 445.477539062 236 c 0,42,43
 444.479492188 240 444.479492188 240 440.479492188 240 c 2,44,-1
 135.479492188 240 l 2,45,46
 131.479492188 240 131.479492188 240 132.477539062 236 c 0,47,48
 146.190429688 181 146.190429688 181 158.672851562 155 c 0,49,50
 182.637695312 103 182.637695312 103 231.241210938 70.5 c 128,-1,51
 279.84375 38 279.84375 38 338.84375 38 c 0,52,38
 398.84375 38 398.84375 38 430.365234375 70 c 128,-1,39
EndSplineSet
EndChar

StartChar: T
Encoding: 84 84 125
Width: 565
GlyphClass: 2
Flags: W
AnchorPoint: "Anchor-10" 87.2646 0 basechar 0
AnchorPoint: "Anchor-9" 87.2646 0 basechar 0
AnchorPoint: "Anchor-8" 87.2646 0 basechar 0
AnchorPoint: "Anchor-7" 190.735 700 basechar 0
AnchorPoint: "Anchor-6" 369.265 0 basechar 0
LayerCount: 2
Fore
SplineSet
433.228515625 690 m 2,1,-1
 439.959960938 663 l 2,2,3
 442.454101562 653 442.454101562 653 432.454101562 653 c 2,4,-1
 232.454101562 653 l 2,5,6
 228.454101562 653 228.454101562 653 229.451171875 649 c 2,7,-1
 388.771484375 10 l 2,8,9
 391.264648438 0 391.264648438 0 381.264648438 0 c 2,10,-1
 348.264648438 0 l 2,11,12
 338.264648438 0 338.264648438 0 335.771484375 10 c 2,13,-1
 176.451171875 649 l 2,14,15
 175.454101562 653 175.454101562 653 171.454101562 653 c 2,16,-1
 -18.5458984375 653 l 2,17,18
 -28.5458984375 653 -28.5458984375 653 -31.0400390625 663 c 2,19,-1
 -37.771484375 690 l 2,20,21
 -40.2646484375 700 -40.2646484375 700 -30.2646484375 700 c 2,22,-1
 420.735351562 700 l 2,23,0
 430.735351562 700 430.735351562 700 433.228515625 690 c 2,1,-1
EndSplineSet
Substitution2: "'c2sc' Capitals to Small Capitals in Latin lookup 19 subtable" t.sc
Substitution2: "'aalt' Access All Alternates in Latin lookup 0 subtable" t.sc
EndChar

StartChar: Tbar
Encoding: 358 358 126
Width: 565
GlyphClass: 2
Flags: W
AnchorPoint: "Anchor-10" 87.2646 0 basechar 0
AnchorPoint: "Anchor-9" 87.2646 0 basechar 0
AnchorPoint: "Anchor-8" 87.2646 0 basechar 0
AnchorPoint: "Anchor-7" 190.735 700 basechar 0
AnchorPoint: "Anchor-6" 369.265 0 basechar 0
LayerCount: 2
Fore
SplineSet
432.454101562 653 m 2,1,-1
 232.454101562 653 l 2,2,3
 228.454101562 653 228.454101562 653 229.451171875 649 c 2,4,-1
 285.30078125 425 l 2,5,6
 286.297851562 421 286.297851562 421 290.297851562 421 c 2,7,-1
 404.297851562 421 l 2,8,9
 414.297851562 421 414.297851562 421 416.791015625 411 c 2,10,-1
 421.279296875 393 l 2,11,12
 423.772460938 383 423.772460938 383 413.772460938 383 c 2,13,-1
 299.772460938 383 l 2,14,15
 295.772460938 383 295.772460938 383 296.76953125 379 c 2,16,-1
 388.771484375 10 l 2,17,18
 391.264648438 0 391.264648438 0 381.264648438 0 c 2,19,-1
 348.264648438 0 l 2,20,21
 338.264648438 0 338.264648438 0 335.771484375 10 c 2,22,-1
 243.76953125 379 l 2,23,24
 242.772460938 383 242.772460938 383 238.772460938 383 c 2,25,-1
 125.772460938 383 l 2,26,27
 115.772460938 383 115.772460938 383 113.279296875 393 c 2,28,-1
 108.791015625 411 l 2,29,30
 106.297851562 421 106.297851562 421 116.297851562 421 c 2,31,-1
 229.297851562 421 l 2,32,33
 233.297851562 421 233.297851562 421 232.30078125 425 c 2,34,-1
 176.451171875 649 l 2,35,36
 175.454101562 653 175.454101562 653 171.454101562 653 c 2,37,-1
 -18.5458984375 653 l 2,38,39
 -28.5458984375 653 -28.5458984375 653 -31.0400390625 663 c 2,40,-1
 -37.771484375 690 l 2,41,42
 -40.2646484375 700 -40.2646484375 700 -30.2646484375 700 c 2,43,-1
 420.735351562 700 l 2,44,45
 430.735351562 700 430.735351562 700 433.228515625 690 c 2,46,-1
 439.959960938 663 l 2,47,0
 442.454101562 653 442.454101562 653 432.454101562 653 c 2,1,-1
EndSplineSet
Substitution2: "'c2sc' Capitals to Small Capitals in Latin lookup 19 subtable" tbar.sc
Substitution2: "'aalt' Access All Alternates in Latin lookup 0 subtable" tbar.sc
EndChar

StartChar: U
Encoding: 85 85 128
Width: 653
GlyphClass: 2
Flags: W
AnchorPoint: "Anchor-10" 86.2676 0 basechar 0
AnchorPoint: "Anchor-9" 544.738 700 basechar 0
AnchorPoint: "Anchor-8" 86.2676 0 basechar 0
AnchorPoint: "Anchor-7" 237.738 700 basechar 0
AnchorPoint: "Anchor-6" 414.268 0 basechar 0
LayerCount: 2
Fore
SplineSet
285.905273438 19.5 m 128,-1,1
 226.548828125 47 226.548828125 47 185.083007812 97 c 128,-1,2
 143.616210938 147 143.616210938 147 127.41015625 212 c 2,3,-1
 8.2314453125 690 l 2,4,5
 5.73828125 700 5.73828125 700 15.73828125 700 c 2,6,-1
 48.73828125 700 l 2,7,8
 58.73828125 700 58.73828125 700 61.2314453125 690 c 2,9,-1
 180.908203125 210 l 2,10,11
 200.106445312 133 200.106445312 133 261.325195312 86 c 128,-1,12
 322.543945312 39 322.543945312 39 402.543945312 39 c 0,13,14
 483.543945312 39 483.543945312 39 520.825195312 86 c 128,-1,15
 558.106445312 133 558.106445312 133 538.908203125 210 c 2,16,-1
 419.231445312 690 l 2,17,18
 416.73828125 700 416.73828125 700 426.73828125 700 c 2,19,-1
 459.73828125 700 l 2,20,21
 469.73828125 700 469.73828125 700 472.231445312 690 c 2,22,-1
 591.41015625 212 l 2,23,24
 607.616210938 147 607.616210938 147 591.083007812 97 c 128,-1,25
 574.548828125 47 574.548828125 47 528.905273438 19.5 c 128,-1,26
 483.26171875 -8 483.26171875 -8 414.26171875 -8 c 256,27,0
 345.26171875 -8 345.26171875 -8 285.905273438 19.5 c 128,-1,1
EndSplineSet
Substitution2: "'c2sc' Capitals to Small Capitals in Latin lookup 19 subtable" u.sc
Substitution2: "'aalt' Access All Alternates in Latin lookup 0 subtable" u.sc
EndChar

StartChar: Uogonek
Encoding: 370 370 144
Width: 653
GlyphClass: 2
Flags: W
AnchorPoint: "Anchor-10" 65.0742 0 basechar 0
AnchorPoint: "Anchor-9" 523.545 700 basechar 0
AnchorPoint: "Anchor-8" 65.0742 0 basechar 0
AnchorPoint: "Anchor-7" 65.0742 0 basechar 0
AnchorPoint: "Anchor-6" 393.074 0 basechar 0
LayerCount: 2
Fore
SplineSet
405.544921875 700 m 2,1,-1
 438.544921875 700 l 2,2,3
 448.544921875 700 448.544921875 700 451.038085938 690 c 2,4,-1
 570.216796875 212 l 2,5,6
 593.903320312 117 593.903320312 117 550.36328125 57 c 128,-1,7
 506.822265625 -3 506.822265625 -3 410.069335938 -8 c 0,8,9
 407.069335938 -8 407.069335938 -8 405.568359375 -10 c 0,10,11
 370.040039062 -52 370.040039062 -52 379.763671875 -91 c 0,12,13
 386.24609375 -117 386.24609375 -117 403.987304688 -130 c 128,-1,14
 421.728515625 -143 421.728515625 -143 444.728515625 -143 c 0,15,16
 454.728515625 -143 454.728515625 -143 465.98046875 -140 c 2,17,-1
 469.731445312 -139 l 2,18,19
 475.731445312 -139 475.731445312 -139 479.725585938 -147 c 2,20,-1
 486.216796875 -161 l 1,21,-1
 486.96484375 -164 l 2,22,23
 488.958984375 -172 488.958984375 -172 482.208007812 -173 c 0,24,25
 465.455078125 -178 465.455078125 -178 446.455078125 -178 c 0,26,27
 409.455078125 -178 409.455078125 -178 379.592773438 -158.5 c 128,-1,28
 349.731445312 -139 349.731445312 -139 339.259765625 -97 c 0,29,30
 328.040039062 -52 328.040039062 -52 361.817382812 -11 c 0,31,32
 366.069335938 -8 366.069335938 -8 359.5703125 -6 c 0,33,34
 266.077148438 4 266.077148438 4 197.3671875 63 c 128,-1,35
 128.65625 122 128.65625 122 106.216796875 212 c 2,36,-1
 -12.9619140625 690 l 2,37,38
 -15.455078125 700 -15.455078125 700 -5.455078125 700 c 2,39,-1
 27.544921875 700 l 2,40,41
 37.544921875 700 37.544921875 700 40.0380859375 690 c 2,42,-1
 159.715820312 210 l 2,43,44
 178.9140625 133 178.9140625 133 240.1328125 86 c 128,-1,45
 301.350585938 39 301.350585938 39 381.350585938 39 c 0,46,47
 462.350585938 39 462.350585938 39 499.6328125 86 c 128,-1,48
 536.9140625 133 536.9140625 133 517.715820312 210 c 2,49,-1
 398.038085938 690 l 2,50,0
 395.544921875 700 395.544921875 700 405.544921875 700 c 2,1,-1
EndSplineSet
Substitution2: "'c2sc' Capitals to Small Capitals in Latin lookup 19 subtable" uogonek.sc
Substitution2: "'aalt' Access All Alternates in Latin lookup 0 subtable" uogonek.sc
EndChar

StartChar: V
Encoding: 86 86 147
Width: 580
GlyphClass: 1
Flags: W
LayerCount: 2
Fore
SplineSet
344.270507812 8 m 2,1,-1
 -46.5224609375 689 l 1,2,-1
 -48.51953125 693 l 2,3,4
 -50.2646484375 700 -50.2646484375 700 -41.2646484375 700 c 2,5,-1
 -6.2646484375 700 l 2,6,7
 2.7353515625 700 2.7353515625 700 7.7294921875 692 c 2,8,-1
 353.8203125 82 l 2,9,10
 355.318359375 80 355.318359375 80 357.318359375 80 c 128,-1,11
 359.318359375 80 359.318359375 80 359.8203125 82 c 2,12,-1
 403.729492188 692 l 2,13,14
 404.735351562 700 404.735351562 700 413.735351562 700 c 2,15,-1
 446.735351562 700 l 2,16,17
 457.735351562 700 457.735351562 700 457.477539062 689 c 2,18,-1
 405.270507812 8 l 2,19,20
 404.264648438 0 404.264648438 0 395.264648438 0 c 2,21,-1
 358.264648438 0 l 2,22,0
 349.264648438 0 349.264648438 0 344.270507812 8 c 2,1,-1
EndSplineSet
Substitution2: "'c2sc' Capitals to Small Capitals in Latin lookup 19 subtable" v.sc
Substitution2: "'aalt' Access All Alternates in Latin lookup 0 subtable" v.sc
EndChar

StartChar: W
Encoding: 87 87 148
Width: 879
GlyphClass: 2
Flags: W
AnchorPoint: "Anchor-10" 87.2646 0 basechar 0
AnchorPoint: "Anchor-9" 87.2646 0 basechar 0
AnchorPoint: "Anchor-8" 87.2646 0 basechar 0
AnchorPoint: "Anchor-7" 350.735 700 basechar 0
AnchorPoint: "Anchor-6" 87.2646 0 basechar 0
LayerCount: 2
Fore
SplineSet
309.270507812 8 m 2,1,-1
 -55.5224609375 689 l 1,2,-1
 -57.2705078125 692 l 2,3,4
 -59.2646484375 700 -59.2646484375 700 -49.2646484375 700 c 2,5,-1
 -15.2646484375 700 l 2,6,7
 -7.2646484375 700 -7.2646484375 700 -2.2705078125 692 c 2,8,-1
 309.087890625 109 l 2,9,10
 310.586914062 107 310.586914062 107 312.086914062 107 c 128,-1,11
 313.586914062 107 313.586914062 107 314.087890625 109 c 2,12,-1
 322.979492188 691 l 2,13,14
 322.735351562 700 322.735351562 700 331.735351562 700 c 2,15,-1
 366.735351562 700 l 2,16,17
 375.735351562 700 375.735351562 700 379.979492188 691 c 2,18,-1
 684.087890625 109 l 2,19,20
 685.586914062 107 685.586914062 107 687.086914062 107 c 128,-1,21
 688.586914062 107 688.586914062 107 689.087890625 109 c 2,22,-1
 711.729492188 692 l 2,23,24
 712.735351562 700 712.735351562 700 720.735351562 700 c 2,25,-1
 752.735351562 700 l 2,26,27
 757.735351562 700 757.735351562 700 760.983398438 697 c 128,-1,28
 764.231445312 694 764.231445312 694 764.477539062 689 c 2,29,-1
 739.270507812 8 l 2,30,31
 738.264648438 0 738.264648438 0 730.264648438 0 c 2,32,-1
 695.264648438 0 l 2,33,34
 686.264648438 0 686.264648438 0 682.020507812 9 c 2,35,-1
 377.168945312 602 l 2,36,37
 375.670898438 604 375.670898438 604 374.170898438 604 c 128,-1,38
 372.670898438 604 372.670898438 604 372.168945312 602 c 2,39,-1
 364.020507812 9 l 2,40,41
 364.264648438 0 364.264648438 0 355.264648438 0 c 2,42,-1
 322.264648438 0 l 2,43,0
 314.264648438 0 314.264648438 0 309.270507812 8 c 2,1,-1
EndSplineSet
Substitution2: "'c2sc' Capitals to Small Capitals in Latin lookup 19 subtable" w.sc
Substitution2: "'aalt' Access All Alternates in Latin lookup 0 subtable" w.sc
EndChar

StartChar: X
Encoding: 88 88 153
Width: 578
GlyphClass: 1
Flags: W
LayerCount: 2
Fore
SplineSet
126.892578125 3.5 m 128,-1,1
 124.51953125 7 124.51953125 7 126.272460938 12 c 2,2,-1
 256.748046875 347 l 2,3,4
 258 350 258 350 255.251953125 353 c 2,5,-1
 -42.2724609375 688 l 2,6,7
 -45.2705078125 692 -45.2705078125 692 -45.7685546875 694 c 0,8,9
 -47.2646484375 700 -47.2646484375 700 -39.2646484375 700 c 2,10,-1
 -2.2646484375 700 l 2,11,12
 4.7353515625 700 4.7353515625 700 11.48046875 693 c 2,13,-1
 274.780273438 395 l 2,14,15
 276.029296875 394 276.029296875 394 278.029296875 394 c 128,-1,16
 280.029296875 394 280.029296875 394 280.780273438 395 c 2,17,-1
 395.48046875 693 l 2,18,19
 398.735351562 700 398.735351562 700 405.735351562 700 c 2,20,-1
 441.735351562 700 l 2,21,22
 447.735351562 700 447.735351562 700 450.107421875 696.5 c 128,-1,23
 452.48046875 693 452.48046875 693 450.727539062 688 c 2,24,-1
 321.500976562 352 l 2,25,26
 321.249023438 349 321.249023438 349 322.997070312 346 c 2,27,-1
 619.272460938 12 l 2,28,29
 622.270507812 8 622.270507812 8 622.768554688 6 c 0,30,31
 624.264648438 0 624.264648438 0 616.264648438 0 c 2,32,-1
 580.264648438 0 l 2,33,34
 573.264648438 0 573.264648438 0 566.51953125 7 c 2,35,-1
 303.46875 304 l 2,36,37
 301.970703125 306 301.970703125 306 299.970703125 306 c 128,-1,38
 297.970703125 306 297.970703125 306 297.46875 304 c 2,39,-1
 182.51953125 7 l 2,40,41
 179.264648438 0 179.264648438 0 172.264648438 0 c 2,42,-1
 135.264648438 0 l 2,43,0
 129.264648438 0 129.264648438 0 126.892578125 3.5 c 128,-1,1
EndSplineSet
Substitution2: "'c2sc' Capitals to Small Capitals in Latin lookup 19 subtable" x.sc
Substitution2: "'aalt' Access All Alternates in Latin lookup 0 subtable" x.sc
EndChar

StartChar: Y
Encoding: 89 89 154
Width: 554
GlyphClass: 2
Flags: W
AnchorPoint: "Anchor-10" 87.2646 0 basechar 0
AnchorPoint: "Anchor-9" 87.2646 0 basechar 0
AnchorPoint: "Anchor-8" 87.2646 0 basechar 0
AnchorPoint: "Anchor-7" 189.984 699 basechar 0
AnchorPoint: "Anchor-6" 364.265 0 basechar 0
LayerCount: 2
Fore
SplineSet
335.771484375 10 m 2,1,-1
 258.978515625 318 l 2,2,3
 257.981445312 322 257.981445312 322 256.731445312 323 c 2,4,-1
 -43.2724609375 688 l 2,5,6
 -46.2705078125 692 -46.2705078125 692 -46.7685546875 694 c 0,7,8
 -48.2646484375 700 -48.2646484375 700 -39.2646484375 700 c 2,9,-1
 -5.2646484375 700 l 2,10,11
 1.7353515625 700 1.7353515625 700 8.48046875 693 c 2,12,-1
 266.76953125 379 l 2,13,14
 268.018554688 378 268.018554688 378 270.018554688 378 c 128,-1,15
 272.018554688 378 272.018554688 378 272.76953125 379 c 2,16,-1
 374.48046875 693 l 2,17,18
 377.735351562 700 377.735351562 700 384.735351562 700 c 2,19,-1
 418.735351562 700 l 2,20,21
 424.735351562 700 424.735351562 700 427.607421875 696.5 c 128,-1,22
 430.48046875 693 430.48046875 693 428.727539062 688 c 2,23,-1
 310.731445312 323 l 2,24,25
 309.981445312 322 309.981445312 322 310.978515625 318 c 2,26,-1
 387.771484375 10 l 2,27,28
 390.264648438 0 390.264648438 0 380.264648438 0 c 2,29,-1
 348.264648438 0 l 2,30,0
 338.264648438 0 338.264648438 0 335.771484375 10 c 2,1,-1
EndSplineSet
Substitution2: "'c2sc' Capitals to Small Capitals in Latin lookup 19 subtable" y.sc
Substitution2: "'aalt' Access All Alternates in Latin lookup 0 subtable" y.sc
EndChar

StartChar: Z
Encoding: 90 90 162
Width: 547
GlyphClass: 2
Flags: W
AnchorPoint: "Anchor-10" 87.2646 0 basechar 0
AnchorPoint: "Anchor-9" 87.2646 0 basechar 0
AnchorPoint: "Anchor-8" 87.2646 0 basechar 0
AnchorPoint: "Anchor-7" 177.735 700 basechar 0
AnchorPoint: "Anchor-6" 87.2646 0 basechar 0
LayerCount: 2
Fore
SplineSet
132.771484375 10 m 2,1,-1
 124.79296875 42 l 2,2,3
 123.545898438 47 123.545898438 47 125.551757812 55 c 2,4,-1
 354.700195312 648 l 2,5,6
 355.451171875 649 355.451171875 649 353.952148438 651 c 128,-1,7
 352.454101562 653 352.454101562 653 350.454101562 653 c 2,8,-1
 -17.5458984375 653 l 2,9,10
 -27.5458984375 653 -27.5458984375 653 -30.0400390625 663 c 2,11,-1
 -36.771484375 690 l 2,12,13
 -39.2646484375 700 -39.2646484375 700 -29.2646484375 700 c 2,14,-1
 392.735351562 700 l 2,15,16
 402.735351562 700 402.735351562 700 405.228515625 690 c 2,17,-1
 413.20703125 658 l 2,18,19
 414.454101562 653 414.454101562 653 412.448242188 645 c 2,20,-1
 184.299804688 52 l 2,21,22
 183.548828125 51 183.548828125 51 185.047851562 49 c 128,-1,23
 186.545898438 47 186.545898438 47 188.545898438 47 c 2,24,-1
 555.545898438 47 l 2,25,26
 565.545898438 47 565.545898438 47 568.040039062 37 c 2,27,-1
 574.771484375 10 l 2,28,29
 577.264648438 0 577.264648438 0 567.264648438 0 c 2,30,-1
 145.264648438 0 l 2,31,0
 135.264648438 0 135.264648438 0 132.771484375 10 c 2,1,-1
EndSplineSet
Substitution2: "'c2sc' Capitals to Small Capitals in Latin lookup 19 subtable" z.sc
Substitution2: "'aalt' Access All Alternates in Latin lookup 0 subtable" z.sc
EndChar

StartChar: a
Encoding: 97 97 173
Width: 506
GlyphClass: 2
Flags: W
AnchorPoint: "Anchor-10" 62.8311 0 basechar 0
AnchorPoint: "Anchor-9" 62.8311 0 basechar 0
AnchorPoint: "Anchor-8" 62.8311 0 basechar 0
AnchorPoint: "Anchor-7" 188.421 507 basechar 0
AnchorPoint: "Anchor-6" 315.831 0 basechar 0
LayerCount: 2
Fore
SplineSet
334.51953125 466.5 m 128,-1,1
 391.86328125 421 391.86328125 421 411.061523438 344 c 2,2,-1
 494.336914062 10 l 2,3,4
 496.831054688 0 496.831054688 0 486.831054688 0 c 2,5,-1
 453.831054688 0 l 2,6,7
 443.831054688 0 443.831054688 0 441.336914062 10 c 2,8,-1
 429.619140625 57 l 2,9,10
 429.120117188 59 429.120117188 59 427.37109375 60 c 128,-1,11
 425.622070312 61 425.622070312 61 424.120117188 59 c 0,12,13
 406.34765625 26 406.34765625 26 369.086914062 9 c 128,-1,14
 331.825195312 -8 331.825195312 -8 280.825195312 -8 c 0,15,16
 211.825195312 -8 211.825195312 -8 155.098632812 27 c 128,-1,17
 98.3720703125 62 98.3720703125 62 80.4208984375 134 c 0,18,19
 61.970703125 208 61.970703125 208 106.249023438 251 c 128,-1,20
 150.528320312 294 150.528320312 294 246.528320312 294 c 2,21,-1
 366.528320312 294 l 2,22,23
 370.528320312 294 370.528320312 294 369.53125 298 c 2,24,-1
 358.311523438 343 l 2,25,26
 344.348632812 399 344.348632812 399 304.62109375 432 c 128,-1,27
 264.893554688 465 264.893554688 465 199.893554688 465 c 0,28,29
 148.893554688 465 148.893554688 465 121.12890625 444 c 128,-1,30
 93.365234375 423 93.365234375 423 94.091796875 388 c 0,31,32
 93.5849609375 378 93.5849609375 378 84.3349609375 379 c 2,33,-1
 48.0888671875 384 l 2,34,35
 36.58984375 386 36.58984375 386 37.09375 392 c 0,36,37
 32.6298828125 446 32.6298828125 446 73.90234375 479 c 128,-1,38
 115.174804688 512 115.174804688 512 189.174804688 512 c 0,39,0
 277.174804688 512 277.174804688 512 334.51953125 466.5 c 128,-1,1
380.126953125 69 m 128,-1,41
 418.897460938 100 418.897460938 100 405.184570312 155 c 2,42,-1
 382.49609375 246 l 2,43,44
 381.499023438 250 381.499023438 250 377.499023438 250 c 2,45,-1
 262.499023438 250 l 2,46,47
 191.499023438 250 191.499023438 250 155.478515625 220 c 128,-1,48
 119.458007812 190 119.458007812 190 132.672851562 137 c 0,49,50
 144.889648438 88 144.889648438 88 185.123046875 63 c 128,-1,51
 225.356445312 38 225.356445312 38 278.356445312 38 c 0,52,40
 341.356445312 38 341.356445312 38 380.126953125 69 c 128,-1,41
EndSplineSet
Substitution2: "Single Substitution lookup 24 subtable" ordfeminine
Substitution2: "'smcp' Lowercase to Small Capitals in Latin lookup 20 subtable" a.sc
AlternateSubs2: "'aalt' Access All Alternates in Latin lookup 1 subtable" ordfeminine a.sc
EndChar

StartChar: aogonek
Encoding: 261 261 193
Width: 506
GlyphClass: 2
Flags: W
AnchorPoint: "Anchor-10" 40.7646 0 basechar 0
AnchorPoint: "Anchor-9" 40.7646 0 basechar 0
AnchorPoint: "Anchor-8" 40.7646 0 basechar 0
AnchorPoint: "Anchor-7" 40.7646 0 basechar 0
AnchorPoint: "Anchor-6" 293.765 0 basechar 0
LayerCount: 2
Fore
SplineSet
525.166992188 -146 m 2,0,1
 530.166992188 -146 530.166992188 -146 534.162109375 -154 c 2,2,-1
 540.65234375 -168 l 1,3,-1
 541.400390625 -171 l 2,4,5
 543.39453125 -179 543.39453125 -179 536.64453125 -180 c 0,6,7
 517.890625 -185 517.890625 -185 499.890625 -185 c 0,8,9
 463.890625 -185 463.890625 -185 434.029296875 -165.5 c 128,-1,10
 404.166992188 -146 404.166992188 -146 393.6953125 -104 c 0,11,12
 380.231445312 -50 380.231445312 -50 429.512695312 -3 c 2,13,-1
 432.764648438 0 l 1,14,-1
 431.764648438 0 l 2,15,16
 421.764648438 0 421.764648438 0 419.271484375 10 c 2,17,-1
 407.553710938 57 l 2,18,19
 407.0546875 59 407.0546875 59 405.305664062 60 c 128,-1,20
 403.555664062 61 403.555664062 61 402.0546875 59 c 0,21,22
 384.282226562 26 384.282226562 26 347.021484375 9 c 128,-1,23
 309.759765625 -8 309.759765625 -8 258.759765625 -8 c 0,24,25
 189.759765625 -8 189.759765625 -8 133.033203125 27 c 128,-1,26
 76.306640625 62 76.306640625 62 58.35546875 134 c 0,27,28
 39.9052734375 208 39.9052734375 208 84.18359375 251 c 128,-1,29
 128.462890625 294 128.462890625 294 224.462890625 294 c 2,30,-1
 344.462890625 294 l 2,31,32
 348.462890625 294 348.462890625 294 347.465820312 298 c 2,33,-1
 336.24609375 343 l 2,34,35
 322.283203125 399 322.283203125 399 282.555664062 432 c 128,-1,36
 242.827148438 465 242.827148438 465 177.827148438 465 c 0,37,38
 126.827148438 465 126.827148438 465 99.0634765625 444 c 128,-1,39
 71.2998046875 423 71.2998046875 423 72.025390625 388 c 0,40,41
 71.51953125 378 71.51953125 378 62.26953125 379 c 2,42,-1
 26.0234375 384 l 2,43,44
 15.5244140625 386 15.5244140625 386 14.2802734375 395 c 0,45,46
 11.06640625 448 11.06640625 448 52.587890625 480 c 128,-1,47
 94.109375 512 94.109375 512 167.109375 512 c 0,48,49
 255.109375 512 255.109375 512 312.454101562 466.5 c 128,-1,50
 369.797851562 421 369.797851562 421 388.99609375 344 c 2,51,-1
 472.770507812 8 l 2,52,53
 474.515625 1 474.515625 1 470.01171875 -5 c 0,54,55
 421.73046875 -52 421.73046875 -52 433.19921875 -98 c 0,56,57
 439.681640625 -124 439.681640625 -124 457.298828125 -136.5 c 128,-1,58
 474.915039062 -149 474.915039062 -149 498.915039062 -149 c 0,59,60
 513.915039062 -149 513.915039062 -149 520.416015625 -147 c 2,61,-1
 525.166992188 -146 l 2,0,1
358.061523438 69 m 128,-1,63
 396.83203125 100 396.83203125 100 383.119140625 155 c 2,64,-1
 360.430664062 246 l 2,65,66
 359.43359375 250 359.43359375 250 355.43359375 250 c 2,67,-1
 240.43359375 250 l 2,68,69
 169.43359375 250 169.43359375 250 133.413085938 220 c 128,-1,70
 97.392578125 190 97.392578125 190 110.607421875 137 c 0,71,72
 122.82421875 88 122.82421875 88 163.057617188 63 c 128,-1,73
 203.291015625 38 203.291015625 38 256.291015625 38 c 0,74,62
 319.291015625 38 319.291015625 38 358.061523438 69 c 128,-1,63
EndSplineSet
Substitution2: "'smcp' Lowercase to Small Capitals in Latin lookup 20 subtable" aogonek.sc
Substitution2: "'aalt' Access All Alternates in Latin lookup 0 subtable" aogonek.sc
EndChar

StartChar: ae
Encoding: 230 230 196
Width: 831
GlyphClass: 1
Flags: W
LayerCount: 2
Fore
SplineSet
156.47265625 25.5 m 128,-1,1
 99.1201171875 59 99.1201171875 59 81.1689453125 131 c 0,2,3
 62.9677734375 204 62.9677734375 204 107.370117188 244.5 c 128,-1,4
 151.772460938 285 151.772460938 285 248.772460938 285 c 2,5,-1
 368.772460938 285 l 2,6,7
 372.772460938 285 372.772460938 285 371.774414062 289 c 2,8,-1
 359.059570312 340 l 2,9,10
 344.84765625 397 344.84765625 397 304.370117188 431 c 128,-1,11
 263.893554688 465 263.893554688 465 197.893554688 465 c 0,12,13
 147.893554688 465 147.893554688 465 119.12890625 444 c 128,-1,14
 90.365234375 423 90.365234375 423 91.091796875 388 c 0,15,16
 91.833984375 377 91.833984375 377 82.3349609375 379 c 2,17,-1
 48.0888671875 384 l 2,18,19
 37.58984375 386 37.58984375 386 36.345703125 395 c 0,20,21
 34.1318359375 448 34.1318359375 448 74.6533203125 480 c 128,-1,22
 115.174804688 512 115.174804688 512 187.174804688 512 c 0,23,24
 248.174804688 512 248.174804688 512 294.908203125 487 c 128,-1,25
 341.641601562 462 341.641601562 462 368.11328125 420 c 0,26,27
 371.359375 415 371.359375 415 373.11328125 420 c 0,28,29
 382.139648438 460 382.139648438 460 418.157226562 486 c 128,-1,30
 454.174804688 512 454.174804688 512 508.174804688 512 c 0,31,32
 576.174804688 512 576.174804688 512 635.524414062 474.5 c 128,-1,33
 694.874023438 437 694.874023438 437 725.083007812 376 c 0,34,35
 734.8203125 357 734.8203125 357 742.1796875 333.5 c 128,-1,36
 749.5390625 310 749.5390625 310 764.499023438 250 c 0,37,38
 767.241210938 239 767.241210938 239 757.241210938 239 c 2,39,-1
 441.241210938 239 l 2,40,41
 437.241210938 239 437.241210938 239 438.23828125 235 c 2,42,-1
 458.935546875 156 l 2,43,44
 474.6484375 101 474.6484375 101 523.00390625 71.5 c 128,-1,45
 571.358398438 42 571.358398438 42 631.358398438 42 c 0,46,47
 680.358398438 42 680.358398438 42 708.498046875 63.5 c 128,-1,48
 736.637695312 85 736.637695312 85 743.163085938 123 c 0,49,50
 744.918945312 132 744.918945312 132 754.666992188 129 c 2,51,-1
 781.16015625 119 l 2,52,53
 791.158203125 115 791.158203125 115 790.40234375 106 c 0,54,55
 784.1171875 55 784.1171875 55 743.971679688 23.5 c 128,-1,56
 703.825195312 -8 703.825195312 -8 638.825195312 -8 c 0,57,58
 580.825195312 -8 580.825195312 -8 530.965820312 15.5 c 128,-1,59
 481.106445312 39 481.106445312 39 452.634765625 81 c 0,60,61
 451.13671875 83 451.13671875 83 450.01171875 83.5 c 128,-1,62
 448.88671875 84 448.88671875 84 448.385742188 82 c 0,63,64
 440.106445312 39 440.106445312 39 394.965820312 15.5 c 128,-1,65
 349.825195312 -8 349.825195312 -8 286.825195312 -8 c 0,66,0
 213.825195312 -8 213.825195312 -8 156.47265625 25.5 c 128,-1,1
429.772460938 285 m 2,68,-1
 699.772460938 285 l 2,69,70
 703.772460938 285 703.772460938 285 702.774414062 289 c 0,71,72
 687.311523438 343 687.311523438 343 680.571289062 358 c 0,73,74
 659.852539062 405 659.852539062 405 615.873046875 435 c 128,-1,75
 571.893554688 465 571.893554688 465 518.893554688 465 c 256,76,77
 465.893554688 465 465.893554688 465 437.248046875 435.5 c 128,-1,78
 408.603515625 406 408.603515625 406 411.571289062 358 c 0,79,80
 412.557617188 338 412.557617188 338 424.774414062 289 c 0,81,67
 425.772460938 285 425.772460938 285 429.772460938 285 c 2,68,-1
380.875 66 m 128,-1,83
 419.895507812 96 419.895507812 96 405.68359375 153 c 2,84,-1
 385.23828125 235 l 2,85,86
 384.241210938 239 384.241210938 239 380.241210938 239 c 2,87,-1
 265.241210938 239 l 2,88,89
 193.241210938 239 193.241210938 239 156.848632812 212.5 c 128,-1,90
 120.456054688 186 120.456054688 186 133.170898438 135 c 0,91,92
 145.138671875 87 145.138671875 87 185.497070312 61.5 c 128,-1,93
 225.854492188 36 225.854492188 36 279.854492188 36 c 0,94,82
 341.854492188 36 341.854492188 36 380.875 66 c 128,-1,83
EndSplineSet
Substitution2: "'smcp' Lowercase to Small Capitals in Latin lookup 20 subtable" ae.sc
Substitution2: "'aalt' Access All Alternates in Latin lookup 0 subtable" ae.sc
EndChar

StartChar: b
Encoding: 98 98 197
Width: 541
GlyphClass: 1
Flags: W
LayerCount: 2
Fore
SplineSet
473.236328125 325 m 128,-1,1
 482.466796875 296 482.466796875 296 493.686523438 251 c 0,2,3
 514.629882812 167 514.629882812 167 514.1015625 125 c 0,4,5
 512.310546875 64 512.310546875 64 474.286132812 28 c 128,-1,6
 436.26171875 -8 436.26171875 -8 368.26171875 -8 c 0,7,8
 324.26171875 -8 324.26171875 -8 284.774414062 10 c 128,-1,9
 245.286132812 28 245.286132812 28 216.05859375 61 c 0,10,11
 213.559570312 63 213.559570312 63 212.184570312 62.5 c 128,-1,12
 210.809570312 62 210.809570312 62 211.557617188 59 c 2,13,-1
 223.774414062 10 l 2,14,15
 226.267578125 0 226.267578125 0 216.267578125 0 c 2,16,-1
 183.267578125 0 l 2,17,18
 173.267578125 0 173.267578125 0 170.774414062 10 c 2,19,-1
 1.2314453125 690 l 2,20,21
 -1.26171875 700 -1.26171875 700 8.73828125 700 c 2,22,-1
 41.73828125 700 l 2,23,24
 51.73828125 700 51.73828125 700 54.2314453125 690 c 2,25,-1
 115.565429688 444 l 2,26,27
 116.313476562 441 116.313476562 441 118.438476562 440.5 c 128,-1,28
 120.563476562 440 120.563476562 440 120.815429688 443 c 0,29,30
 133.586914062 476 133.586914062 476 164.099609375 494 c 128,-1,31
 194.611328125 512 194.611328125 512 238.611328125 512 c 0,32,33
 308.611328125 512 308.611328125 512 364.711914062 475.5 c 128,-1,34
 420.8125 439 420.8125 439 452.270507812 377 c 0,35,0
 464.005859375 354 464.005859375 354 473.236328125 325 c 128,-1,1
456.260742188 176.5 m 128,-1,37
 453.40234375 200 453.40234375 200 440.436523438 252 c 0,38,39
 427.22265625 305 427.22265625 305 417.73828125 329 c 128,-1,40
 408.254882812 353 408.254882812 353 394.018554688 374 c 0,41,42
 372.045898438 414 372.045898438 414 331.6875 439.5 c 128,-1,43
 291.330078125 465 291.330078125 465 244.330078125 465 c 0,44,45
 198.330078125 465 198.330078125 465 173.1875 439.5 c 128,-1,46
 148.045898438 414 148.045898438 414 147.268554688 373 c 0,47,48
 145.254882812 353 145.254882812 353 148.36328125 328.5 c 128,-1,49
 151.471679688 304 151.471679688 304 164.686523438 251 c 0,50,51
 177.40234375 200 177.40234375 200 185.885742188 176 c 128,-1,52
 194.370117188 152 194.370117188 152 206.106445312 133 c 0,53,54
 227.579101562 91 227.579101562 91 265.561523438 65 c 128,-1,55
 303.543945312 39 303.543945312 39 351.543945312 39 c 256,56,57
 399.543945312 39 399.543945312 39 428.061523438 65 c 128,-1,58
 456.579101562 91 456.579101562 91 457.106445312 133 c 0,59,36
 459.120117188 153 459.120117188 153 456.260742188 176.5 c 128,-1,37
EndSplineSet
Substitution2: "'smcp' Lowercase to Small Capitals in Latin lookup 20 subtable" b.sc
Substitution2: "'aalt' Access All Alternates in Latin lookup 0 subtable" b.sc
EndChar

StartChar: c
Encoding: 99 99 198
Width: 516
GlyphClass: 2
Flags: W
AnchorPoint: "Anchor-10" 62.8311 0 basechar 0
AnchorPoint: "Anchor-9" 62.8311 0 basechar 0
AnchorPoint: "Anchor-8" 62.8311 0 basechar 0
AnchorPoint: "Anchor-7" 206.169 504 basechar 0
AnchorPoint: "Anchor-6" 323.825 -8 basechar 0
LayerCount: 2
Fore
SplineSet
205.100585938 29 m 128,-1,1
 146.375 66 146.375 66 113.916992188 128 c 0,2,3
 88.94921875 176 88.94921875 176 69.7509765625 253 c 0,4,5
 51.30078125 327 51.30078125 327 51.833984375 377 c 0,6,7
 52.625 438 52.625 438 93.3994140625 475 c 128,-1,8
 134.174804688 512 134.174804688 512 205.174804688 512 c 256,9,10
 276.174804688 512 276.174804688 512 336.650390625 476 c 128,-1,11
 397.125976562 440 397.125976562 440 424.58984375 386 c 0,12,13
 432.081054688 372 432.081054688 372 437.571289062 358 c 2,14,-1
 438.0703125 356 l 2,15,16
 439.815429688 349 439.815429688 349 431.313476562 347 c 2,17,-1
 400.311523438 343 l 1,18,-1
 398.311523438 343 l 2,19,20
 391.311523438 343 391.311523438 343 387.067382812 352 c 2,21,-1
 380.576171875 366 l 2,22,23
 361.104492188 408 361.104492188 408 315.999023438 436.5 c 128,-1,24
 270.893554688 465 270.893554688 465 216.893554688 465 c 0,25,26
 161.893554688 465 161.893554688 465 132.624023438 436 c 128,-1,27
 103.354492188 407 103.354492188 407 105.322265625 359 c 0,28,29
 105.795898438 321 105.795898438 321 123 252 c 0,30,31
 140.453125 182 140.453125 182 158.428710938 146 c 0,32,33
 180.645507812 97 180.645507812 97 224.375976562 68 c 128,-1,34
 268.106445312 39 268.106445312 39 323.106445312 39 c 0,35,36
 377.106445312 39 377.106445312 39 408.500976562 67.5 c 128,-1,37
 439.895507812 96 439.895507812 96 437.173828125 139 c 2,38,-1
 436.927734375 144 l 2,39,40
 436.184570312 155 436.184570312 155 446.68359375 153 c 2,41,-1
 478.9296875 148 l 2,42,43
 489.428710938 146 489.428710938 146 490.672851562 137 c 2,44,-1
 491.16015625 119 l 2,45,46
 491.123046875 63 491.123046875 63 448.474609375 27.5 c 128,-1,47
 405.825195312 -8 405.825195312 -8 334.825195312 -8 c 256,48,0
 263.825195312 -8 263.825195312 -8 205.100585938 29 c 128,-1,1
EndSplineSet
Substitution2: "'smcp' Lowercase to Small Capitals in Latin lookup 20 subtable" c.sc
Substitution2: "'aalt' Access All Alternates in Latin lookup 0 subtable" c.sc
EndChar

StartChar: ccedilla
Encoding: 231 231 201
Width: 516
GlyphClass: 2
Flags: W
AnchorPoint: "Anchor-10" 40.5156 0 basechar 0
AnchorPoint: "Anchor-9" 40.5156 0 basechar 0
AnchorPoint: "Anchor-8" 40.5156 0 basechar 0
AnchorPoint: "Anchor-7" 40.5156 0 basechar 0
AnchorPoint: "Anchor-6" 301.511 -8 basechar 0
LayerCount: 2
Fore
SplineSet
414.612304688 144 m 2,0,1
 413.870117188 155 413.870117188 155 424.368164062 153 c 2,2,-1
 456.615234375 148 l 2,3,4
 467.114257812 146 467.114257812 146 468.357421875 137 c 2,5,-1
 468.845703125 119 l 2,6,7
 469.060546875 66 469.060546875 66 431.662109375 31.5 c 128,-1,8
 394.263671875 -3 394.263671875 -3 329.510742188 -8 c 0,9,10
 323.510742188 -8 323.510742188 -8 328.5078125 -12 c 0,11,12
 392.478515625 -56 392.478515625 -56 404.6953125 -105 c 0,13,14
 407.6875 -117 407.6875 -117 407.180664062 -127 c 0,15,16
 407.909179688 -158 407.909179688 -158 388.024414062 -172.5 c 128,-1,17
 368.140625 -187 368.140625 -187 338.140625 -187 c 0,18,19
 320.140625 -187 320.140625 -187 298.893554688 -182 c 0,20,21
 289.64453125 -181 289.64453125 -181 288.901367188 -170 c 2,22,-1
 288.411132812 -156 l 2,23,24
 286.91796875 -146 286.91796875 -146 298.666015625 -149 c 0,25,26
 307.1640625 -151 307.1640625 -151 321.1640625 -151 c 0,27,28
 344.1640625 -151 344.1640625 -151 356.172851562 -139 c 128,-1,29
 368.180664062 -127 368.180664062 -127 361.448242188 -100 c 0,30,31
 355.713867188 -77 355.713867188 -77 333.10546875 -52.5 c 128,-1,32
 310.497070312 -28 310.497070312 -28 278.260742188 -7 c 0,33,34
 276.762695312 -5 276.762695312 -5 272.762695312 -5 c 0,35,36
 214.26953125 5 214.26953125 5 166.54296875 40 c 128,-1,37
 118.81640625 75 118.81640625 75 91.6015625 128 c 0,38,39
 66.6337890625 176 66.6337890625 176 47.435546875 253 c 0,40,41
 28.9853515625 327 28.9853515625 327 29.51953125 377 c 0,42,43
 30.310546875 438 30.310546875 438 71.0849609375 475 c 128,-1,44
 111.859375 512 111.859375 512 182.859375 512 c 256,45,46
 253.859375 512 253.859375 512 314.3359375 476 c 128,-1,47
 374.811523438 440 374.811523438 440 402.275390625 386 c 0,48,49
 409.765625 372 409.765625 372 415.256835938 358 c 2,50,-1
 415.754882812 356 l 2,51,52
 417.5 349 417.5 349 408.999023438 347 c 2,53,-1
 377.99609375 343 l 1,54,-1
 375.99609375 343 l 2,55,56
 368.99609375 343 368.99609375 343 364.751953125 352 c 2,57,-1
 358.26171875 366 l 2,58,59
 338.790039062 408 338.790039062 408 293.684570312 436.5 c 128,-1,60
 248.578125 465 248.578125 465 194.578125 465 c 0,61,62
 139.578125 465 139.578125 465 110.30859375 436 c 128,-1,63
 81.0390625 407 81.0390625 407 83.0068359375 359 c 0,64,65
 83.4814453125 321 83.4814453125 321 100.685546875 252 c 0,66,67
 118.137695312 182 118.137695312 182 136.114257812 146 c 0,68,69
 158.331054688 97 158.331054688 97 202.061523438 68 c 128,-1,70
 245.791992188 39 245.791992188 39 300.791992188 39 c 0,71,72
 354.791992188 39 354.791992188 39 386.186523438 67.5 c 128,-1,73
 417.580078125 96 417.580078125 96 414.859375 139 c 2,74,-1
 414.612304688 144 l 2,0,1
EndSplineSet
Substitution2: "'smcp' Lowercase to Small Capitals in Latin lookup 20 subtable" ccedilla.sc
Substitution2: "'aalt' Access All Alternates in Latin lookup 0 subtable" ccedilla.sc
EndChar

StartChar: d
Encoding: 100 100 204
Width: 541
GlyphClass: 1
Flags: W
LayerCount: 2
Fore
SplineSet
322.73828125 700 m 2,1,-1
 355.73828125 700 l 2,2,3
 365.73828125 700 365.73828125 700 368.231445312 690 c 2,4,-1
 537.774414062 10 l 2,5,6
 540.267578125 0 540.267578125 0 530.267578125 0 c 2,7,-1
 497.267578125 0 l 2,8,9
 487.267578125 0 487.267578125 0 484.774414062 10 c 2,10,-1
 472.557617188 59 l 2,11,12
 471.809570312 62 471.809570312 62 470.184570312 62.5 c 128,-1,13
 468.559570312 63 468.559570312 63 467.05859375 61 c 0,14,15
 454.286132812 28 454.286132812 28 423.774414062 10 c 128,-1,16
 393.26171875 -8 393.26171875 -8 349.26171875 -8 c 0,17,18
 281.26171875 -8 281.26171875 -8 225.286132812 28 c 128,-1,19
 169.310546875 64 169.310546875 64 137.1015625 125 c 0,20,21
 124.3671875 148 124.3671875 148 115.260742188 176.5 c 128,-1,22
 106.155273438 205 106.155273438 205 94.6865234375 251 c 0,23,24
 83.466796875 296 83.466796875 296 78.236328125 325 c 128,-1,25
 73.005859375 354 73.005859375 354 73.2705078125 377 c 0,26,27
 72.8125 439 72.8125 439 111.211914062 475.5 c 128,-1,28
 149.611328125 512 149.611328125 512 219.611328125 512 c 0,29,30
 263.611328125 512 263.611328125 512 303.099609375 494 c 128,-1,31
 342.586914062 476 342.586914062 476 371.815429688 443 c 0,32,33
 373.563476562 440 373.563476562 440 375.438476562 440.5 c 128,-1,34
 377.313476562 441 377.313476562 441 376.565429688 444 c 2,35,-1
 315.231445312 690 l 2,36,0
 312.73828125 700 312.73828125 700 322.73828125 700 c 2,1,-1
439.885742188 176 m 128,-1,38
 436.40234375 200 436.40234375 200 423.686523438 251 c 0,39,40
 410.471679688 304 410.471679688 304 401.36328125 328.5 c 128,-1,41
 392.254882812 353 392.254882812 353 380.268554688 373 c 0,42,43
 359.045898438 414 359.045898438 414 321.1875 439.5 c 128,-1,44
 283.330078125 465 283.330078125 465 237.330078125 465 c 0,45,46
 190.330078125 465 190.330078125 465 162.6875 439.5 c 128,-1,47
 135.045898438 414 135.045898438 414 133.018554688 374 c 0,48,49
 128.755859375 355 128.755859375 355 131.364257812 330.5 c 128,-1,50
 133.97265625 306 133.97265625 306 147.436523438 252 c 0,51,52
 160.40234375 200 160.40234375 200 169.260742188 176.5 c 128,-1,53
 178.120117188 153 178.120117188 153 190.106445312 133 c 0,54,55
 210.579101562 91 210.579101562 91 252.061523438 65 c 128,-1,56
 293.543945312 39 293.543945312 39 342.543945312 39 c 0,57,58
 389.543945312 39 389.543945312 39 414.561523438 65 c 128,-1,59
 439.579101562 91 439.579101562 91 441.106445312 133 c 0,60,37
 443.370117188 152 443.370117188 152 439.885742188 176 c 128,-1,38
EndSplineSet
Substitution2: "'smcp' Lowercase to Small Capitals in Latin lookup 20 subtable" d.sc
Substitution2: "'aalt' Access All Alternates in Latin lookup 0 subtable" d.sc
EndChar

StartChar: eth
Encoding: 240 240 205
Width: 526
GlyphClass: 1
Flags: W
LayerCount: 2
Fore
SplineSet
478.932617188 246 m 0,1,2
 491.399414062 196 491.399414062 196 496.256835938 170.5 c 128,-1,3
 501.115234375 145 501.115234375 145 501.350585938 124 c 0,4,5
 500.061523438 65 500.061523438 65 459.162109375 28.5 c 128,-1,6
 418.26171875 -8 418.26171875 -8 349.26171875 -8 c 0,7,8
 281.26171875 -8 281.26171875 -8 223.786132812 28 c 128,-1,9
 166.310546875 64 166.310546875 64 134.350585938 124 c 0,10,11
 122.865234375 146 122.865234375 146 114.8828125 172 c 128,-1,12
 106.900390625 198 106.900390625 198 94.68359375 247 c 256,13,14
 82.466796875 296 82.466796875 296 77.7333984375 321 c 128,-1,15
 73 346 73 346 73.763671875 367 c 0,16,17
 73.5498046875 420 73.5498046875 420 106.072265625 454 c 128,-1,18
 138.595703125 488 138.595703125 488 195.84765625 491 c 2,19,-1
 214.59765625 492 l 2,20,21
 250.59765625 492 250.59765625 492 287.215820312 481.5 c 128,-1,22
 323.833984375 471 323.833984375 471 349.8203125 451 c 0,23,24
 352.319335938 449 352.319335938 449 353.0703125 450 c 128,-1,25
 353.8203125 451 353.8203125 451 352.322265625 453 c 0,26,27
 316.86328125 515 316.86328125 515 246.408203125 581 c 0,28,29
 243.41015625 585 243.41015625 585 240.909179688 583 c 2,30,-1
 159.890625 555 l 1,31,-1
 156.139648438 554 l 2,32,33
 150.139648438 554 150.139648438 554 145.145507812 562 c 2,34,-1
 137.405273438 577 l 1,35,-1
 136.657226562 580 l 2,36,37
 135.161132812 586 135.161132812 586 141.413085938 589 c 2,38,-1
 206.177734375 610 l 2,39,40
 207.927734375 611 207.927734375 611 207.9296875 613 c 128,-1,41
 207.930664062 615 207.930664062 615 205.681640625 616 c 0,42,43
 161.706054688 652 161.706054688 652 110.729492188 688 c 0,44,45
 105.981445312 691 105.981445312 691 104.984375 695 c 0,46,47
 103.73828125 700 103.73828125 700 111.73828125 700 c 2,48,-1
 149.73828125 700 l 2,49,50
 156.73828125 700 156.73828125 700 162.984375 695 c 0,51,52
 209.211914062 662 209.211914062 662 250.440429688 629 c 0,53,54
 252.938476562 627 252.938476562 627 255.689453125 628 c 2,55,-1
 323.955078125 651 l 1,56,-1
 327.706054688 652 l 2,57,58
 333.706054688 652 333.706054688 652 338.700195312 644 c 2,59,-1
 346.440429688 629 l 1,60,-1
 347.188476562 626 l 2,61,62
 348.684570312 620 348.684570312 620 342.431640625 617 c 2,63,-1
 291.670898438 600 l 2,64,65
 287.168945312 598 287.168945312 598 289.916992188 595 c 0,66,67
 402.099609375 494 402.099609375 494 447.254882812 353 c 0,68,0
 461.978515625 314 461.978515625 314 478.932617188 246 c 0,1,2
439.515625 183.5 m 128,-1,70
 433.41015625 212 433.41015625 212 425.181640625 245 c 0,71,72
 416.705078125 279 416.705078125 279 408.848632812 306.5 c 128,-1,73
 400.9921875 334 400.9921875 334 394.500976562 348 c 0,74,75
 373.783203125 395 373.783203125 395 330.552734375 424 c 128,-1,76
 287.322265625 453 287.322265625 453 234.322265625 453 c 0,77,78
 182.322265625 453 182.322265625 453 154.052734375 424 c 128,-1,79
 125.783203125 395 125.783203125 395 128.500976562 348 c 0,80,81
 128.734375 323 128.734375 323 148.181640625 245 c 0,82,83
 168.127929688 165 168.127929688 165 180.112304688 141 c 0,84,85
 202.080078125 93 202.080078125 93 244.310546875 64 c 128,-1,86
 286.541015625 35 286.541015625 35 338.541015625 35 c 256,87,88
 390.541015625 35 390.541015625 35 419.685546875 64.5 c 128,-1,89
 448.831054688 94 448.831054688 94 446.112304688 141 c 0,90,69
 445.622070312 155 445.622070312 155 439.515625 183.5 c 128,-1,70
EndSplineSet
Substitution2: "'smcp' Lowercase to Small Capitals in Latin lookup 20 subtable" eth.sc
Substitution2: "'aalt' Access All Alternates in Latin lookup 0 subtable" eth.sc
EndChar

StartChar: dcroat
Encoding: 273 273 207
Width: 541
GlyphClass: 1
Flags: W
LayerCount: 2
Fore
SplineSet
467.673828125 604 m 2,1,-1
 472.161132812 586 l 2,2,3
 474.654296875 576 474.654296875 576 464.654296875 576 c 2,4,-1
 400.654296875 576 l 2,5,6
 396.654296875 576 396.654296875 576 397.65234375 572 c 2,7,-1
 537.774414062 10 l 2,8,9
 540.267578125 0 540.267578125 0 530.267578125 0 c 2,10,-1
 497.267578125 0 l 2,11,12
 487.267578125 0 487.267578125 0 484.774414062 10 c 2,13,-1
 472.557617188 59 l 2,14,15
 471.809570312 62 471.809570312 62 470.184570312 62.5 c 128,-1,16
 468.559570312 63 468.559570312 63 467.05859375 61 c 0,17,18
 454.286132812 28 454.286132812 28 423.774414062 10 c 128,-1,19
 393.26171875 -8 393.26171875 -8 349.26171875 -8 c 0,20,21
 281.26171875 -8 281.26171875 -8 225.286132812 28 c 128,-1,22
 169.310546875 64 169.310546875 64 137.1015625 125 c 0,23,24
 124.3671875 148 124.3671875 148 115.260742188 176.5 c 128,-1,25
 106.155273438 205 106.155273438 205 94.6865234375 251 c 0,26,27
 83.466796875 296 83.466796875 296 78.236328125 325 c 128,-1,28
 73.005859375 354 73.005859375 354 73.2705078125 377 c 0,29,30
 72.8125 439 72.8125 439 111.211914062 475.5 c 128,-1,31
 149.611328125 512 149.611328125 512 219.611328125 512 c 0,32,33
 263.611328125 512 263.611328125 512 303.099609375 494 c 128,-1,34
 342.586914062 476 342.586914062 476 371.815429688 443 c 0,35,36
 373.563476562 440 373.563476562 440 375.438476562 440.5 c 128,-1,37
 377.313476562 441 377.313476562 441 376.565429688 444 c 2,38,-1
 344.65234375 572 l 2,39,40
 343.654296875 576 343.654296875 576 339.654296875 576 c 2,41,-1
 176.654296875 576 l 2,42,43
 166.654296875 576 166.654296875 576 164.161132812 586 c 2,44,-1
 159.673828125 604 l 2,45,46
 157.1796875 614 157.1796875 614 167.1796875 614 c 2,47,-1
 330.1796875 614 l 2,48,49
 334.1796875 614 334.1796875 614 333.182617188 618 c 2,50,-1
 315.231445312 690 l 2,51,52
 312.73828125 700 312.73828125 700 322.73828125 700 c 2,53,-1
 355.73828125 700 l 2,54,55
 365.73828125 700 365.73828125 700 368.231445312 690 c 2,56,-1
 386.182617188 618 l 2,57,58
 387.1796875 614 387.1796875 614 391.1796875 614 c 2,59,-1
 455.1796875 614 l 2,60,0
 465.1796875 614 465.1796875 614 467.673828125 604 c 2,1,-1
439.885742188 176 m 128,-1,62
 436.40234375 200 436.40234375 200 423.686523438 251 c 0,63,64
 410.471679688 304 410.471679688 304 401.36328125 328.5 c 128,-1,65
 392.254882812 353 392.254882812 353 380.268554688 373 c 0,66,67
 359.045898438 414 359.045898438 414 321.1875 439.5 c 128,-1,68
 283.330078125 465 283.330078125 465 237.330078125 465 c 0,69,70
 190.330078125 465 190.330078125 465 162.6875 439.5 c 128,-1,71
 135.045898438 414 135.045898438 414 133.018554688 374 c 0,72,73
 128.755859375 355 128.755859375 355 131.364257812 330.5 c 128,-1,74
 133.97265625 306 133.97265625 306 147.436523438 252 c 0,75,76
 160.40234375 200 160.40234375 200 169.260742188 176.5 c 128,-1,77
 178.120117188 153 178.120117188 153 190.106445312 133 c 0,78,79
 210.579101562 91 210.579101562 91 252.061523438 65 c 128,-1,80
 293.543945312 39 293.543945312 39 342.543945312 39 c 0,81,82
 389.543945312 39 389.543945312 39 414.561523438 65 c 128,-1,83
 439.579101562 91 439.579101562 91 441.106445312 133 c 0,84,61
 443.370117188 152 443.370117188 152 439.885742188 176 c 128,-1,62
EndSplineSet
Substitution2: "'smcp' Lowercase to Small Capitals in Latin lookup 20 subtable" dcroat.sc
Substitution2: "'aalt' Access All Alternates in Latin lookup 0 subtable" dcroat.sc
EndChar

StartChar: e
Encoding: 101 101 208
Width: 530
GlyphClass: 2
Flags: W
AnchorPoint: "Anchor-10" 62.8311 0 basechar 0
AnchorPoint: "Anchor-9" 62.8311 0 basechar 0
AnchorPoint: "Anchor-8" 62.8311 0 basechar 0
AnchorPoint: "Anchor-7" 202.169 504 basechar 0
AnchorPoint: "Anchor-6" 330.825 -8 basechar 0
LayerCount: 2
Fore
SplineSet
403.24609375 60.5 m 128,-1,1
 431.385742188 82 431.385742188 82 440.911132812 120 c 0,2,3
 443.666992188 129 443.666992188 129 452.665039062 125 c 2,4,-1
 481.90625 112 l 2,5,6
 492.15234375 107 492.15234375 107 490.147460938 99 c 0,7,8
 480.364257812 50 480.364257812 50 440.094726562 21 c 128,-1,9
 399.825195312 -8 399.825195312 -8 335.825195312 -8 c 0,10,11
 265.825195312 -8 265.825195312 -8 208.34765625 26 c 128,-1,12
 150.87109375 60 150.87109375 60 118.16015625 119 c 0,13,14
 103.927734375 144 103.927734375 144 93.1982421875 175 c 128,-1,15
 82.46875 206 82.46875 206 70.7509765625 253 c 0,16,17
 58.533203125 302 58.533203125 302 53.80078125 327 c 128,-1,18
 49.0673828125 352 49.0673828125 352 48.8310546875 373 c 0,19,20
 49.1240234375 436 49.1240234375 436 89.1494140625 474 c 128,-1,21
 129.174804688 512 129.174804688 512 201.174804688 512 c 0,22,23
 283.174804688 512 283.174804688 512 342.771484375 469.5 c 128,-1,24
 402.3671875 427 402.3671875 427 433.067382812 352 c 0,25,26
 440.8046875 333 440.8046875 333 448.162109375 307.5 c 128,-1,27
 455.520507812 282 455.520507812 282 464.994140625 244 c 0,28,29
 467.48828125 234 467.48828125 234 457.48828125 234 c 2,30,-1
 131.48828125 234 l 2,31,32
 127.48828125 234 127.48828125 234 128.485351562 230 c 0,33,34
 144.442382812 166 144.442382812 166 154.677734375 145 c 0,35,36
 177.895507812 96 177.895507812 96 223.500976562 67.5 c 128,-1,37
 269.106445312 39 269.106445312 39 328.106445312 39 c 0,38,0
 375.106445312 39 375.106445312 39 403.24609375 60.5 c 128,-1,1
115.270507812 283 m 0,40,41
 116.268554688 279 116.268554688 279 120.268554688 279 c 2,42,-1
 399.268554688 279 l 2,43,44
 403.268554688 279 403.268554688 279 402.270507812 283 c 0,45,46
 389.8046875 333 389.8046875 333 378.571289062 358 c 0,47,48
 355.603515625 406 355.603515625 406 311.248046875 435.5 c 128,-1,49
 266.893554688 465 266.893554688 465 212.893554688 465 c 256,50,51
 158.893554688 465 158.893554688 465 129.999023438 436.5 c 128,-1,52
 101.104492188 408 101.104492188 408 102.823242188 361 c 0,53,39
 102.560546875 342 102.560546875 342 115.270507812 283 c 0,40,41
EndSplineSet
Substitution2: "'smcp' Lowercase to Small Capitals in Latin lookup 20 subtable" e.sc
Substitution2: "'aalt' Access All Alternates in Latin lookup 0 subtable" e.sc
EndChar

StartChar: uni0229
Encoding: 553 553 211
Width: 530
GlyphClass: 2
Flags: W
AnchorPoint: "Anchor-10" 40.5156 0 basechar 0
AnchorPoint: "Anchor-9" 40.5156 0 basechar 0
AnchorPoint: "Anchor-8" 40.5156 0 basechar 0
AnchorPoint: "Anchor-7" 40.5156 0 basechar 0
AnchorPoint: "Anchor-6" 308.511 -8 basechar 0
LayerCount: 2
Fore
SplineSet
380.931640625 60.5 m 128,-1,1
 409.071289062 82 409.071289062 82 418.596679688 120 c 0,2,3
 421.352539062 129 421.352539062 129 430.349609375 125 c 2,4,-1
 459.590820312 112 l 2,5,6
 469.837890625 107 469.837890625 107 467.83203125 99 c 0,7,8
 459.051757812 54 459.051757812 54 424.158203125 25.5 c 128,-1,9
 389.263671875 -3 389.263671875 -3 334.260742188 -7 c 0,10,11
 328.510742188 -8 328.510742188 -8 333.5078125 -12 c 0,12,13
 398.478515625 -56 398.478515625 -56 410.944335938 -106 c 0,14,15
 421.666015625 -149 421.666015625 -149 401.903320312 -168 c 128,-1,16
 382.140625 -187 382.140625 -187 345.140625 -187 c 0,17,18
 327.140625 -187 327.140625 -187 305.893554688 -182 c 0,19,20
 296.64453125 -181 296.64453125 -181 295.901367188 -170 c 2,21,-1
 295.411132812 -156 l 2,22,23
 295.1640625 -151 295.1640625 -151 298.290039062 -149.5 c 128,-1,24
 301.416015625 -148 301.416015625 -148 305.666015625 -149 c 0,25,26
 318.4140625 -152 318.4140625 -152 328.4140625 -152 c 0,27,28
 348.4140625 -152 348.4140625 -152 359.419921875 -142 c 128,-1,29
 370.426757812 -132 370.426757812 -132 369.689453125 -113 c 0,30,31
 369.692382812 -109 369.692382812 -109 367.448242188 -100 c 0,32,33
 356.727539062 -57 356.727539062 -57 287.759765625 -9 c 0,34,35
 286.260742188 -7 286.260742188 -7 282.260742188 -7 c 0,36,37
 222.515625 0 222.515625 0 174.288085938 33 c 128,-1,38
 126.060546875 66 126.060546875 66 95.845703125 119 c 0,39,40
 81.6123046875 144 81.6123046875 144 70.8837890625 175 c 128,-1,41
 60.154296875 206 60.154296875 206 48.435546875 253 c 0,42,43
 36.21875 302 36.21875 302 31.4853515625 327 c 128,-1,44
 26.751953125 352 26.751953125 352 26.5166015625 373 c 0,45,46
 26.80859375 436 26.80859375 436 66.833984375 474 c 128,-1,47
 106.859375 512 106.859375 512 178.859375 512 c 0,48,49
 260.859375 512 260.859375 512 320.456054688 469.5 c 128,-1,50
 380.052734375 427 380.052734375 427 410.751953125 352 c 0,51,52
 418.489257812 333 418.489257812 333 425.84765625 307.5 c 128,-1,53
 433.205078125 282 433.205078125 282 442.6796875 244 c 0,54,55
 445.172851562 234 445.172851562 234 435.172851562 234 c 2,56,-1
 109.172851562 234 l 2,57,58
 105.172851562 234 105.172851562 234 106.169921875 230 c 0,59,60
 122.126953125 166 122.126953125 166 132.36328125 145 c 0,61,62
 155.580078125 96 155.580078125 96 201.186523438 67.5 c 128,-1,63
 246.791992188 39 246.791992188 39 305.791992188 39 c 0,64,0
 352.791992188 39 352.791992188 39 380.931640625 60.5 c 128,-1,1
92.9560546875 283 m 0,66,67
 93.953125 279 93.953125 279 97.953125 279 c 2,68,-1
 376.953125 279 l 2,69,70
 380.953125 279 380.953125 279 379.956054688 283 c 0,71,72
 367.489257812 333 367.489257812 333 356.256835938 358 c 0,73,74
 333.2890625 406 333.2890625 406 288.93359375 435.5 c 128,-1,75
 244.578125 465 244.578125 465 190.578125 465 c 256,76,77
 136.578125 465 136.578125 465 107.684570312 436.5 c 128,-1,78
 78.7900390625 408 78.7900390625 408 80.5087890625 361 c 0,79,65
 80.24609375 342 80.24609375 342 92.9560546875 283 c 0,66,67
EndSplineSet
Substitution2: "'smcp' Lowercase to Small Capitals in Latin lookup 20 subtable" uni0229.sc
Substitution2: "'aalt' Access All Alternates in Latin lookup 0 subtable" uni0229.sc
EndChar

StartChar: eogonek
Encoding: 281 281 224
Width: 530
GlyphClass: 2
Flags: W
AnchorPoint: "Anchor-10" 40.5156 0 basechar 0
AnchorPoint: "Anchor-9" 40.5156 0 basechar 0
AnchorPoint: "Anchor-8" 40.5156 0 basechar 0
AnchorPoint: "Anchor-7" 40.5156 0 basechar 0
AnchorPoint: "Anchor-6" 308.511 -8 basechar 0
LayerCount: 2
Fore
SplineSet
380.931640625 60.5 m 128,-1,1
 409.071289062 82 409.071289062 82 418.596679688 120 c 0,2,3
 421.352539062 129 421.352539062 129 430.349609375 125 c 2,4,-1
 459.590820312 112 l 2,5,6
 469.837890625 107 469.837890625 107 467.83203125 99 c 0,7,8
 458.051757812 54 458.051757812 54 423.158203125 25.5 c 128,-1,9
 388.263671875 -3 388.263671875 -3 333.260742188 -7 c 0,10,11
 330.260742188 -7 330.260742188 -7 328.759765625 -9 c 0,12,13
 284.478515625 -56 284.478515625 -56 295.19921875 -99 c 0,14,15
 297.443359375 -108 297.443359375 -108 299.440429688 -112 c 0,16,17
 316.1640625 -151 316.1640625 -151 361.1640625 -151 c 0,18,19
 368.1640625 -151 368.1640625 -151 381.666015625 -149 c 2,20,-1
 386.416015625 -148 l 2,21,22
 391.416015625 -148 391.416015625 -148 395.411132812 -156 c 2,23,-1
 401.901367188 -170 l 1,24,-1
 402.649414062 -173 l 2,25,26
 404.64453125 -181 404.64453125 -181 397.893554688 -182 c 0,27,28
 381.140625 -187 381.140625 -187 362.140625 -187 c 0,29,30
 326.140625 -187 326.140625 -187 295.778320312 -167.5 c 128,-1,31
 265.416015625 -148 265.416015625 -148 254.6953125 -105 c 0,32,33
 242.478515625 -56 242.478515625 -56 285.258789062 -11 c 0,34,35
 288.260742188 -7 288.260742188 -7 282.01171875 -6 c 0,36,37
 221.266601562 1 221.266601562 1 173.0390625 34 c 128,-1,38
 124.810546875 67 124.810546875 67 95.845703125 119 c 0,39,40
 81.6123046875 144 81.6123046875 144 70.8837890625 175 c 128,-1,41
 60.154296875 206 60.154296875 206 48.435546875 253 c 0,42,43
 36.21875 302 36.21875 302 31.4853515625 327 c 128,-1,44
 26.751953125 352 26.751953125 352 26.5166015625 373 c 0,45,46
 26.80859375 436 26.80859375 436 66.833984375 474 c 128,-1,47
 106.859375 512 106.859375 512 178.859375 512 c 0,48,49
 260.859375 512 260.859375 512 320.456054688 469.5 c 128,-1,50
 380.052734375 427 380.052734375 427 410.751953125 352 c 0,51,52
 418.489257812 333 418.489257812 333 425.84765625 307.5 c 128,-1,53
 433.205078125 282 433.205078125 282 442.6796875 244 c 0,54,55
 445.172851562 234 445.172851562 234 435.172851562 234 c 2,56,-1
 109.172851562 234 l 2,57,58
 105.172851562 234 105.172851562 234 106.169921875 230 c 0,59,60
 122.126953125 166 122.126953125 166 132.36328125 145 c 0,61,62
 155.580078125 96 155.580078125 96 201.186523438 67.5 c 128,-1,63
 246.791992188 39 246.791992188 39 305.791992188 39 c 0,64,0
 352.791992188 39 352.791992188 39 380.931640625 60.5 c 128,-1,1
92.9560546875 283 m 0,66,67
 93.953125 279 93.953125 279 97.953125 279 c 2,68,-1
 376.953125 279 l 2,69,70
 380.953125 279 380.953125 279 379.956054688 283 c 0,71,72
 367.489257812 333 367.489257812 333 356.256835938 358 c 0,73,74
 333.2890625 406 333.2890625 406 288.93359375 435.5 c 128,-1,75
 244.578125 465 244.578125 465 190.578125 465 c 256,76,77
 136.578125 465 136.578125 465 107.684570312 436.5 c 128,-1,78
 78.7900390625 408 78.7900390625 408 80.5087890625 361 c 0,79,65
 80.24609375 342 80.24609375 342 92.9560546875 283 c 0,66,67
EndSplineSet
Substitution2: "'smcp' Lowercase to Small Capitals in Latin lookup 20 subtable" eogonek.sc
Substitution2: "'aalt' Access All Alternates in Latin lookup 0 subtable" eogonek.sc
EndChar

StartChar: uni0259
Encoding: 601 601 226
Width: 530
GlyphClass: 2
Flags: W
AnchorPoint: "Anchor-10" 62.8311 0 basechar 0
AnchorPoint: "Anchor-9" 62.8311 0 basechar 0
AnchorPoint: "Anchor-8" 62.8311 0 basechar 0
AnchorPoint: "Anchor-7" 199.175 512 basechar 0
AnchorPoint: "Anchor-6" 327.831 0 basechar 0
LayerCount: 2
Fore
SplineSet
436.926757812 328.5 m 128,-1,1
 447.780273438 297 447.780273438 297 459.499023438 250 c 0,2,3
 471.466796875 202 471.466796875 202 476.19921875 177 c 128,-1,4
 480.932617188 152 480.932617188 152 481.41796875 130 c 0,5,6
 481.125976562 67 481.125976562 67 440.975585938 29.5 c 128,-1,7
 400.825195312 -8 400.825195312 -8 328.825195312 -8 c 0,8,9
 246.825195312 -8 246.825195312 -8 187.228515625 34.5 c 128,-1,10
 127.6328125 77 127.6328125 77 97.181640625 151 c 0,11,12
 89.4453125 170 89.4453125 170 82.0869140625 195.5 c 128,-1,13
 74.7294921875 221 74.7294921875 221 65.005859375 260 c 0,14,15
 62.51171875 270 62.51171875 270 72.51171875 270 c 2,16,-1
 398.51171875 270 l 2,17,18
 402.51171875 270 402.51171875 270 401.514648438 274 c 0,19,20
 385.806640625 337 385.806640625 337 375.571289062 358 c 0,21,22
 352.354492188 407 352.354492188 407 307.124023438 436 c 128,-1,23
 261.893554688 465 261.893554688 465 204.893554688 465 c 0,24,25
 156.893554688 465 156.893554688 465 127.75390625 443.5 c 128,-1,26
 98.6142578125 422 98.6142578125 422 89.0888671875 384 c 0,27,28
 86.3330078125 375 86.3330078125 375 77.3349609375 379 c 2,29,-1
 48.09375 392 l 2,30,31
 37.84765625 397 37.84765625 397 39.8525390625 405 c 0,32,33
 50.6357421875 454 50.6357421875 454 90.9052734375 483 c 128,-1,34
 131.174804688 512 131.174804688 512 194.174804688 512 c 0,35,36
 264.174804688 512 264.174804688 512 321.65234375 478 c 128,-1,37
 379.12890625 444 379.12890625 444 411.83984375 385 c 0,38,0
 426.072265625 360 426.072265625 360 436.926757812 328.5 c 128,-1,1
414.729492188 221 m 0,40,41
 413.731445312 225 413.731445312 225 409.731445312 225 c 2,42,-1
 130.731445312 225 l 2,43,44
 126.731445312 225 126.731445312 225 127.729492188 221 c 0,45,46
 140.694335938 169 140.694335938 169 152.428710938 146 c 0,47,48
 174.396484375 98 174.396484375 98 218.751953125 68.5 c 128,-1,49
 263.106445312 39 263.106445312 39 317.106445312 39 c 256,50,51
 371.106445312 39 371.106445312 39 400.000976562 67.5 c 128,-1,52
 428.895507812 96 428.895507812 96 427.176757812 143 c 0,53,39
 427.688476562 161 427.688476562 161 414.729492188 221 c 0,40,41
EndSplineSet
EndChar

StartChar: uni0292
Encoding: 658 658 227
Width: 546
GlyphClass: 2
Flags: W
AnchorPoint: "Anchor-10" 38.5215 0 basechar 0
AnchorPoint: "Anchor-9" 38.5215 0 basechar 0
AnchorPoint: "Anchor-8" 38.5215 0 basechar 0
AnchorPoint: "Anchor-7" 179.859 504 basechar 0
AnchorPoint: "Anchor-6" 38.5215 0 basechar 0
LayerCount: 2
Fore
SplineSet
167.07421875 264.5 m 128,-1,1
 167.948242188 263 167.948242188 263 170.698242188 264 c 0,2,3
 180.44921875 265 180.44921875 265 200.44921875 265 c 0,4,5
 283.44921875 265 283.44921875 265 347.678710938 234 c 128,-1,6
 411.907226562 203 411.907226562 203 451.873046875 151 c 128,-1,7
 491.837890625 99 491.837890625 99 507.794921875 35 c 0,8,9
 526.245117188 -39 526.245117188 -39 504.584960938 -90.5 c 128,-1,10
 482.92578125 -142 482.92578125 -142 429.533203125 -168.5 c 128,-1,11
 376.140625 -195 376.140625 -195 301.140625 -195 c 0,12,13
 233.140625 -195 233.140625 -195 157.904296875 -174 c 0,14,15
 149.15625 -171 149.15625 -171 146.912109375 -162 c 2,16,-1
 141.180664062 -135 l 2,17,18
 139.93359375 -130 139.93359375 -130 142.810546875 -127.5 c 128,-1,19
 145.6875 -125 145.6875 -125 151.185546875 -127 c 0,20,21
 221.922851562 -146 221.922851562 -146 287.922851562 -146 c 0,22,23
 382.922851562 -146 382.922851562 -146 430.203125 -101 c 128,-1,24
 477.483398438 -56 477.483398438 -56 455.29296875 33 c 0,25,26
 442.827148438 83 442.827148438 83 411.10546875 126 c 128,-1,27
 379.384765625 169 379.384765625 169 326.77734375 195.5 c 128,-1,28
 274.169921875 222 274.169921875 222 204.169921875 222 c 0,29,30
 150.169921875 222 150.169921875 222 94.91015625 207 c 1,31,-1
 91.91015625 207 l 2,32,33
 84.91015625 207 84.91015625 207 80.1650390625 214 c 2,34,-1
 69.17578125 230 l 1,35,-1
 67.1787109375 234 l 2,36,37
 65.6826171875 240 65.6826171875 240 69.9345703125 243 c 2,38,-1
 275.323242188 450 l 2,39,40
 276.825195312 452 276.825195312 452 275.451171875 453.5 c 128,-1,41
 274.077148438 455 274.077148438 455 272.077148438 455 c 2,42,-1
 6.0771484375 455 l 2,43,44
 -3.9228515625 455 -3.9228515625 455 -6.416015625 465 c 2,45,-1
 -13.646484375 494 l 2,46,47
 -16.140625 504 -16.140625 504 -6.140625 504 c 2,48,-1
 331.859375 504 l 2,49,50
 341.859375 504 341.859375 504 344.353515625 494 c 2,51,-1
 351.833007812 464 l 2,52,53
 353.329101562 458 353.329101562 458 348.825195312 452 c 2,54,-1
 167.701171875 268 l 2,55,0
 166.200195312 266 166.200195312 266 167.07421875 264.5 c 128,-1,1
EndSplineSet
EndChar

StartChar: f
Encoding: 102 102 229
Width: 349
GlyphClass: 1
Flags: W
LayerCount: 2
Fore
SplineSet
121.934570312 625 m 128,-1,1
 107.416015625 597 107.416015625 597 123.124023438 534 c 2,2,-1
 129.606445312 508 l 2,3,4
 130.603515625 504 130.603515625 504 134.603515625 504 c 2,5,-1
 251.603515625 504 l 2,6,7
 261.603515625 504 261.603515625 504 264.096679688 494 c 2,8,-1
 271.327148438 465 l 2,9,10
 273.8203125 455 273.8203125 455 263.8203125 455 c 2,11,-1
 146.8203125 455 l 2,12,13
 142.8203125 455 142.8203125 455 143.818359375 451 c 2,14,-1
 253.771484375 10 l 2,15,16
 256.264648438 0 256.264648438 0 246.264648438 0 c 2,17,-1
 213.264648438 0 l 2,18,19
 203.264648438 0 203.264648438 0 200.771484375 10 c 2,20,-1
 90.818359375 451 l 2,21,22
 89.8203125 455 89.8203125 455 85.8203125 455 c 2,23,-1
 19.8203125 455 l 2,24,25
 9.8203125 455 9.8203125 455 7.3271484375 465 c 2,26,-1
 0.0966796875 494 l 2,27,28
 -2.396484375 504 -2.396484375 504 7.603515625 504 c 2,29,-1
 73.603515625 504 l 2,30,31
 77.603515625 504 77.603515625 504 76.6064453125 508 c 2,32,-1
 69.625 536 l 2,33,34
 54.9150390625 595 54.9150390625 595 59.6884765625 630 c 128,-1,35
 64.4619140625 665 64.4619140625 665 92.5986328125 682.5 c 128,-1,36
 120.735351562 700 120.735351562 700 179.735351562 700 c 2,37,-1
 205.735351562 700 l 2,38,39
 215.735351562 700 215.735351562 700 218.228515625 690 c 2,40,-1
 224.959960938 663 l 2,41,42
 227.454101562 653 227.454101562 653 217.454101562 653 c 2,43,-1
 195.454101562 653 l 2,44,0
 136.454101562 653 136.454101562 653 121.934570312 625 c 128,-1,1
EndSplineSet
Substitution2: "'smcp' Lowercase to Small Capitals in Latin lookup 20 subtable" f.sc
Substitution2: "'aalt' Access All Alternates in Latin lookup 0 subtable" f.sc
EndChar

StartChar: g
Encoding: 103 103 230
Width: 530
GlyphClass: 2
Flags: W
AnchorPoint: "Anchor-10" 38.9639 0 basechar 0
AnchorPoint: "Anchor-9" 38.9639 0 basechar 0
AnchorPoint: "Anchor-8" 38.9639 0 basechar 0
AnchorPoint: "Anchor-7" 185.303 504 basechar 0
AnchorPoint: "Anchor-6" 38.9639 0 basechar 0
LayerCount: 2
Fore
SplineSet
322.302734375 504 m 2,1,-1
 355.302734375 504 l 2,2,3
 365.302734375 504 365.302734375 504 367.795898438 494 c 2,4,-1
 488.221679688 11 l 2,5,6
 516.395507812 -102 516.395507812 -102 461.111328125 -153 c 128,-1,7
 405.827148438 -204 405.827148438 -204 280.580078125 -199 c 0,8,9
 270.331054688 -198 270.331054688 -198 267.837890625 -188 c 2,10,-1
 261.607421875 -159 l 2,11,12
 259.114257812 -149 259.114257812 -149 269.114257812 -149 c 0,13,14
 377.111328125 -153 377.111328125 -153 416.762695312 -113.5 c 128,-1,15
 456.4140625 -74 456.4140625 -74 434.97265625 12 c 2,16,-1
 422.505859375 62 l 2,17,18
 421.7578125 65 421.7578125 65 420.1328125 65.5 c 128,-1,19
 418.508789062 66 418.508789062 66 417.006835938 64 c 0,20,21
 389.2109375 -5 389.2109375 -5 297.2109375 -5 c 0,22,23
 232.2109375 -5 232.2109375 -5 174.359375 30.5 c 128,-1,24
 116.508789062 66 116.508789062 66 85.0498046875 128 c 0,25,26
 63.828125 169 63.828125 169 43.3828125 251 c 0,27,28
 21.4423828125 339 21.4423828125 339 23.2197265625 380 c 0,29,30
 24.5087890625 439 24.5087890625 439 62.4091796875 475.5 c 128,-1,31
 100.30859375 512 100.30859375 512 166.30859375 512 c 0,32,33
 258.30859375 512 258.30859375 512 322.262695312 444 c 0,34,35
 323.760742188 442 323.760742188 442 325.51171875 443 c 128,-1,36
 327.262695312 444 327.262695312 444 326.763671875 446 c 2,37,-1
 314.795898438 494 l 2,38,0
 312.302734375 504 312.302734375 504 322.302734375 504 c 2,1,-1
391.087890625 184 m 128,-1,40
 386.602539062 206 386.602539062 206 375.133789062 252 c 256,41,42
 363.6640625 298 363.6640625 298 357.1796875 320 c 128,-1,43
 350.694335938 342 350.694335938 342 343.455078125 359 c 0,44,45
 323.986328125 405 323.986328125 405 282.006835938 435 c 128,-1,46
 240.026367188 465 240.026367188 465 188.026367188 465 c 256,47,48
 136.026367188 465 136.026367188 465 108.006835938 435 c 128,-1,49
 79.986328125 405 79.986328125 405 78.455078125 359 c 0,50,51
 76.935546875 329 76.935546875 329 95.8837890625 253 c 0,52,53
 114.333984375 179 114.333984375 179 131.3125 147 c 0,54,55
 153.782226562 101 153.782226562 101 197.76171875 71 c 128,-1,56
 241.7421875 41 241.7421875 41 293.7421875 41 c 0,57,58
 347.7421875 41 347.7421875 41 373.76171875 71 c 128,-1,59
 399.782226562 101 399.782226562 101 396.3125 147 c 0,60,39
 395.573242188 162 395.573242188 162 391.087890625 184 c 128,-1,40
EndSplineSet
Substitution2: "'smcp' Lowercase to Small Capitals in Latin lookup 20 subtable" g.sc
Substitution2: "'aalt' Access All Alternates in Latin lookup 0 subtable" g.sc
EndChar

StartChar: uni01E5
Encoding: 485 485 235
Width: 554
GlyphClass: 2
Flags: W
AnchorPoint: "Anchor-10" 38.9639 0 basechar 0
AnchorPoint: "Anchor-9" 38.9639 0 basechar 0
AnchorPoint: "Anchor-8" 38.9639 0 basechar 0
AnchorPoint: "Anchor-7" 185.303 504 basechar 0
AnchorPoint: "Anchor-6" 38.9639 0 basechar 0
LayerCount: 2
Fore
SplineSet
528.141601562 264 m 2,1,-1
 532.629882812 246 l 2,2,3
 535.123046875 236 535.123046875 236 525.123046875 236 c 2,4,-1
 436.123046875 236 l 2,5,6
 432.123046875 236 432.123046875 236 433.120117188 232 c 2,7,-1
 488.221679688 11 l 2,8,9
 516.395507812 -102 516.395507812 -102 461.111328125 -153 c 128,-1,10
 405.827148438 -204 405.827148438 -204 280.580078125 -199 c 0,11,12
 270.331054688 -198 270.331054688 -198 267.837890625 -188 c 2,13,-1
 261.607421875 -159 l 2,14,15
 259.114257812 -149 259.114257812 -149 269.114257812 -149 c 0,16,17
 377.111328125 -153 377.111328125 -153 416.762695312 -113.5 c 128,-1,18
 456.4140625 -74 456.4140625 -74 434.97265625 12 c 2,19,-1
 422.505859375 62 l 2,20,21
 421.7578125 65 421.7578125 65 420.1328125 65.5 c 128,-1,22
 418.508789062 66 418.508789062 66 417.006835938 64 c 0,23,24
 389.2109375 -5 389.2109375 -5 297.2109375 -5 c 0,25,26
 232.2109375 -5 232.2109375 -5 174.359375 30.5 c 128,-1,27
 116.508789062 66 116.508789062 66 85.0498046875 128 c 0,28,29
 63.828125 169 63.828125 169 43.3828125 251 c 0,30,31
 21.4423828125 339 21.4423828125 339 23.2197265625 380 c 0,32,33
 24.5087890625 439 24.5087890625 439 62.4091796875 475.5 c 128,-1,34
 100.30859375 512 100.30859375 512 166.30859375 512 c 0,35,36
 258.30859375 512 258.30859375 512 322.262695312 444 c 0,37,38
 323.760742188 442 323.760742188 442 325.51171875 443 c 128,-1,39
 327.262695312 444 327.262695312 444 326.763671875 446 c 2,40,-1
 314.795898438 494 l 2,41,42
 312.302734375 504 312.302734375 504 322.302734375 504 c 2,43,-1
 355.302734375 504 l 2,44,45
 365.302734375 504 365.302734375 504 367.795898438 494 c 2,46,-1
 421.651367188 278 l 2,47,48
 422.6484375 274 422.6484375 274 426.6484375 274 c 2,49,-1
 515.6484375 274 l 2,50,0
 525.6484375 274 525.6484375 274 528.141601562 264 c 2,1,-1
373.76171875 71 m 128,-1,52
 399.782226562 101 399.782226562 101 396.3125 147 c 0,53,54
 395.822265625 161 395.822265625 161 392.333984375 179 c 128,-1,55
 388.846679688 197 388.846679688 197 380.120117188 232 c 0,56,57
 379.123046875 236 379.123046875 236 375.123046875 236 c 2,58,-1
 243.123046875 236 l 2,59,60
 233.123046875 236 233.123046875 236 230.629882812 246 c 2,61,-1
 226.141601562 264 l 2,62,63
 223.6484375 274 223.6484375 274 233.6484375 274 c 2,64,-1
 365.6484375 274 l 2,65,66
 369.6484375 274 369.6484375 274 368.651367188 278 c 0,67,68
 360.672851562 310 360.672851562 310 355.43359375 327 c 128,-1,69
 350.1953125 344 350.1953125 344 343.455078125 359 c 0,70,71
 323.986328125 405 323.986328125 405 282.006835938 435 c 128,-1,72
 240.026367188 465 240.026367188 465 188.026367188 465 c 256,73,74
 136.026367188 465 136.026367188 465 108.006835938 435 c 128,-1,75
 79.986328125 405 79.986328125 405 78.455078125 359 c 0,76,77
 76.935546875 329 76.935546875 329 95.8837890625 253 c 0,78,79
 114.333984375 179 114.333984375 179 131.3125 147 c 0,80,81
 153.782226562 101 153.782226562 101 197.76171875 71 c 128,-1,82
 241.7421875 41 241.7421875 41 293.7421875 41 c 0,83,51
 347.7421875 41 347.7421875 41 373.76171875 71 c 128,-1,52
EndSplineSet
EndChar

StartChar: h
Encoding: 104 104 236
Width: 537
GlyphClass: 2
Flags: W
AnchorPoint: "Anchor-10" 118.132 546 basechar 0
AnchorPoint: "Anchor-9" 87.2646 0 basechar 0
AnchorPoint: "Anchor-8" 87.2646 0 basechar 0
AnchorPoint: "Anchor-7" 87.2646 0 basechar 0
AnchorPoint: "Anchor-6" 87.2646 0 basechar 0
LayerCount: 2
Fore
SplineSet
381.076171875 464 m 128,-1,1
 440.294921875 417 440.294921875 417 459.493164062 340 c 2,2,-1
 541.771484375 10 l 2,3,4
 544.264648438 0 544.264648438 0 534.264648438 0 c 2,5,-1
 501.264648438 0 l 2,6,7
 491.264648438 0 491.264648438 0 488.771484375 10 c 2,8,-1
 408.986328125 330 l 2,9,10
 394.276367188 389 394.276367188 389 348.926757812 426.5 c 128,-1,11
 303.576171875 464 303.576171875 464 245.576171875 464 c 0,12,13
 185.576171875 464 185.576171875 464 157.676757812 427.5 c 128,-1,14
 129.77734375 391 129.77734375 391 144.48828125 332 c 2,15,-1
 224.771484375 10 l 2,16,17
 227.264648438 0 227.264648438 0 217.264648438 0 c 2,18,-1
 184.264648438 0 l 2,19,20
 174.264648438 0 174.264648438 0 171.771484375 10 c 2,21,-1
 2.228515625 690 l 2,22,23
 -0.2646484375 700 -0.2646484375 700 9.7353515625 700 c 2,24,-1
 42.7353515625 700 l 2,25,26
 52.7353515625 700 52.7353515625 700 55.228515625 690 c 2,27,-1
 116.313476562 445 l 2,28,29
 117.061523438 442 117.061523438 442 118.686523438 441.5 c 128,-1,30
 120.311523438 441 120.311523438 441 120.8125 443 c 0,31,32
 134.584960938 476 134.584960938 476 166.221679688 493.5 c 128,-1,33
 197.858398438 511 197.858398438 511 244.858398438 511 c 0,34,0
 321.858398438 511 321.858398438 511 381.076171875 464 c 128,-1,1
EndSplineSet
Substitution2: "'smcp' Lowercase to Small Capitals in Latin lookup 20 subtable" h.sc
Substitution2: "'aalt' Access All Alternates in Latin lookup 0 subtable" h.sc
EndChar

StartChar: hbar
Encoding: 295 295 237
Width: 537
GlyphClass: 2
Flags: W
AnchorPoint: "Anchor-10" 118.132 546 basechar 0
AnchorPoint: "Anchor-9" 87.2646 0 basechar 0
AnchorPoint: "Anchor-8" 87.2646 0 basechar 0
AnchorPoint: "Anchor-7" 87.2646 0 basechar 0
AnchorPoint: "Anchor-6" 87.2646 0 basechar 0
LayerCount: 2
Fore
SplineSet
381.076171875 464 m 128,-1,1
 440.294921875 417 440.294921875 417 459.493164062 340 c 2,2,-1
 541.771484375 10 l 2,3,4
 544.264648438 0 544.264648438 0 534.264648438 0 c 2,5,-1
 501.264648438 0 l 2,6,7
 491.264648438 0 491.264648438 0 488.771484375 10 c 2,8,-1
 408.986328125 330 l 2,9,10
 394.276367188 389 394.276367188 389 348.926757812 426.5 c 128,-1,11
 303.576171875 464 303.576171875 464 245.576171875 464 c 0,12,13
 185.576171875 464 185.576171875 464 157.676757812 427.5 c 128,-1,14
 129.77734375 391 129.77734375 391 144.48828125 332 c 2,15,-1
 224.771484375 10 l 2,16,17
 227.264648438 0 227.264648438 0 217.264648438 0 c 2,18,-1
 184.264648438 0 l 2,19,20
 174.264648438 0 174.264648438 0 171.771484375 10 c 2,21,-1
 35.638671875 556 l 2,22,23
 34.6416015625 560 34.6416015625 560 30.6416015625 560 c 2,24,-1
 -29.3583984375 560 l 2,25,26
 -39.3583984375 560 -39.3583984375 560 -41.8525390625 570 c 2,27,-1
 -46.33984375 588 l 2,28,29
 -48.8330078125 598 -48.8330078125 598 -38.8330078125 598 c 2,30,-1
 21.1669921875 598 l 2,31,32
 25.1669921875 598 25.1669921875 598 24.1689453125 602 c 2,33,-1
 2.228515625 690 l 2,34,35
 -0.2646484375 700 -0.2646484375 700 9.7353515625 700 c 2,36,-1
 42.7353515625 700 l 2,37,38
 52.7353515625 700 52.7353515625 700 55.228515625 690 c 2,39,-1
 77.1689453125 602 l 2,40,41
 78.1669921875 598 78.1669921875 598 82.1669921875 598 c 2,42,-1
 249.166992188 598 l 2,43,44
 259.166992188 598 259.166992188 598 261.66015625 588 c 2,45,-1
 266.147460938 570 l 2,46,47
 268.641601562 560 268.641601562 560 258.641601562 560 c 2,48,-1
 91.6416015625 560 l 2,49,50
 87.6416015625 560 87.6416015625 560 88.638671875 556 c 2,51,-1
 116.313476562 445 l 2,52,53
 117.061523438 442 117.061523438 442 118.686523438 441.5 c 128,-1,54
 120.311523438 441 120.311523438 441 120.8125 443 c 0,55,56
 134.584960938 476 134.584960938 476 166.221679688 493.5 c 128,-1,57
 197.858398438 511 197.858398438 511 244.858398438 511 c 0,58,0
 321.858398438 511 321.858398438 511 381.076171875 464 c 128,-1,1
EndSplineSet
Substitution2: "'smcp' Lowercase to Small Capitals in Latin lookup 20 subtable" hbar.sc
Substitution2: "'aalt' Access All Alternates in Latin lookup 0 subtable" hbar.sc
EndChar

StartChar: i
Encoding: 105 105 240
Width: 256
GlyphClass: 2
Flags: W
AnchorPoint: "Anchor-10" 88.0127 0 basechar 0
AnchorPoint: "Anchor-9" 88.0127 0 basechar 0
AnchorPoint: "Anchor-8" 88.0127 0 basechar 0
AnchorPoint: "Anchor-7" 90.3516 504 basechar 0
AnchorPoint: "Anchor-6" 216.013 0 basechar 0
LayerCount: 2
Fore
SplineSet
25.6787109375 619 m 128,-1,1
 8.1884765625 633 8.1884765625 633 2.703125 655 c 256,2,3
 -2.7822265625 677 -2.7822265625 677 7.7275390625 691 c 128,-1,4
 18.236328125 705 18.236328125 705 40.236328125 705 c 256,5,6
 62.236328125 705 62.236328125 705 79.7275390625 691 c 128,-1,7
 97.2177734375 677 97.2177734375 677 102.703125 655 c 256,8,9
 108.188476562 633 108.188476562 633 97.6787109375 619 c 128,-1,10
 87.1689453125 605 87.1689453125 605 65.1689453125 605 c 256,11,0
 43.1689453125 605 43.1689453125 605 25.6787109375 619 c 128,-1,1
184.270507812 11 m 2,13,-1
 63.595703125 495 l 2,14,15
 61.1025390625 505 61.1025390625 505 71.1025390625 505 c 2,16,-1
 104.102539062 505 l 2,17,18
 114.102539062 505 114.102539062 505 116.595703125 495 c 2,19,-1
 237.270507812 11 l 2,20,21
 239.763671875 1 239.763671875 1 229.763671875 1 c 2,22,-1
 196.763671875 1 l 2,23,12
 186.763671875 1 186.763671875 1 184.270507812 11 c 2,13,-1
EndSplineSet
Substitution2: "Single Substitution lookup 22 subtable" dotlessi
Substitution2: "'smcp' Lowercase to Small Capitals in Latin lookup 20 subtable" i.sc
Substitution2: "'locl' Localized Forms in Latin lookup 9 subtable" i.loclTRK
Substitution2: "'locl' Localized Forms in Latin lookup 8 subtable" i.loclTRK
Substitution2: "'locl' Localized Forms in Latin lookup 6 subtable" i.loclTRK
Substitution2: "'locl' Localized Forms in Latin lookup 5 subtable" i.loclTRK
Substitution2: "'locl' Localized Forms in Latin lookup 4 subtable" i.loclTRK
AlternateSubs2: "'aalt' Access All Alternates in Latin lookup 1 subtable" dotlessi i.loclTRK i.sc
EndChar

StartChar: dotlessi
Encoding: 305 305 241
Width: 205
GlyphClass: 2
Flags: W
AnchorPoint: "Anchor-10" 62.8311 0 basechar 0
AnchorPoint: "Anchor-9" 62.8311 0 basechar 0
AnchorPoint: "Anchor-8" 62.8311 0 basechar 0
AnchorPoint: "Anchor-7" 40.1689 504 basechar 0
AnchorPoint: "Anchor-6" 62.8311 0 basechar 0
LayerCount: 2
Fore
SplineSet
136.336914062 10 m 2,1,-1
 15.6630859375 494 l 2,2,3
 13.1689453125 504 13.1689453125 504 23.1689453125 504 c 2,4,-1
 56.1689453125 504 l 2,5,6
 66.1689453125 504 66.1689453125 504 68.6630859375 494 c 2,7,-1
 189.336914062 10 l 2,8,9
 191.831054688 0 191.831054688 0 181.831054688 0 c 2,10,-1
 148.831054688 0 l 2,11,0
 138.831054688 0 138.831054688 0 136.336914062 10 c 2,1,-1
EndSplineSet
EndChar

StartChar: j
Encoding: 106 106 254
Width: 243
GlyphClass: 2
Flags: W
AnchorPoint: "Anchor-10" 61.833 0 basechar 0
AnchorPoint: "Anchor-9" 61.833 0 basechar 0
AnchorPoint: "Anchor-8" 61.833 0 basechar 0
AnchorPoint: "Anchor-7" 51.1719 504 basechar 0
AnchorPoint: "Anchor-6" 61.833 0 basechar 0
LayerCount: 2
Fore
SplineSet
-13.5009765625 619 m 128,-1,1
 -30.9912109375 633 -30.9912109375 633 -36.4765625 655 c 256,2,3
 -41.9619140625 677 -41.9619140625 677 -31.4521484375 691 c 128,-1,4
 -20.943359375 705 -20.943359375 705 1.056640625 705 c 256,5,6
 23.056640625 705 23.056640625 705 40.5478515625 691 c 128,-1,7
 58.0380859375 677 58.0380859375 677 63.5234375 655 c 256,8,9
 69.0087890625 633 69.0087890625 633 58.4990234375 619 c 128,-1,10
 47.990234375 605 47.990234375 605 25.990234375 605 c 256,11,0
 3.990234375 605 3.990234375 605 -13.5009765625 619 c 128,-1,1
82.44921875 -199 m 2,13,-1
 75.966796875 -173 l 2,14,15
 73.4736328125 -163 73.4736328125 -163 83.4736328125 -163 c 0,16,17
 136.224609375 -162 136.224609375 -162 156.743164062 -134 c 128,-1,18
 177.26171875 -106 177.26171875 -106 164.545898438 -55 c 2,19,-1
 26.6650390625 494 l 2,20,21
 24.171875 504 24.171875 504 34.171875 504 c 2,22,-1
 67.171875 504 l 2,23,24
 77.171875 504 77.171875 504 79.6650390625 494 c 2,25,-1
 216.545898438 -55 l 2,26,27
 235.745117188 -132 235.745117188 -132 205.71875 -170 c 128,-1,28
 175.693359375 -208 175.693359375 -208 94.943359375 -209 c 0,29,12
 84.943359375 -209 84.943359375 -209 82.44921875 -199 c 2,13,-1
EndSplineSet
Substitution2: "Single Substitution lookup 22 subtable" uni0237
Substitution2: "'smcp' Lowercase to Small Capitals in Latin lookup 20 subtable" j.sc
AlternateSubs2: "'aalt' Access All Alternates in Latin lookup 1 subtable" uni0237 j.sc
EndChar

StartChar: uni0237
Encoding: 567 567 255
Width: 237
GlyphClass: 2
Flags: W
AnchorPoint: "Anchor-10" 36.7764 0 basechar 0
AnchorPoint: "Anchor-9" 36.7764 0 basechar 0
AnchorPoint: "Anchor-8" 36.7764 0 basechar 0
AnchorPoint: "Anchor-7" 26.1143 504 basechar 0
AnchorPoint: "Anchor-6" 36.7764 0 basechar 0
LayerCount: 2
Fore
SplineSet
57.392578125 -199 m 2,1,-1
 50.9091796875 -173 l 2,2,3
 48.416015625 -163 48.416015625 -163 58.416015625 -163 c 0,4,5
 111.166992188 -162 111.166992188 -162 131.685546875 -134 c 128,-1,6
 152.205078125 -106 152.205078125 -106 139.489257812 -55 c 2,7,-1
 1.607421875 494 l 2,8,9
 -0.8857421875 504 -0.8857421875 504 9.1142578125 504 c 2,10,-1
 43.1142578125 504 l 2,11,12
 53.1142578125 504 53.1142578125 504 55.607421875 494 c 2,13,-1
 192.489257812 -55 l 2,14,15
 211.6875 -132 211.6875 -132 181.662109375 -170 c 128,-1,16
 151.635742188 -208 151.635742188 -208 69.8857421875 -209 c 0,17,0
 59.8857421875 -209 59.8857421875 -209 57.392578125 -199 c 2,1,-1
EndSplineSet
EndChar

StartChar: k
Encoding: 107 107 257
Width: 492
GlyphClass: 2
Flags: W
AnchorPoint: "Anchor-10" 87.2646 0 basechar 0
AnchorPoint: "Anchor-9" 87.2646 0 basechar 0
AnchorPoint: "Anchor-8" 87.2646 0 basechar 0
AnchorPoint: "Anchor-7" 87.2646 0 basechar 0
AnchorPoint: "Anchor-6" 353.265 0 basechar 0
LayerCount: 2
Fore
SplineSet
171.771484375 10 m 2,1,-1
 2.228515625 690 l 2,2,3
 -0.2646484375 700 -0.2646484375 700 9.7353515625 700 c 2,4,-1
 42.7353515625 700 l 2,5,6
 52.7353515625 700 52.7353515625 700 55.228515625 690 c 2,7,-1
 161.69140625 263 l 2,8,9
 162.190429688 261 162.190429688 261 163.939453125 260 c 128,-1,10
 165.688476562 259 165.688476562 259 167.190429688 261 c 2,11,-1
 338.850585938 499 l 2,12,13
 342.603515625 504 342.603515625 504 349.603515625 504 c 2,14,-1
 389.603515625 504 l 2,15,16
 395.603515625 504 395.603515625 504 397.9765625 500.5 c 128,-1,17
 400.348632812 497 400.348632812 497 397.595703125 492 c 2,18,-1
 304.50390625 356 l 2,19,20
 303.002929688 354 303.002929688 354 304.750976562 351 c 2,21,-1
 543.272460938 12 l 1,22,-1
 545.270507812 8 l 2,23,24
 547.264648438 0 547.264648438 0 538.264648438 0 c 2,25,-1
 503.264648438 0 l 2,26,27
 495.264648438 0 495.264648438 0 490.270507812 8 c 2,28,-1
 277.7265625 315 l 2,29,30
 274.729492188 319 274.729492188 319 272.477539062 316 c 2,31,-1
 181.892578125 190 l 2,32,33
 180.391601562 188 180.391601562 188 181.138671875 185 c 2,34,-1
 224.771484375 10 l 2,35,36
 227.264648438 0 227.264648438 0 217.264648438 0 c 2,37,-1
 184.264648438 0 l 2,38,0
 174.264648438 0 174.264648438 0 171.771484375 10 c 2,1,-1
EndSplineSet
Substitution2: "'smcp' Lowercase to Small Capitals in Latin lookup 20 subtable" k.sc
Substitution2: "'aalt' Access All Alternates in Latin lookup 0 subtable" k.sc
EndChar

StartChar: l
Encoding: 108 108 259
Width: 226
GlyphClass: 2
Flags: W
AnchorPoint: "Anchor-10" 87.2646 0 basechar 0
AnchorPoint: "Anchor-9" 87.2646 0 basechar 0
AnchorPoint: "Anchor-8" 87.2646 0 basechar 0
AnchorPoint: "Anchor-7" 26.7354 700 basechar 0
AnchorPoint: "Anchor-6" 87.2646 0 basechar 0
LayerCount: 2
Fore
SplineSet
171.771484375 10 m 2,1,-1
 2.228515625 690 l 2,2,3
 -0.2646484375 700 -0.2646484375 700 9.7353515625 700 c 2,4,-1
 42.7353515625 700 l 2,5,6
 52.7353515625 700 52.7353515625 700 55.228515625 690 c 2,7,-1
 224.771484375 10 l 2,8,9
 227.264648438 0 227.264648438 0 217.264648438 0 c 2,10,-1
 184.264648438 0 l 2,11,0
 174.264648438 0 174.264648438 0 171.771484375 10 c 2,1,-1
EndSplineSet
Substitution2: "'smcp' Lowercase to Small Capitals in Latin lookup 20 subtable" l.sc
Substitution2: "'aalt' Access All Alternates in Latin lookup 0 subtable" l.sc
EndChar

StartChar: lslash
Encoding: 322 322 264
Width: 318
GlyphClass: 2
Flags: W
AnchorPoint: "Anchor-10" 87.2646 0 basechar 0
AnchorPoint: "Anchor-9" 87.2646 0 basechar 0
AnchorPoint: "Anchor-8" 87.2646 0 basechar 0
AnchorPoint: "Anchor-7" 67.7354 700 basechar 0
AnchorPoint: "Anchor-6" 87.2646 0 basechar 0
LayerCount: 2
Fore
SplineSet
276.040039062 410 m 0,1,2
 277.038085938 406 277.038085938 406 272.78515625 403 c 2,3,-1
 185.493164062 340 l 2,4,5
 182.7421875 339 182.7421875 339 183.740234375 335 c 2,6,-1
 264.771484375 10 l 2,7,8
 267.264648438 0 267.264648438 0 257.264648438 0 c 2,9,-1
 224.264648438 0 l 2,10,11
 214.264648438 0 214.264648438 0 211.771484375 10 c 2,12,-1
 139.715820312 299 l 2,13,14
 139.216796875 301 139.216796875 301 137.467773438 302 c 128,-1,15
 135.71875 303 135.71875 303 133.967773438 302 c 2,16,-1
 76.439453125 260 l 1,17,-1
 71.9384765625 258 l 2,18,19
 66.9384765625 258 66.9384765625 258 61.4423828125 264 c 2,20,-1
 45.705078125 283 l 2,21,22
 42.7080078125 287 42.7080078125 287 42.208984375 289 c 0,23,24
 40.712890625 295 40.712890625 295 45.21484375 297 c 2,25,-1
 123.002929688 354 l 2,26,27
 125.50390625 356 125.50390625 356 124.755859375 359 c 2,28,-1
 42.228515625 690 l 2,29,30
 39.7353515625 700 39.7353515625 700 49.7353515625 700 c 2,31,-1
 82.7353515625 700 l 2,32,33
 92.7353515625 700 92.7353515625 700 95.228515625 690 c 2,34,-1
 169.029296875 394 l 2,35,36
 169.528320312 392 169.528320312 392 171.77734375 391 c 128,-1,37
 174.02734375 390 174.02734375 390 174.77734375 391 c 2,38,-1
 240.560546875 440 l 2,39,40
 244.061523438 442 244.061523438 442 246.061523438 442 c 0,41,42
 251.061523438 442 251.061523438 442 255.557617188 436 c 2,43,-1
 272.294921875 417 l 2,44,0
 275.291992188 413 275.291992188 413 276.040039062 410 c 0,1,2
EndSplineSet
Substitution2: "'smcp' Lowercase to Small Capitals in Latin lookup 20 subtable" lslash.sc
Substitution2: "'aalt' Access All Alternates in Latin lookup 0 subtable" lslash.sc
EndChar

StartChar: m
Encoding: 109 109 265
Width: 827
GlyphClass: 1
Flags: W
LayerCount: 2
Fore
SplineSet
651.267578125 467 m 128,-1,1
 706.237304688 423 706.237304688 423 725.435546875 346 c 2,2,-1
 809.209960938 10 l 2,3,4
 811.703125 0 811.703125 0 801.703125 0 c 2,5,-1
 769.703125 0 l 2,6,7
 759.703125 0 759.703125 0 757.209960938 10 c 2,8,-1
 675.928710938 336 l 2,9,10
 661.21875 395 661.21875 395 618.1171875 429.5 c 128,-1,11
 575.014648438 464 575.014648438 464 520.014648438 464 c 0,12,13
 462.014648438 464 462.014648438 464 434.9921875 430 c 128,-1,14
 407.969726562 396 407.969726562 396 422.430664062 338 c 2,15,-1
 504.209960938 10 l 2,16,17
 506.703125 0 506.703125 0 496.703125 0 c 2,18,-1
 464.703125 0 l 2,19,20
 454.703125 0 454.703125 0 452.209960938 10 c 2,21,-1
 370.928710938 336 l 2,22,23
 356.21875 395 356.21875 395 313.6171875 429.5 c 128,-1,24
 271.014648438 464 271.014648438 464 216.014648438 464 c 0,25,26
 157.014648438 464 157.014648438 464 130.9921875 430 c 128,-1,27
 104.969726562 396 104.969726562 396 119.430664062 338 c 2,28,-1
 201.209960938 10 l 2,29,30
 203.703125 0 203.703125 0 193.703125 0 c 2,31,-1
 160.703125 0 l 2,32,33
 150.703125 0 150.703125 0 148.209960938 10 c 2,34,-1
 27.53515625 494 l 2,35,36
 25.0419921875 504 25.0419921875 504 35.0419921875 504 c 2,37,-1
 68.0419921875 504 l 2,38,39
 78.0419921875 504 78.0419921875 504 80.53515625 494 c 2,40,-1
 91.7548828125 449 l 2,41,42
 92.25390625 447 92.25390625 447 94.5029296875 446 c 128,-1,43
 96.751953125 445 96.751953125 445 97.25390625 447 c 0,44,45
 110.275390625 479 110.275390625 479 141.786132812 495 c 128,-1,46
 173.296875 511 173.296875 511 218.296875 511 c 0,47,48
 270.296875 511 270.296875 511 313.40625 488.5 c 128,-1,49
 356.516601562 466 356.516601562 466 385.739257812 425 c 0,50,51
 388.736328125 421 388.736328125 421 390.98828125 424 c 0,52,53
 401.267578125 467 401.267578125 467 435.782226562 489 c 128,-1,54
 470.296875 511 470.296875 511 523.296875 511 c 0,55,0
 596.296875 511 596.296875 511 651.267578125 467 c 128,-1,1
EndSplineSet
Substitution2: "'smcp' Lowercase to Small Capitals in Latin lookup 20 subtable" m.sc
Substitution2: "'aalt' Access All Alternates in Latin lookup 0 subtable" m.sc
EndChar

StartChar: n
Encoding: 110 110 266
Width: 537
GlyphClass: 2
Flags: W
AnchorPoint: "Anchor-10" 63.7031 0 basechar 0
AnchorPoint: "Anchor-9" 63.7031 0 basechar 0
AnchorPoint: "Anchor-8" 63.7031 0 basechar 0
AnchorPoint: "Anchor-7" 207.042 504 basechar 0
AnchorPoint: "Anchor-6" 341.703 0 basechar 0
LayerCount: 2
Fore
SplineSet
357.514648438 464 m 128,-1,1
 416.733398438 417 416.733398438 417 435.931640625 340 c 2,2,-1
 518.209960938 10 l 2,3,4
 520.703125 0 520.703125 0 510.703125 0 c 2,5,-1
 477.703125 0 l 2,6,7
 467.703125 0 467.703125 0 465.209960938 10 c 2,8,-1
 385.424804688 330 l 2,9,10
 370.71484375 389 370.71484375 389 325.365234375 426.5 c 128,-1,11
 280.014648438 464 280.014648438 464 222.014648438 464 c 0,12,13
 162.014648438 464 162.014648438 464 134.115234375 427.5 c 128,-1,14
 106.215820312 391 106.215820312 391 120.926757812 332 c 2,15,-1
 201.209960938 10 l 2,16,17
 203.703125 0 203.703125 0 193.703125 0 c 2,18,-1
 160.703125 0 l 2,19,20
 150.703125 0 150.703125 0 148.209960938 10 c 2,21,-1
 27.53515625 494 l 2,22,23
 25.0419921875 504 25.0419921875 504 35.0419921875 504 c 2,24,-1
 68.0419921875 504 l 2,25,26
 78.0419921875 504 78.0419921875 504 80.53515625 494 c 2,27,-1
 92.751953125 445 l 2,28,29
 93.5 442 93.5 442 95.125 441.5 c 128,-1,30
 96.75 441 96.75 441 97.2509765625 443 c 0,31,32
 111.0234375 476 111.0234375 476 142.66015625 493.5 c 128,-1,33
 174.296875 511 174.296875 511 221.296875 511 c 0,34,0
 298.296875 511 298.296875 511 357.514648438 464 c 128,-1,1
EndSplineSet
Substitution2: "'smcp' Lowercase to Small Capitals in Latin lookup 20 subtable" n.sc
Substitution2: "'aalt' Access All Alternates in Latin lookup 0 subtable" n.sc
EndChar

StartChar: eng
Encoding: 331 331 269
Width: 538
GlyphClass: 2
Flags: W
AnchorPoint: "Anchor-10" 42.7598 0 basechar 0
AnchorPoint: "Anchor-9" 42.7598 0 basechar 0
AnchorPoint: "Anchor-8" 42.7598 0 basechar 0
AnchorPoint: "Anchor-7" 186.099 504 basechar 0
AnchorPoint: "Anchor-6" 320.76 0 basechar 0
LayerCount: 2
Fore
SplineSet
449.896484375 204 m 1,0,-1
 450.896484375 204 l 1,1,-1
 505.25 -14 l 2,2,3
 523.700195312 -88 523.700195312 -88 500.424804688 -127 c 128,-1,4
 477.1484375 -166 477.1484375 -166 404.646484375 -168 c 0,5,6
 394.646484375 -168 394.646484375 -168 392.153320312 -158 c 2,7,-1
 386.169921875 -134 l 2,8,9
 383.676757812 -124 383.676757812 -124 393.676757812 -124 c 0,10,11
 435.678710938 -120 435.678710938 -120 450.198242188 -92 c 128,-1,12
 464.716796875 -64 464.716796875 -64 452.5 -15 c 2,13,-1
 449.756835938 -4 l 1,14,-1
 447.759765625 0 l 1,15,-1
 446.759765625 0 l 1,16,-1
 364.481445312 330 l 2,17,18
 349.771484375 389 349.771484375 389 304.420898438 426.5 c 128,-1,19
 259.071289062 464 259.071289062 464 201.071289062 464 c 0,20,21
 141.071289062 464 141.071289062 464 113.171875 427.5 c 128,-1,22
 85.2724609375 391 85.2724609375 391 99.982421875 332 c 2,23,-1
 180.266601562 10 l 2,24,25
 182.759765625 0 182.759765625 0 172.759765625 0 c 2,26,-1
 139.759765625 0 l 2,27,28
 129.759765625 0 129.759765625 0 127.266601562 10 c 2,29,-1
 6.591796875 494 l 2,30,31
 4.0986328125 504 4.0986328125 504 14.0986328125 504 c 2,32,-1
 47.0986328125 504 l 2,33,34
 57.0986328125 504 57.0986328125 504 59.591796875 494 c 2,35,-1
 71.80859375 445 l 2,36,37
 72.556640625 442 72.556640625 442 74.681640625 441.5 c 128,-1,38
 76.8056640625 441 76.8056640625 441 77.05859375 444 c 0,39,40
 90.830078125 477 90.830078125 477 122.091796875 494 c 128,-1,41
 153.353515625 511 153.353515625 511 200.353515625 511 c 0,42,43
 277.353515625 511 277.353515625 511 336.571289062 464 c 128,-1,44
 395.790039062 417 395.790039062 417 414.98828125 340 c 2,45,-1
 447.899414062 208 l 1,46,-1
 449.896484375 204 l 1,0,-1
EndSplineSet
Substitution2: "'smcp' Lowercase to Small Capitals in Latin lookup 20 subtable" eng.sc
Substitution2: "'aalt' Access All Alternates in Latin lookup 0 subtable" eng.sc
EndChar

StartChar: o
Encoding: 111 111 271
Width: 539
GlyphClass: 2
Flags: W
AnchorPoint: "Anchor-10" 62.8311 0 basechar 0
AnchorPoint: "Anchor-9" 311.169 504 basechar 0
AnchorPoint: "Anchor-8" 62.8311 0 basechar 0
AnchorPoint: "Anchor-7" 206.169 504 basechar 0
AnchorPoint: "Anchor-6" 332.831 0 basechar 0
LayerCount: 2
Fore
SplineSet
204.600585938 29 m 128,-1,1
 145.375 66 145.375 66 111.916992188 128 c 0,2,3
 90.943359375 168 90.943359375 168 69.7509765625 253 c 256,4,5
 48.5576171875 338 48.5576171875 338 49.833984375 377 c 0,6,7
 52.3759765625 439 52.3759765625 439 92.775390625 475.5 c 128,-1,8
 133.174804688 512 133.174804688 512 205.174804688 512 c 0,9,10
 275.174804688 512 275.174804688 512 334.899414062 475 c 128,-1,11
 394.625 438 394.625 438 426.833984375 377 c 0,12,13
 438.568359375 354 438.568359375 354 447.674804688 325.5 c 128,-1,14
 456.780273438 297 456.780273438 297 467.750976562 253 c 0,15,16
 479.219726562 207 479.219726562 207 484.201171875 179 c 128,-1,17
 489.181640625 151 489.181640625 151 488.916992188 128 c 0,18,19
 487.375 66 487.375 66 446.100585938 29 c 128,-1,20
 404.825195312 -8 404.825195312 -8 333.825195312 -8 c 0,21,0
 263.825195312 -8 263.825195312 -8 204.600585938 29 c 128,-1,1
405.251953125 68.5 m 128,-1,23
 435.396484375 98 435.396484375 98 434.428710938 146 c 0,24,25
 434.697265625 173 434.697265625 173 415 252 c 0,26,27
 395.053710938 332 395.053710938 332 382.571289062 358 c 0,28,29
 359.354492188 407 359.354492188 407 314.624023438 436 c 128,-1,30
 269.893554688 465 269.893554688 465 215.893554688 465 c 256,31,32
 161.893554688 465 161.893554688 465 132.124023438 436 c 128,-1,33
 102.354492188 407 102.354492188 407 103.571289062 358 c 0,34,35
 104.30078125 327 104.30078125 327 123 252 c 256,36,37
 141.69921875 177 141.69921875 177 156.428710938 146 c 0,38,39
 179.645507812 97 179.645507812 97 223.875976562 68 c 128,-1,40
 268.106445312 39 268.106445312 39 322.106445312 39 c 0,41,22
 375.106445312 39 375.106445312 39 405.251953125 68.5 c 128,-1,23
EndSplineSet
Substitution2: "Single Substitution lookup 24 subtable" ordmasculine
Substitution2: "'smcp' Lowercase to Small Capitals in Latin lookup 20 subtable" o.sc
AlternateSubs2: "'aalt' Access All Alternates in Latin lookup 1 subtable" ordmasculine o.sc
EndChar

StartChar: ohorn
Encoding: 417 417 284
Width: 533
GlyphClass: 2
Flags: W
AnchorPoint: "Anchor-10" 71.6816 0 basechar 0
AnchorPoint: "Anchor-9" 329.021 504 basechar 0
AnchorPoint: "Anchor-8" 71.6816 0 basechar 0
AnchorPoint: "Anchor-7" 215.021 504 basechar 0
AnchorPoint: "Anchor-6" 341.682 0 basechar 0
LayerCount: 2
Fore
SplineSet
456.525390625 325.5 m 128,-1,1
 465.631835938 297 465.631835938 297 476.6015625 253 c 0,2,3
 488.071289062 207 488.071289062 207 493.051757812 179 c 128,-1,4
 498.033203125 151 498.033203125 151 497.767578125 128 c 0,5,6
 496.2265625 66 496.2265625 66 454.951171875 29 c 128,-1,7
 413.676757812 -8 413.676757812 -8 342.676757812 -8 c 0,8,9
 272.676757812 -8 272.676757812 -8 213.451171875 29 c 128,-1,10
 154.2265625 66 154.2265625 66 120.767578125 128 c 0,11,12
 99.794921875 168 99.794921875 168 78.6015625 253 c 256,13,14
 57.4091796875 338 57.4091796875 338 58.685546875 377 c 0,15,16
 61.2265625 439 61.2265625 439 101.625976562 475.5 c 128,-1,17
 142.025390625 512 142.025390625 512 214.025390625 512 c 0,18,19
 239.025390625 512 239.025390625 512 273.771484375 505 c 0,20,21
 275.020507812 504 275.020507812 504 279.020507812 504 c 0,22,23
 304.272460938 507 304.272460938 507 319.284179688 525 c 128,-1,24
 334.296875 543 334.296875 543 330.81640625 573 c 0,25,26
 328.323242188 583 328.323242188 583 338.323242188 583 c 2,27,-1
 357.323242188 583 l 2,28,29
 367.323242188 583 367.323242188 583 369.81640625 573 c 0,30,31
 374.047851562 544 374.047851562 544 364.782226562 521 c 128,-1,32
 355.516601562 498 355.516601562 498 335.7578125 485 c 0,33,34
 332.006835938 484 332.006835938 484 336.00390625 480 c 0,35,36
 401.229492188 443 401.229492188 443 435.685546875 377 c 0,37,0
 447.419921875 354 447.419921875 354 456.525390625 325.5 c 128,-1,1
423.8515625 252 m 0,39,40
 403.905273438 332 403.905273438 332 391.422851562 358 c 0,41,42
 368.205078125 407 368.205078125 407 323.474609375 436 c 128,-1,43
 278.744140625 465 278.744140625 465 224.744140625 465 c 256,44,45
 170.744140625 465 170.744140625 465 140.974609375 436 c 128,-1,46
 111.205078125 407 111.205078125 407 112.422851562 358 c 0,47,48
 113.151367188 327 113.151367188 327 131.8515625 252 c 256,49,50
 150.55078125 177 150.55078125 177 165.280273438 146 c 0,51,52
 188.497070312 97 188.497070312 97 232.727539062 68 c 128,-1,53
 276.958007812 39 276.958007812 39 330.958007812 39 c 0,54,55
 383.958007812 39 383.958007812 39 414.102539062 68.5 c 128,-1,56
 444.248046875 98 444.248046875 98 443.280273438 146 c 0,57,38
 443.547851562 173 443.547851562 173 423.8515625 252 c 0,39,40
EndSplineSet
EndChar

StartChar: oslash
Encoding: 248 248 292
Width: 527
GlyphClass: 2
Flags: W
AnchorPoint: "Anchor-10" 63.7031 0 basechar 0
AnchorPoint: "Anchor-9" 308.042 504 basechar 0
AnchorPoint: "Anchor-8" 63.7031 0 basechar 0
AnchorPoint: "Anchor-7" 203.042 504 basechar 0
AnchorPoint: "Anchor-6" 329.703 0 basechar 0
LayerCount: 2
Fore
SplineSet
465.623046875 253 m 0,1,2
 486.81640625 168 486.81640625 168 485.7890625 128 c 0,3,4
 484.248046875 66 484.248046875 66 442.97265625 29 c 128,-1,5
 401.698242188 -8 401.698242188 -8 331.698242188 -8 c 0,6,7
 260.698242188 -8 260.698242188 -8 199.223632812 30 c 0,8,9
 195.475585938 33 195.475585938 33 194.223632812 30 c 2,10,-1
 174.692382812 -16 l 2,11,12
 173.689453125 -20 173.689453125 -20 169.939453125 -21 c 128,-1,13
 166.188476562 -22 166.188476562 -22 161.440429688 -19 c 2,14,-1
 133.952148438 -1 l 2,15,16
 124.45703125 5 124.45703125 5 127.461914062 13 c 2,17,-1
 150.248046875 66 l 2,18,19
 151.5 69 151.5 69 148.751953125 72 c 0,20,21
 126.518554688 97 126.518554688 97 109.7890625 128 c 0,22,23
 87.81640625 168 87.81640625 168 66.623046875 253 c 0,24,25
 46.6767578125 333 46.6767578125 333 46.70703125 377 c 0,26,27
 49.248046875 439 49.248046875 439 90.1474609375 475.5 c 128,-1,28
 131.047851562 512 131.047851562 512 202.047851562 512 c 0,29,30
 265.047851562 512 265.047851562 512 322.776367188 481 c 0,31,32
 327.275390625 479 327.275390625 479 327.52734375 482 c 2,33,-1
 346.307617188 527 l 2,34,35
 347.310546875 531 347.310546875 531 351.060546875 532 c 128,-1,36
 354.811523438 533 354.811523438 533 359.559570312 530 c 2,37,-1
 388.047851562 512 l 2,38,39
 397.54296875 506 397.54296875 506 394.538085938 498 c 2,40,-1
 373.00390625 448 l 2,41,42
 372.751953125 445 372.751953125 445 374.5 442 c 0,43,44
 403.232421875 415 403.232421875 415 423.70703125 377 c 0,45,0
 444.6796875 337 444.6796875 337 465.623046875 253 c 0,1,2
167.534179688 121 m 0,47,48
 169.78125 116 169.78125 116 172.784179688 120 c 2,49,-1
 307.24609375 435 l 2,50,51
 308.248046875 439 308.248046875 439 304.999023438 440 c 0,52,53
 261.765625 465 261.765625 465 212.765625 465 c 0,54,55
 158.765625 465 158.765625 465 128.99609375 436 c 128,-1,56
 99.2265625 407 99.2265625 407 100.444335938 358 c 0,57,58
 100.926757812 332 100.926757812 332 120.873046875 252 c 256,59,60
 140.819335938 172 140.819335938 172 153.301757812 146 c 0,61,46
 157.544921875 137 157.544921875 137 167.534179688 121 c 0,47,48
411.873046875 252 m 0,63,64
 391.926757812 332 391.926757812 332 379.444335938 358 c 0,65,66
 364.9609375 384 364.9609375 384 356.21875 395 c 0,67,68
 352.221679688 399 352.221679688 399 349.969726562 396 c 2,69,-1
 214.75390625 76 l 2,70,71
 213.751953125 72 213.751953125 72 217.000976562 71 c 0,72,73
 262.979492188 39 262.979492188 39 319.979492188 39 c 0,74,75
 372.979492188 39 372.979492188 39 403.249023438 68 c 128,-1,76
 433.518554688 97 433.518554688 97 432.301757812 146 c 0,77,62
 431.3203125 174 431.3203125 174 411.873046875 252 c 0,63,64
EndSplineSet
Substitution2: "'smcp' Lowercase to Small Capitals in Latin lookup 20 subtable" oslash.sc
Substitution2: "'aalt' Access All Alternates in Latin lookup 0 subtable" oslash.sc
EndChar

StartChar: oe
Encoding: 339 339 295
Width: 854
GlyphClass: 1
Flags: W
LayerCount: 2
Fore
SplineSet
729.74609375 60.5 m 128,-1,1
 759.13671875 83 759.13671875 83 765.911132812 120 c 0,2,3
 768.666992188 129 768.666992188 129 777.665039062 125 c 2,4,-1
 801.158203125 115 l 2,5,6
 811.404296875 110 811.404296875 110 810.399414062 102 c 0,7,8
 802.115234375 51 802.115234375 51 762.969726562 21.5 c 128,-1,9
 723.825195312 -8 723.825195312 -8 661.825195312 -8 c 0,10,11
 606.825195312 -8 606.825195312 -8 557.591796875 17 c 128,-1,12
 508.358398438 42 508.358398438 42 473.88671875 84 c 0,13,14
 469.640625 89 469.640625 89 467.88671875 84 c 0,15,16
 454.358398438 42 454.358398438 42 417.091796875 17 c 128,-1,17
 379.825195312 -8 379.825195312 -8 325.825195312 -8 c 0,18,19
 256.825195312 -8 256.825195312 -8 199.600585938 29 c 128,-1,20
 142.375 66 142.375 66 109.916992188 128 c 0,21,22
 98.181640625 151 98.181640625 151 90.0751953125 177.5 c 128,-1,23
 81.9677734375 204 81.9677734375 204 69.7509765625 253 c 0,24,25
 58.0322265625 300 58.0322265625 300 52.67578125 327.5 c 128,-1,26
 47.3193359375 355 47.3193359375 355 47.833984375 377 c 0,27,28
 48.625 438 48.625 438 88.3994140625 475 c 128,-1,29
 128.174804688 512 128.174804688 512 196.174804688 512 c 0,30,31
 250.174804688 512 250.174804688 512 299.408203125 487 c 128,-1,32
 348.641601562 462 348.641601562 462 384.11328125 420 c 0,33,34
 388.110351562 416 388.110351562 416 390.11328125 420 c 0,35,36
 402.641601562 462 402.641601562 462 439.408203125 487 c 128,-1,37
 476.174804688 512 476.174804688 512 529.174804688 512 c 0,38,39
 598.174804688 512 598.174804688 512 657.524414062 474.5 c 128,-1,40
 716.874023438 437 716.874023438 437 748.083007812 376 c 0,41,42
 758.0703125 356 758.0703125 356 766.302734375 331 c 128,-1,43
 774.536132812 306 774.536132812 306 788.748046875 249 c 0,44,45
 791.490234375 238 791.490234375 238 781.490234375 238 c 2,46,-1
 463.490234375 238 l 2,47,48
 459.490234375 238 459.490234375 238 460.48828125 234 c 0,49,50
 467.71875 205 467.71875 205 474.577148438 181.5 c 128,-1,51
 481.436523438 158 481.436523438 158 487.428710938 146 c 0,52,53
 509.895507812 96 509.895507812 96 554.125976562 67 c 128,-1,54
 598.356445312 38 598.356445312 38 655.356445312 38 c 0,55,0
 700.356445312 38 700.356445312 38 729.74609375 60.5 c 128,-1,1
414.583007812 189.5 m 128,-1,57
 408.227539062 219 408.227539062 219 400 252 c 0,58,59
 391.024414062 288 391.024414062 288 383.04296875 316 c 128,-1,60
 375.061523438 344 375.061523438 344 368.571289062 358 c 0,61,62
 347.603515625 406 347.603515625 406 304.248046875 435.5 c 128,-1,63
 260.893554688 465 260.893554688 465 207.893554688 465 c 0,64,65
 155.893554688 465 155.893554688 465 128.248046875 435.5 c 128,-1,66
 100.603515625 406 100.603515625 406 102.571289062 358 c 0,67,68
 102.8046875 333 102.8046875 333 123 252 c 256,69,70
 143.1953125 171 143.1953125 171 155.428710938 146 c 0,71,72
 177.645507812 97 177.645507812 97 219.875976562 68 c 128,-1,73
 262.106445312 39 262.106445312 39 314.106445312 39 c 0,74,75
 367.106445312 39 367.106445312 39 395.751953125 68.5 c 128,-1,76
 424.396484375 98 424.396484375 98 421.428710938 146 c 0,77,56
 420.938476562 160 420.938476562 160 414.583007812 189.5 c 128,-1,57
448.76953125 281 m 0,79,80
 449.766601562 277 449.766601562 277 453.766601562 277 c 2,81,-1
 723.766601562 277 l 2,82,83
 727.766601562 277 727.766601562 277 726.76953125 281 c 0,84,85
 714.302734375 331 714.302734375 331 702.571289062 358 c 0,86,87
 680.603515625 406 680.603515625 406 637.248046875 435.5 c 128,-1,88
 593.893554688 465 593.893554688 465 540.893554688 465 c 0,89,90
 488.893554688 465 488.893554688 465 460.748046875 435.5 c 128,-1,91
 432.603515625 406 432.603515625 406 434.571289062 358 c 0,92,78
 436.302734375 331 436.302734375 331 448.76953125 281 c 0,79,80
EndSplineSet
Substitution2: "'smcp' Lowercase to Small Capitals in Latin lookup 20 subtable" oe.sc
Substitution2: "'aalt' Access All Alternates in Latin lookup 0 subtable" oe.sc
EndChar

StartChar: p
Encoding: 112 112 296
Width: 548
GlyphClass: 1
Flags: W
LayerCount: 2
Fore
SplineSet
432.739257812 327.5 m 128,-1,1
 441.844726562 299 441.844726562 299 453.313476562 253 c 256,2,3
 464.783203125 207 464.783203125 207 469.888671875 178.5 c 128,-1,4
 474.994140625 150 474.994140625 150 474.729492188 127 c 0,5,6
 475.1875 65 475.1875 65 436.788085938 28.5 c 128,-1,7
 398.388671875 -8 398.388671875 -8 328.388671875 -8 c 0,8,9
 284.388671875 -8 284.388671875 -8 245.525390625 9.5 c 128,-1,10
 206.662109375 27 206.662109375 27 177.434570312 60 c 0,11,12
 174.935546875 62 174.935546875 62 173.560546875 61.5 c 128,-1,13
 172.184570312 61 172.184570312 61 172.932617188 58 c 2,14,-1
 233.768554688 -186 l 2,15,16
 236.26171875 -196 236.26171875 -196 226.26171875 -196 c 2,17,-1
 193.26171875 -196 l 2,18,19
 183.26171875 -196 183.26171875 -196 180.768554688 -186 c 2,20,-1
 11.2255859375 494 l 2,21,22
 8.732421875 504 8.732421875 504 18.732421875 504 c 2,23,-1
 51.732421875 504 l 2,24,25
 61.732421875 504 61.732421875 504 64.2255859375 494 c 2,26,-1
 76.193359375 446 l 2,27,28
 76.94140625 443 76.94140625 443 78.56640625 442.5 c 128,-1,29
 80.1904296875 442 80.1904296875 442 81.6923828125 444 c 0,30,31
 94.46484375 477 94.46484375 477 124.6015625 494.5 c 128,-1,32
 154.73828125 512 154.73828125 512 198.73828125 512 c 0,33,34
 266.73828125 512 266.73828125 512 322.713867188 476 c 128,-1,35
 378.689453125 440 378.689453125 440 410.8984375 379 c 0,36,0
 423.6328125 356 423.6328125 356 432.739257812 327.5 c 128,-1,1
415.734375 135 m 2,37,38
 419.247070312 153 419.247070312 153 416.262695312 177 c 128,-1,39
 413.279296875 201 413.279296875 201 400.563476562 252 c 0,40,41
 387.59765625 304 387.59765625 304 378.739257812 327.5 c 128,-1,42
 369.879882812 351 369.879882812 351 357.893554688 371 c 0,43,44
 337.420898438 413 337.420898438 413 295.938476562 439 c 128,-1,45
 254.456054688 465 254.456054688 465 205.456054688 465 c 0,46,47
 158.456054688 465 158.456054688 465 133.563476562 438.5 c 128,-1,48
 108.670898438 412 108.670898438 412 107.893554688 371 c 0,49,50
 105.380859375 353 105.380859375 353 108.365234375 329 c 128,-1,51
 111.348632812 305 111.348632812 305 124.563476562 252 c 256,52,53
 137.77734375 199 137.77734375 199 146.76171875 175 c 128,-1,54
 155.745117188 151 155.745117188 151 167.731445312 131 c 0,55,56
 188.954101562 90 188.954101562 90 226.8125 64.5 c 128,-1,57
 264.669921875 39 264.669921875 39 311.669921875 39 c 0,58,59
 357.669921875 39 357.669921875 39 384.810546875 62.5 c 128,-1,60
 411.951171875 86 411.951171875 86 414.477539062 124 c 2,61,-1
 415.734375 135 l 2,37,38
EndSplineSet
Substitution2: "'smcp' Lowercase to Small Capitals in Latin lookup 20 subtable" p.sc
Substitution2: "'aalt' Access All Alternates in Latin lookup 0 subtable" p.sc
EndChar

StartChar: thorn
Encoding: 254 254 297
Width: 537
GlyphClass: 1
Flags: W
LayerCount: 2
Fore
SplineSet
445.802734375 329 m 128,-1,1
 454.03515625 302 454.03515625 302 466.750976562 251 c 0,2,3
 478.967773438 202 478.967773438 202 483.950195312 176 c 128,-1,4
 488.932617188 150 488.932617188 150 489.41796875 128 c 0,5,6
 490.626953125 67 490.626953125 67 451.9765625 29.5 c 128,-1,7
 413.326171875 -8 413.326171875 -8 347.326171875 -8 c 0,8,9
 300.326171875 -8 300.326171875 -8 260.46484375 11.5 c 128,-1,10
 220.602539062 31 220.602539062 31 190.875976562 66 c 0,11,12
 188.377929688 68 188.377929688 68 186.877929688 68 c 128,-1,13
 185.377929688 68 185.377929688 68 186.125976562 65 c 2,14,-1
 249.704101562 -190 l 2,15,16
 252.197265625 -200 252.197265625 -200 242.197265625 -200 c 2,17,-1
 209.197265625 -200 l 2,18,19
 199.197265625 -200 199.197265625 -200 196.704101562 -190 c 2,20,-1
 -22.7041015625 690 l 2,21,22
 -25.197265625 700 -25.197265625 700 -15.197265625 700 c 2,23,-1
 17.802734375 700 l 2,24,25
 27.802734375 700 27.802734375 700 30.2958984375 690 c 2,26,-1
 92.6279296875 440 l 2,27,28
 93.3759765625 437 93.3759765625 437 94.8759765625 437 c 128,-1,29
 96.3759765625 437 96.3759765625 437 97.876953125 439 c 0,30,31
 109.150390625 474 109.150390625 474 138.913085938 493 c 128,-1,32
 168.67578125 512 168.67578125 512 215.67578125 512 c 0,33,34
 283.67578125 512 283.67578125 512 339.901367188 475 c 128,-1,35
 396.125976562 438 396.125976562 438 425.836914062 379 c 0,36,0
 437.571289062 356 437.571289062 356 445.802734375 329 c 128,-1,1
427.704101562 181 m 128,-1,38
 424.466796875 200 424.466796875 200 411.500976562 252 c 0,39,40
 398.287109375 305 398.287109375 305 392.049804688 324 c 128,-1,41
 385.8125 343 385.8125 343 378.823242188 359 c 0,42,43
 358.354492188 405 358.354492188 405 313.874023438 435 c 128,-1,44
 269.39453125 465 269.39453125 465 217.39453125 465 c 256,45,46
 165.39453125 465 165.39453125 465 138.75 435.5 c 128,-1,47
 112.104492188 406 112.104492188 406 115.57421875 360 c 2,48,-1
 116.565429688 348 l 1,49,-1
 116.563476562 344 l 1,50,-1
 163.1875 157 l 2,51,52
 163.935546875 154 163.935546875 154 165.184570312 153 c 0,53,54
 166.680664062 147 166.680664062 147 168.1796875 145 c 0,55,56
 188.6484375 99 188.6484375 99 229.627929688 69 c 128,-1,57
 270.608398438 39 270.608398438 39 323.608398438 39 c 256,58,59
 376.608398438 39 376.608398438 39 406.127929688 69 c 128,-1,60
 435.6484375 99 435.6484375 99 432.1796875 145 c 0,61,37
 430.940429688 162 430.940429688 162 427.704101562 181 c 128,-1,38
EndSplineSet
Substitution2: "'smcp' Lowercase to Small Capitals in Latin lookup 20 subtable" thorn.sc
Substitution2: "'aalt' Access All Alternates in Latin lookup 0 subtable" thorn.sc
EndChar

StartChar: q
Encoding: 113 113 298
Width: 548
GlyphClass: 1
Flags: W
LayerCount: 2
Fore
SplineSet
324.732421875 504 m 2,1,-1
 357.732421875 504 l 2,2,3
 367.732421875 504 367.732421875 504 370.225585938 494 c 2,4,-1
 539.768554688 -186 l 2,5,6
 542.26171875 -196 542.26171875 -196 532.26171875 -196 c 2,7,-1
 499.26171875 -196 l 2,8,9
 489.26171875 -196 489.26171875 -196 486.768554688 -186 c 2,10,-1
 425.434570312 60 l 2,11,12
 424.686523438 63 424.686523438 63 422.561523438 63.5 c 128,-1,13
 420.436523438 64 420.436523438 64 420.184570312 61 c 0,14,15
 407.413085938 28 407.413085938 28 376.900390625 10 c 128,-1,16
 346.388671875 -8 346.388671875 -8 302.388671875 -8 c 0,17,18
 232.388671875 -8 232.388671875 -8 175.788085938 28.5 c 128,-1,19
 119.1875 65 119.1875 65 88.7294921875 127 c 0,20,21
 76.994140625 150 76.994140625 150 67.888671875 178.5 c 128,-1,22
 58.783203125 207 58.783203125 207 47.3134765625 253 c 256,23,24
 35.8447265625 299 35.8447265625 299 30.7392578125 327.5 c 128,-1,25
 25.6328125 356 25.6328125 356 26.8984375 379 c 0,26,27
 28.689453125 440 28.689453125 440 66.7138671875 476 c 128,-1,28
 104.73828125 512 104.73828125 512 172.73828125 512 c 0,29,30
 216.73828125 512 216.73828125 512 256.225585938 494 c 128,-1,31
 295.713867188 476 295.713867188 476 324.94140625 443 c 0,32,33
 327.440429688 441 327.440429688 441 328.815429688 441.5 c 128,-1,34
 330.190429688 442 330.190429688 442 329.442382812 445 c 2,35,-1
 317.225585938 494 l 2,36,0
 314.732421875 504 314.732421875 504 324.732421875 504 c 2,1,-1
392.76171875 175 m 128,-1,38
 389.77734375 199 389.77734375 199 376.563476562 252 c 0,39,40
 363.59765625 304 363.59765625 304 355.114257812 328 c 128,-1,41
 346.629882812 352 346.629882812 352 334.893554688 371 c 0,42,43
 312.420898438 413 312.420898438 413 274.438476562 439 c 128,-1,44
 236.456054688 465 236.456054688 465 189.456054688 465 c 0,45,46
 140.456054688 465 140.456054688 465 111.938476562 439 c 128,-1,47
 83.4208984375 413 83.4208984375 413 83.8935546875 371 c 0,48,49
 81.8798828125 351 81.8798828125 351 84.7392578125 327.5 c 128,-1,50
 87.59765625 304 87.59765625 304 100.563476562 252 c 0,51,52
 113.279296875 201 113.279296875 201 122.262695312 177 c 128,-1,53
 131.247070312 153 131.247070312 153 143.734375 135 c 2,54,-1
 150.477539062 124 l 2,55,56
 171.951171875 86 171.951171875 86 211.310546875 62.5 c 128,-1,57
 250.669921875 39 250.669921875 39 296.669921875 39 c 256,58,59
 342.669921875 39 342.669921875 39 367.8125 64.5 c 128,-1,60
 392.954101562 90 392.954101562 90 393.731445312 131 c 0,61,37
 395.745117188 151 395.745117188 151 392.76171875 175 c 128,-1,38
EndSplineSet
Substitution2: "'smcp' Lowercase to Small Capitals in Latin lookup 20 subtable" q.sc
Substitution2: "'aalt' Access All Alternates in Latin lookup 0 subtable" q.sc
EndChar

StartChar: r
Encoding: 114 114 299
Width: 359
GlyphClass: 2
Flags: W
AnchorPoint: "Anchor-10" 63.3291 0 basechar 0
AnchorPoint: "Anchor-9" 63.3291 0 basechar 0
AnchorPoint: "Anchor-8" 63.3291 0 basechar 0
AnchorPoint: "Anchor-7" 154.668 504 basechar 0
AnchorPoint: "Anchor-6" 174.329 0 basechar 0
LayerCount: 2
Fore
SplineSet
274.663085938 496 m 0,1,2
 283.41015625 493 283.41015625 493 283.904296875 483 c 2,3,-1
 282.8828125 451 l 2,4,5
 282.375976562 441 282.375976562 441 271.377929688 445 c 0,6,7
 249.383789062 453 249.383789062 453 219.6328125 452 c 0,8,9
 163.8828125 451 163.8828125 451 137.729492188 409.5 c 128,-1,10
 111.576171875 368 111.576171875 368 126.536132812 308 c 2,11,-1
 200.8359375 10 l 2,12,13
 203.329101562 0 203.329101562 0 193.329101562 0 c 2,14,-1
 160.329101562 0 l 2,15,16
 150.329101562 0 150.329101562 0 147.8359375 10 c 2,17,-1
 27.1611328125 494 l 2,18,19
 24.66796875 504 24.66796875 504 34.66796875 504 c 2,20,-1
 67.66796875 504 l 2,21,22
 77.66796875 504 77.66796875 504 80.1611328125 494 c 2,23,-1
 97.115234375 426 l 2,24,25
 97.86328125 423 97.86328125 423 99.48828125 422.5 c 128,-1,26
 101.11328125 422 101.11328125 422 101.365234375 425 c 0,27,28
 112.641601562 464 112.641601562 464 140.65625 486 c 128,-1,29
 168.670898438 508 168.670898438 508 213.670898438 508 c 0,30,0
 247.670898438 508 247.670898438 508 274.663085938 496 c 0,1,2
EndSplineSet
Substitution2: "'smcp' Lowercase to Small Capitals in Latin lookup 20 subtable" r.sc
Substitution2: "'aalt' Access All Alternates in Latin lookup 0 subtable" r.sc
EndChar

StartChar: s
Encoding: 115 115 302
Width: 477
GlyphClass: 2
Flags: W
AnchorPoint: "Anchor-10" 62.7061 0 basechar 0
AnchorPoint: "Anchor-9" 62.7061 0 basechar 0
AnchorPoint: "Anchor-8" 62.7061 0 basechar 0
AnchorPoint: "Anchor-7" 177.045 504 basechar 0
AnchorPoint: "Anchor-6" 307.952 -5 basechar 0
LayerCount: 2
Fore
SplineSet
208.08984375 12.5 m 128,-1,1
 162.2265625 30 162.2265625 30 131.74609375 60 c 128,-1,2
 101.266601562 90 101.266601562 90 92.291015625 126 c 2,3,-1
 89.0498046875 139 l 2,4,5
 86.5556640625 149 86.5556640625 149 96.5556640625 149 c 2,6,-1
 127.555664062 149 l 2,7,8
 137.555664062 149 137.555664062 149 140.049804688 139 c 2,9,-1
 142.791992188 128 l 2,10,11
 152.017578125 91 152.017578125 91 195.624023438 64.5 c 128,-1,12
 239.231445312 38 239.231445312 38 296.231445312 38 c 0,13,14
 352.231445312 38 352.231445312 38 380.5 65 c 128,-1,15
 408.767578125 92 408.767578125 92 398.794921875 132 c 0,16,17
 391.813476562 160 391.813476562 160 369.325195312 178 c 128,-1,18
 346.837890625 196 346.837890625 196 319.96875 205.5 c 128,-1,19
 293.100585938 215 293.100585938 215 240.360351562 230 c 0,20,21
 180.122070312 247 180.122070312 247 142.381835938 262 c 128,-1,22
 104.642578125 277 104.642578125 277 74.28515625 304.5 c 128,-1,23
 43.9287109375 332 43.9287109375 332 33.45703125 374 c 0,24,25
 18.248046875 435 18.248046875 435 57.6474609375 471.5 c 128,-1,26
 97.0478515625 508 97.0478515625 508 176.047851562 508 c 0,27,28
 229.047851562 508 229.047851562 508 273.91015625 490.5 c 128,-1,29
 318.7734375 473 318.7734375 473 348.75390625 443 c 128,-1,30
 378.733398438 413 378.733398438 413 388.208007812 375 c 2,31,-1
 388.956054688 372 l 2,32,33
 391.44921875 362 391.44921875 362 381.44921875 362 c 2,34,-1
 350.44921875 362 l 2,35,36
 340.44921875 362 340.44921875 362 337.956054688 372 c 2,37,-1
 337.208007812 375 l 2,38,39
 327.733398438 413 327.733398438 413 285.875976562 438.5 c 128,-1,40
 244.017578125 464 244.017578125 464 186.017578125 464 c 0,41,42
 130.017578125 464 130.017578125 464 101.876953125 440.5 c 128,-1,43
 73.736328125 417 73.736328125 417 83.708984375 377 c 0,44,45
 93.18359375 339 93.18359375 339 129.420898438 320 c 128,-1,46
 165.658203125 301 165.658203125 301 237.64453125 281 c 0,47,48
 299.883789062 264 299.883789062 264 338.123046875 249 c 128,-1,49
 376.36328125 234 376.36328125 234 408.219726562 206.5 c 128,-1,50
 440.076171875 179 440.076171875 179 451.046875 135 c 0,51,52
 466.75390625 72 466.75390625 72 427.853515625 33.5 c 128,-1,53
 388.952148438 -5 388.952148438 -5 307.952148438 -5 c 0,54,0
 253.952148438 -5 253.952148438 -5 208.08984375 12.5 c 128,-1,1
EndSplineSet
Substitution2: "'smcp' Lowercase to Small Capitals in Latin lookup 20 subtable" s.sc
Substitution2: "'aalt' Access All Alternates in Latin lookup 0 subtable" s.sc
EndChar

StartChar: scedilla
Encoding: 351 351 305
Width: 479
GlyphClass: 2
Flags: W
AnchorPoint: "Anchor-10" 40.5156 0 basechar 0
AnchorPoint: "Anchor-9" 40.5156 0 basechar 0
AnchorPoint: "Anchor-8" 40.5156 0 basechar 0
AnchorPoint: "Anchor-7" 40.5156 0 basechar 0
AnchorPoint: "Anchor-6" 285.763 -5 basechar 0
LayerCount: 2
Fore
SplineSet
411.91796875 40.5 m 128,-1,1
 380.767578125 3 380.767578125 3 312.263671875 -3 c 0,2,3
 306.512695312 -4 306.512695312 -4 311.510742188 -8 c 0,4,5
 376.48046875 -52 376.48046875 -52 388.947265625 -102 c 0,6,7
 391.939453125 -114 391.939453125 -114 391.432617188 -124 c 0,8,9
 392.162109375 -155 392.162109375 -155 372.65234375 -169 c 128,-1,10
 353.142578125 -183 353.142578125 -183 322.142578125 -183 c 0,11,12
 301.142578125 -183 301.142578125 -183 284.145507812 -179 c 0,13,14
 274.896484375 -178 274.896484375 -178 274.153320312 -167 c 2,15,-1
 273.663085938 -153 l 2,16,17
 272.169921875 -143 272.169921875 -143 283.91796875 -146 c 0,18,19
 298.416015625 -148 298.416015625 -148 305.416015625 -148 c 0,20,21
 350.416015625 -148 350.416015625 -148 347.692382812 -109 c 0,22,23
 347.6953125 -105 347.6953125 -105 345.451171875 -96 c 0,24,25
 334.73046875 -53 334.73046875 -53 267.01171875 -6 c 0,26,27
 265.512695312 -4 265.512695312 -4 261.512695312 -4 c 0,28,29
 189.017578125 2 189.017578125 2 135.791992188 39 c 128,-1,30
 82.56640625 76 82.56640625 76 70.1005859375 126 c 2,31,-1
 66.859375 139 l 2,32,33
 64.3662109375 149 64.3662109375 149 74.3662109375 149 c 2,34,-1
 105.366210938 149 l 2,35,36
 115.366210938 149 115.366210938 149 117.859375 139 c 2,37,-1
 120.6015625 128 l 2,38,39
 129.827148438 91 129.827148438 91 173.434570312 64.5 c 128,-1,40
 217.041015625 38 217.041015625 38 274.041015625 38 c 0,41,42
 330.041015625 38 330.041015625 38 358.309570312 65 c 128,-1,43
 386.577148438 92 386.577148438 92 376.604492188 132 c 0,44,45
 369.623046875 160 369.623046875 160 347.135742188 178 c 128,-1,46
 324.647460938 196 324.647460938 196 297.779296875 205.5 c 128,-1,47
 270.91015625 215 270.91015625 215 218.169921875 230 c 0,48,49
 157.931640625 247 157.931640625 247 120.19140625 262 c 128,-1,50
 82.4521484375 277 82.4521484375 277 52.095703125 304.5 c 128,-1,51
 21.7392578125 332 21.7392578125 332 11.267578125 374 c 0,52,53
 -3.94140625 435 -3.94140625 435 35.4580078125 471.5 c 128,-1,54
 74.857421875 508 74.857421875 508 153.857421875 508 c 0,55,56
 206.857421875 508 206.857421875 508 251.720703125 490.5 c 128,-1,57
 296.583984375 473 296.583984375 473 326.563476562 443 c 128,-1,58
 356.54296875 413 356.54296875 413 366.017578125 375 c 2,59,-1
 366.765625 372 l 2,60,61
 369.258789062 362 369.258789062 362 359.258789062 362 c 2,62,-1
 328.258789062 362 l 2,63,64
 318.258789062 362 318.258789062 362 315.765625 372 c 2,65,-1
 315.017578125 375 l 2,66,67
 305.54296875 413 305.54296875 413 263.685546875 438.5 c 128,-1,68
 221.827148438 464 221.827148438 464 163.827148438 464 c 0,69,70
 107.827148438 464 107.827148438 464 79.6865234375 440.5 c 128,-1,71
 51.5458984375 417 51.5458984375 417 61.51953125 377 c 0,72,73
 70.9931640625 339 70.9931640625 339 107.23046875 320 c 128,-1,74
 143.467773438 301 143.467773438 301 215.455078125 281 c 0,75,76
 277.693359375 264 277.693359375 264 315.93359375 249 c 128,-1,77
 354.172851562 234 354.172851562 234 386.029296875 206.5 c 128,-1,78
 417.885742188 179 417.885742188 179 428.856445312 135 c 0,79,0
 443.068359375 78 443.068359375 78 411.91796875 40.5 c 128,-1,1
EndSplineSet
Substitution2: "'smcp' Lowercase to Small Capitals in Latin lookup 20 subtable" scedilla.sc
Substitution2: "'aalt' Access All Alternates in Latin lookup 0 subtable" scedilla.sc
EndChar

StartChar: germandbls
Encoding: 223 223 307
Width: 553
GlyphClass: 1
Flags: W
LayerCount: 2
Fore
SplineSet
172.893554688 10 m 2,1,-1
 46.484375 517 l 2,2,3
 25.044921875 607 25.044921875 607 64.3291015625 658 c 128,-1,4
 103.61328125 709 103.61328125 709 193.61328125 709 c 0,5,6
 282.61328125 709 282.61328125 709 347.704101562 658.5 c 128,-1,7
 412.794921875 608 412.794921875 608 434.487304688 521 c 0,8,9
 447.701171875 468 447.701171875 468 432.80078125 429.5 c 128,-1,10
 417.899414062 391 417.899414062 391 379.137695312 374 c 0,11,12
 377.387695312 373 377.387695312 373 377.63671875 372 c 128,-1,13
 377.885742188 371 377.885742188 371 380.135742188 370 c 0,14,15
 430.873046875 351 430.873046875 351 468.966796875 304.5 c 128,-1,16
 507.060546875 258 507.060546875 258 523.017578125 194 c 0,17,18
 545.955078125 102 545.955078125 102 503.170898438 51 c 128,-1,19
 460.38671875 0 460.38671875 0 360.38671875 0 c 2,20,-1
 291.38671875 0 l 2,21,22
 281.38671875 0 281.38671875 0 278.893554688 10 c 2,23,-1
 272.411132812 36 l 2,24,25
 269.91796875 46 269.91796875 46 279.91796875 46 c 2,26,-1
 351.91796875 46 l 2,27,28
 425.91796875 46 425.91796875 46 456.569335938 85.5 c 128,-1,29
 487.220703125 125 487.220703125 125 468.770507812 199 c 0,30,31
 451.068359375 270 451.068359375 270 404.844726562 309 c 128,-1,32
 358.62109375 348 358.62109375 348 293.122070312 350 c 2,33,-1
 231.122070312 350 l 2,34,35
 221.122070312 350 221.122070312 350 218.62890625 360 c 2,36,-1
 212.89453125 383 l 2,37,38
 210.400390625 393 210.400390625 393 220.400390625 393 c 2,39,-1
 282.400390625 393 l 2,40,41
 345.400390625 393 345.400390625 393 371.048828125 426.5 c 128,-1,42
 396.696289062 460 396.696289062 460 381.487304688 521 c 0,43,44
 364.782226562 588 364.782226562 588 318.931640625 625.5 c 128,-1,45
 273.08203125 663 273.08203125 663 206.08203125 663 c 0,46,47
 142.08203125 663 142.08203125 663 112.431640625 625.5 c 128,-1,48
 82.7822265625 588 82.7822265625 588 98.736328125 520 c 2,49,-1
 225.893554688 10 l 2,50,51
 228.38671875 0 228.38671875 0 218.38671875 0 c 2,52,-1
 185.38671875 0 l 2,53,0
 175.38671875 0 175.38671875 0 172.893554688 10 c 2,1,-1
EndSplineSet
EndChar

StartChar: t
Encoding: 116 116 308
Width: 359
GlyphClass: 2
Flags: W
AnchorPoint: "Anchor-10" 78.6631 0 basechar 0
AnchorPoint: "Anchor-9" 78.6631 0 basechar 0
AnchorPoint: "Anchor-8" 78.6631 0 basechar 0
AnchorPoint: "Anchor-7" 62.0879 632 basechar 0
AnchorPoint: "Anchor-6" 305.419 9 basechar 0
LayerCount: 2
Fore
SplineSet
251.221679688 459 m 2,1,-1
 134.221679688 459 l 2,2,3
 130.221679688 459 130.221679688 459 131.21875 455 c 2,4,-1
 210.006835938 139 l 2,5,6
 222.721679688 88 222.721679688 88 250.833007812 67.5 c 128,-1,7
 278.944335938 47 278.944335938 47 329.944335938 47 c 2,8,-1
 352.944335938 47 l 2,9,10
 362.944335938 47 362.944335938 47 365.4375 37 c 2,11,-1
 372.169921875 10 l 2,12,13
 374.663085938 0 374.663085938 0 364.663085938 0 c 2,14,-1
 334.912109375 -1 l 2,15,16
 264.912109375 -1 264.912109375 -1 222.680664062 26 c 128,-1,17
 180.448242188 53 180.448242188 53 161.497070312 125 c 2,18,-1
 79.21875 455 l 2,19,20
 78.2216796875 459 78.2216796875 459 74.2216796875 459 c 2,21,-1
 14.2216796875 459 l 2,22,23
 4.2216796875 459 4.2216796875 459 1.728515625 469 c 2,24,-1
 -4.5048828125 494 l 2,25,26
 -6.998046875 504 -6.998046875 504 3.001953125 504 c 2,27,-1
 63.001953125 504 l 2,28,29
 67.001953125 504 67.001953125 504 66.00390625 508 c 2,30,-1
 37.5810546875 622 l 2,31,32
 35.087890625 632 35.087890625 632 45.087890625 632 c 2,33,-1
 77.087890625 632 l 2,34,35
 87.087890625 632 87.087890625 632 89.5810546875 622 c 2,36,-1
 118.00390625 508 l 2,37,38
 119.001953125 504 119.001953125 504 123.001953125 504 c 2,39,-1
 240.001953125 504 l 2,40,41
 250.001953125 504 250.001953125 504 252.495117188 494 c 2,42,-1
 258.728515625 469 l 2,43,0
 261.221679688 459 261.221679688 459 251.221679688 459 c 2,1,-1
EndSplineSet
Substitution2: "'smcp' Lowercase to Small Capitals in Latin lookup 20 subtable" t.sc
Substitution2: "'aalt' Access All Alternates in Latin lookup 0 subtable" t.sc
EndChar

StartChar: tbar
Encoding: 359 359 309
Width: 359
GlyphClass: 2
Flags: W
AnchorPoint: "Anchor-10" 78.6631 0 basechar 0
AnchorPoint: "Anchor-9" 78.6631 0 basechar 0
AnchorPoint: "Anchor-8" 78.6631 0 basechar 0
AnchorPoint: "Anchor-7" 62.0879 632 basechar 0
AnchorPoint: "Anchor-6" 305.419 9 basechar 0
LayerCount: 2
Fore
SplineSet
251.221679688 459 m 2,1,-1
 134.221679688 459 l 2,2,3
 130.221679688 459 130.221679688 459 131.21875 455 c 2,4,-1
 156.899414062 352 l 2,5,6
 157.896484375 348 157.896484375 348 161.896484375 348 c 2,7,-1
 275.896484375 348 l 2,8,9
 285.896484375 348 285.896484375 348 288.389648438 338 c 2,10,-1
 292.62890625 321 l 2,11,12
 295.122070312 311 295.122070312 311 285.122070312 311 c 2,13,-1
 171.122070312 311 l 2,14,15
 167.122070312 311 167.122070312 311 168.119140625 307 c 2,16,-1
 210.006835938 139 l 2,17,18
 222.721679688 88 222.721679688 88 250.833007812 67.5 c 128,-1,19
 278.944335938 47 278.944335938 47 329.944335938 47 c 2,20,-1
 352.944335938 47 l 2,21,22
 362.944335938 47 362.944335938 47 365.4375 37 c 2,23,-1
 372.169921875 10 l 2,24,25
 374.663085938 0 374.663085938 0 364.663085938 0 c 2,26,-1
 334.912109375 -1 l 2,27,28
 264.912109375 -1 264.912109375 -1 222.680664062 26 c 128,-1,29
 180.448242188 53 180.448242188 53 161.497070312 125 c 2,30,-1
 116.119140625 307 l 2,31,32
 115.122070312 311 115.122070312 311 111.122070312 311 c 2,33,-1
 57.1220703125 311 l 2,34,35
 47.1220703125 311 47.1220703125 311 44.62890625 321 c 2,36,-1
 40.3896484375 338 l 2,37,38
 37.896484375 348 37.896484375 348 47.896484375 348 c 2,39,-1
 101.896484375 348 l 2,40,41
 105.896484375 348 105.896484375 348 104.899414062 352 c 2,42,-1
 79.21875 455 l 2,43,44
 78.2216796875 459 78.2216796875 459 74.2216796875 459 c 2,45,-1
 14.2216796875 459 l 2,46,47
 4.2216796875 459 4.2216796875 459 1.728515625 469 c 2,48,-1
 -4.5048828125 494 l 2,49,50
 -6.998046875 504 -6.998046875 504 3.001953125 504 c 2,51,-1
 63.001953125 504 l 2,52,53
 67.001953125 504 67.001953125 504 66.00390625 508 c 2,54,-1
 37.5810546875 622 l 2,55,56
 35.087890625 632 35.087890625 632 45.087890625 632 c 2,57,-1
 77.087890625 632 l 2,58,59
 87.087890625 632 87.087890625 632 89.5810546875 622 c 2,60,-1
 118.00390625 508 l 2,61,62
 119.001953125 504 119.001953125 504 123.001953125 504 c 2,63,-1
 240.001953125 504 l 2,64,65
 250.001953125 504 250.001953125 504 252.495117188 494 c 2,66,-1
 258.728515625 469 l 2,67,0
 261.221679688 459 261.221679688 459 251.221679688 459 c 2,1,-1
EndSplineSet
Substitution2: "'smcp' Lowercase to Small Capitals in Latin lookup 20 subtable" tbar.sc
Substitution2: "'aalt' Access All Alternates in Latin lookup 0 subtable" tbar.sc
EndChar

StartChar: u
Encoding: 117 117 311
Width: 535
GlyphClass: 2
Flags: W
AnchorPoint: "Anchor-10" 61.958 0 basechar 0
AnchorPoint: "Anchor-9" 426.297 504 basechar 0
AnchorPoint: "Anchor-8" 61.958 0 basechar 0
AnchorPoint: "Anchor-7" 203.297 504 basechar 0
AnchorPoint: "Anchor-6" 315.958 0 basechar 0
LayerCount: 2
Fore
SplineSet
342.296875 504 m 2,1,-1
 374.296875 504 l 2,2,3
 384.296875 504 384.296875 504 386.790039062 494 c 2,4,-1
 507.46484375 10 l 2,5,6
 509.958007812 0 509.958007812 0 499.958007812 0 c 2,7,-1
 467.958007812 0 l 2,8,9
 457.958007812 0 457.958007812 0 455.46484375 10 c 2,10,-1
 443.248046875 59 l 2,11,12
 442.5 62 442.5 62 440.375 62.5 c 128,-1,13
 438.25 63 438.25 63 437.998046875 60 c 0,14,15
 425.2265625 27 425.2265625 27 393.96484375 10 c 128,-1,16
 362.703125 -7 362.703125 -7 314.703125 -7 c 0,17,18
 240.703125 -7 240.703125 -7 180.732421875 37 c 128,-1,19
 120.762695312 81 120.762695312 81 101.564453125 158 c 2,20,-1
 17.7900390625 494 l 2,21,22
 15.296875 504 15.296875 504 25.296875 504 c 2,23,-1
 57.296875 504 l 2,24,25
 67.296875 504 67.296875 504 69.7900390625 494 c 2,26,-1
 150.073242188 172 l 2,27,28
 165.033203125 112 165.033203125 112 209.508789062 76 c 128,-1,29
 253.985351562 40 253.985351562 40 312.985351562 40 c 0,30,31
 373.985351562 40 373.985351562 40 401.884765625 76.5 c 128,-1,32
 429.784179688 113 429.784179688 113 415.073242188 172 c 2,33,-1
 334.790039062 494 l 2,34,0
 332.296875 504 332.296875 504 342.296875 504 c 2,1,-1
EndSplineSet
Substitution2: "'smcp' Lowercase to Small Capitals in Latin lookup 20 subtable" u.sc
Substitution2: "'aalt' Access All Alternates in Latin lookup 0 subtable" u.sc
EndChar

StartChar: uhorn
Encoding: 432 432 320
Width: 537
GlyphClass: 2
Flags: W
AnchorPoint: "Anchor-10" 71.8066 0 basechar 0
AnchorPoint: "Anchor-9" 428.146 504 basechar 0
AnchorPoint: "Anchor-8" 71.8066 0 basechar 0
AnchorPoint: "Anchor-7" 213.146 504 basechar 0
AnchorPoint: "Anchor-6" 325.807 0 basechar 0
LayerCount: 2
Fore
SplineSet
469.94140625 573 m 0,1,2
 475.665039062 534 475.665039062 534 457.772460938 507.5 c 128,-1,3
 439.879882812 481 439.879882812 481 405.874023438 473 c 0,4,5
 402.124023438 472 402.124023438 472 403.12109375 468 c 2,6,-1
 517.313476562 10 l 2,7,8
 519.806640625 0 519.806640625 0 509.806640625 0 c 2,9,-1
 477.806640625 0 l 2,10,11
 467.806640625 0 467.806640625 0 465.313476562 10 c 2,12,-1
 453.095703125 59 l 2,13,14
 452.34765625 62 452.34765625 62 450.223632812 62.5 c 128,-1,15
 448.098632812 63 448.098632812 63 447.846679688 60 c 0,16,17
 435.07421875 27 435.07421875 27 403.813476562 10 c 128,-1,18
 372.551757812 -7 372.551757812 -7 324.551757812 -7 c 0,19,20
 250.551757812 -7 250.551757812 -7 190.581054688 37 c 128,-1,21
 130.611328125 81 130.611328125 81 111.413085938 158 c 2,22,-1
 27.638671875 494 l 2,23,24
 25.1455078125 504 25.1455078125 504 35.1455078125 504 c 2,25,-1
 67.1455078125 504 l 2,26,27
 77.1455078125 504 77.1455078125 504 79.638671875 494 c 2,28,-1
 159.921875 172 l 2,29,30
 174.881835938 112 174.881835938 112 219.357421875 76 c 128,-1,31
 263.833007812 40 263.833007812 40 322.833007812 40 c 0,32,33
 383.833007812 40 383.833007812 40 411.732421875 76.5 c 128,-1,34
 439.6328125 113 439.6328125 113 424.921875 172 c 2,35,-1
 344.638671875 494 l 2,36,37
 342.145507812 504 342.145507812 504 352.145507812 504 c 2,38,-1
 369.145507812 504 l 2,39,40
 398.145507812 504 398.145507812 504 416.532226562 522.5 c 128,-1,41
 434.919921875 541 434.919921875 541 429.94140625 573 c 0,42,43
 428.448242188 583 428.448242188 583 438.448242188 583 c 2,44,-1
 457.448242188 583 l 2,45,0
 467.448242188 583 467.448242188 583 469.94140625 573 c 0,1,2
EndSplineSet
EndChar

